<svg width="2125" height="2684" viewBox="0 0 2125 2684" fill="none" xmlns="http://www.w3.org/2000/svg">
<g clip-path="url(#clip0_894_71)">
<rect width="2125" height="2684" fill="white"/>
<path d="M127.735 14.3359V15.4988H92.2656V14.3359H101.333V14.9219H118.934V14.3359H127.735Z" fill="white"/>
<path d="M127.735 17.3516V19.524H92.2656V17.3516H101.333V18.5234H118.934V17.3516H127.735Z" fill="white"/>
<path d="M127.735 21.3672V23.5486H92.2656V21.3672H101.333V22.5435H118.934V21.3672H127.735Z" fill="white"/>
<path d="M136.64 159.016H129.008L127.544 163H125.768L131.888 146.44H133.784L139.88 163H138.104L136.64 159.016ZM136.136 157.624L132.824 148.552L129.512 157.624H136.136ZM141.4 147.304V145.792H145.48V163H143.776V147.304H141.4Z" fill="white"/>
<path d="M190.03 33.503C190.031 32.1397 189.789 30.7878 189.315 29.5154C188.401 26.9514 186.557 24.8556 184.174 23.6715C182.915 23.0486 181.533 22.7349 180.138 22.7548C178.763 22.7461 177.402 23.0398 176.145 23.6165C174.93 24.166 173.823 24.9429 172.88 25.9082C170.962 27.8998 169.887 30.5967 169.891 33.4067C169.89 34.847 170.193 36.2702 170.778 37.5776C171.347 38.8687 172.162 40.0284 173.173 40.9877C174.197 41.9541 175.383 42.7198 176.673 43.2473C178.058 43.814 179.535 44.0988 181.025 44.0861C182.383 44.0953 183.735 43.9024 185.039 43.5132C186.234 43.1598 187.364 42.6054 188.384 41.8723L186.565 38.3981C185.774 38.7058 184.961 38.951 184.134 39.1314C183.15 39.3347 182.148 39.43 181.145 39.4156C180.022 39.4167 178.923 39.0859 177.977 38.4622C177.055 37.8743 176.282 37.0664 175.724 36.1063H189.732C189.927 35.253 190.026 34.3796 190.03 33.503V33.503ZM175.511 31.7475C175.797 30.6255 176.418 29.6249 177.285 28.8874C178.082 28.1729 179.101 27.7791 180.155 27.7782C181.183 27.7757 182.174 28.1715 182.932 28.8874C183.766 29.6419 184.359 30.6387 184.636 31.7475H175.511Z" fill="white"/>
<path d="M209.611 22.9119C209.107 22.9228 208.625 23.1268 208.258 23.4843C207.892 23.8417 207.667 24.3271 207.628 24.8462C206.949 23.9541 206.045 23.2736 205.015 22.8799C203.899 22.4621 202.719 22.2556 201.533 22.2703C200.202 22.2555 198.885 22.5418 197.673 23.109C196.516 23.6569 195.474 24.4358 194.608 25.4007C193.727 26.3876 193.036 27.5387 192.572 28.7925C191.591 31.4664 191.591 34.4192 192.572 37.0931C193.034 38.3522 193.725 39.5082 194.608 40.4986C195.474 41.4636 196.516 42.2424 197.673 42.7903C198.885 43.3575 200.202 43.6438 201.533 43.6291C202.668 43.6351 203.797 43.4557 204.877 43.0974C205.992 42.7123 206.956 41.9666 207.628 40.9707L207.77 43.047L212.889 43.1386V22.8432L209.611 22.9119ZM205.907 37.2123C204.913 38.1291 203.619 38.6207 202.287 38.5873C201.595 38.5905 200.912 38.4339 200.286 38.1289C199.671 37.8364 199.115 37.4275 198.645 36.9235C198.166 36.4134 197.789 35.8106 197.536 35.1497C197.015 33.7339 197.015 32.17 197.536 30.7542C197.785 30.0833 198.163 29.4708 198.645 28.9529C199.117 28.4517 199.673 28.0433 200.286 27.7475C200.912 27.4425 201.595 27.2859 202.287 27.2891C202.964 27.2852 203.637 27.3887 204.283 27.5962C204.89 27.792 205.445 28.1292 205.907 28.5817C206.397 29.075 206.776 29.6745 207.016 30.3371C207.317 31.1958 207.458 32.1055 207.432 33.0184C207.4 34.9007 206.891 36.2986 205.907 37.2123Z" fill="white"/>
<path d="M228.336 38.3842C227.632 38.6847 226.879 38.8404 226.118 38.8425C225.311 38.8814 224.52 38.6066 223.9 38.0725C223.605 37.7945 223.375 37.4515 223.226 37.0691C223.077 36.6867 223.013 36.2746 223.039 35.8633L223.004 27.8652L228.305 27.8377L228.283 22.7959L222.982 22.8188V18.2812H217.517L217.539 22.8234L214.727 22.9426L214.753 27.8606H217.561L217.601 37.0275C217.575 38.1506 217.76 39.2684 218.147 40.3184C218.445 41.1058 218.919 41.8092 219.53 42.3715C220.142 42.9338 220.873 43.3391 221.664 43.5543C222.452 43.773 223.266 43.8794 224.082 43.8706C224.827 43.8675 225.57 43.7892 226.3 43.6368C227.008 43.4944 227.707 43.3077 228.394 43.0776L228.336 38.3842Z" fill="white"/>
<path d="M248.788 28.788C248.261 27.524 247.508 26.3735 246.57 25.3963C245.643 24.422 244.542 23.6436 243.327 23.1046C242.07 22.551 240.717 22.2656 239.351 22.2656C237.984 22.2656 236.631 22.551 235.374 23.1046C234.159 23.6436 233.058 24.422 232.131 25.3963C231.193 26.3735 230.441 27.524 229.913 28.788C229.378 30.1017 229.102 31.5128 229.102 32.9383C229.102 34.3638 229.378 35.775 229.913 37.0886C230.44 38.3543 231.193 39.5064 232.131 40.485C233.058 41.4592 234.159 42.2376 235.374 42.7767C236.631 43.3303 237.984 43.6156 239.351 43.6156C240.717 43.6156 242.07 43.3303 243.327 42.7767C244.542 42.2376 245.643 41.4592 246.57 40.485C247.509 39.5064 248.261 38.3543 248.788 37.0886C249.324 35.775 249.6 34.3638 249.6 32.9383C249.6 31.5128 249.324 30.1017 248.788 28.788ZM243.762 35.4111C243.528 36.0476 243.177 36.6313 242.729 37.1299C242.302 37.6011 241.792 37.9824 241.225 38.2528C240.65 38.5285 240.022 38.6679 239.388 38.6607C238.747 38.6668 238.113 38.5276 237.53 38.2528C236.954 37.9863 236.436 37.6047 236.004 37.1299C235.558 36.6299 235.209 36.0465 234.975 35.4111C234.718 34.6988 234.592 33.9435 234.602 33.1835C234.596 32.403 234.722 31.6273 234.975 30.8918C235.212 30.2179 235.56 29.5914 236.004 29.0401C236.428 28.5186 236.946 28.0874 237.53 27.7705C238.104 27.4631 238.742 27.3058 239.388 27.3122C240.028 27.3046 240.659 27.4621 241.225 27.7705C241.799 28.0916 242.31 28.5224 242.729 29.0401C243.176 29.5928 243.526 30.2228 243.762 30.901C244.015 31.6365 244.141 32.4122 244.135 33.1927C244.144 33.9496 244.018 34.7017 243.762 35.4111V35.4111Z" fill="white"/>
<path d="M170.128 22.5684L169.436 27.5689C169.272 27.5369 169.099 27.5094 168.913 27.4819C168.651 27.4433 168.387 27.4234 168.123 27.4223C167.326 27.4162 166.533 27.5384 165.772 27.7844C165.092 28.007 164.455 28.3531 163.891 28.8065C163.366 29.2362 162.934 29.7749 162.623 30.3877C162.307 30.9963 162.143 31.6771 162.148 32.3678V43.1205H156.688V22.8434H161.647V24.5393C162.011 24.2551 165.528 21.5555 169.587 22.463C169.76 22.4905 169.942 22.5272 170.128 22.5684Z" fill="white"/>
<path d="M264.691 22.5684L263.999 27.5689C263.835 27.5369 263.662 27.5094 263.475 27.4819C263.214 27.4433 262.95 27.4234 262.686 27.4223C261.889 27.4162 261.095 27.5384 260.335 27.7844C259.654 28.007 259.017 28.3531 258.454 28.8065C257.93 29.2364 257.499 29.7751 257.19 30.3877C256.869 30.9948 256.704 31.6764 256.711 32.3678V43.1205H251.25V22.8434H256.2V24.5393C256.564 24.2551 260.082 21.5555 264.141 22.463C264.323 22.4905 264.504 22.5272 264.691 22.5684Z" fill="white"/>
<path d="M142.836 35.039L146.748 41.1533C147.116 41.7275 147.616 42.1991 148.202 42.5261C148.789 42.8531 149.444 43.0255 150.111 43.028H154.462L146.345 31.3906L142.836 35.039Z" fill="white"/>
<path d="M150.08 22.8436C149.244 22.8432 148.417 23.0198 147.649 23.3628C146.882 23.7057 146.19 24.2076 145.618 24.8374L141.062 29.8288V18.6361C141.062 17.2138 140.515 15.8498 139.542 14.8441C138.569 13.8384 137.249 13.2734 135.872 13.2734H135.602V43.1208H141.062V37.1944L142.899 35.141L143.001 35.0264L143.613 34.3206L145.023 32.8676L145.973 31.7905L146.447 31.2588L154.104 22.8436H150.08Z" fill="white"/>
<path d="M127.735 14.3555V15.538H92.2656V14.3555H101.333V14.9513H118.934V14.3555H127.735Z" fill="white"/>
<path d="M127.735 17.4219V19.6311H92.2656V17.4219H101.333V18.6136H118.934V17.4219H127.735Z" fill="white"/>
<path d="M127.735 21.5039V23.7223H92.2656V21.5039H101.333V22.7002H118.934V21.5039H127.735Z" fill="white"/>
<path d="M127.735 25.3359V28.8148H92.2656V25.3359H101.333V27.2014H118.934V25.3359H127.735Z" fill="white"/>
<path d="M127.735 30.4141V33.8929H92.2656V30.4141H103.657V32.2887H116.091V30.4141H127.735Z" fill="white"/>
<path d="M127.735 35.5039V38.9827H92.2656V35.5039H105.729V37.3694H113.753V35.5039H127.735Z" fill="white"/>
<path d="M127.735 40.5859V44.821H92.2656V40.5859H107.543V41.7822H111.948V40.5859H127.735Z" fill="white"/>
<path d="M1691.86 1314.2C1692.8 1311.62 1693.5 1309.05 1693.5 1306C1693.5 1293.58 1683.42 1283.5 1671 1283.5C1666.31 1283.5 1661.86 1284.91 1658.34 1287.48C1652.02 1276.23 1639.83 1268.5 1626 1268.5C1605.14 1268.5 1588.5 1285.38 1588.5 1306C1588.5 1306.7 1588.5 1307.41 1588.5 1308.11C1575.38 1312.56 1566 1325.22 1566 1339.75C1566 1358.5 1581 1373.5 1599.75 1373.5H1686C1702.41 1373.5 1716 1360.14 1716 1343.5C1716 1329.2 1705.69 1317.02 1691.86 1314.2Z" fill="#05BC6C" fill-opacity="0.2"/>
<path d="M1423.86 54.2031C1424.8 51.625 1425.5 49.0469 1425.5 46C1425.5 33.5781 1415.42 23.5 1403 23.5C1398.31 23.5 1393.86 24.9062 1390.34 27.4844C1384.02 16.2344 1371.83 8.5 1358 8.5C1337.14 8.5 1320.5 25.375 1320.5 46C1320.5 46.7031 1320.5 47.4062 1320.5 48.1094C1307.38 52.5625 1298 65.2188 1298 79.75C1298 98.5 1313 113.5 1331.75 113.5H1418C1434.41 113.5 1448 100.141 1448 83.5C1448 69.2031 1437.69 57.0156 1423.86 54.2031Z" fill="#05BC6C" fill-opacity="0.2"/>
<path d="M852.049 623.568C852.057 623.547 852.062 623.525 852.062 623.5C852.062 623.396 851.979 623.312 851.875 623.312C851.836 623.312 851.799 623.324 851.77 623.346C851.717 623.252 851.615 623.188 851.5 623.188C851.326 623.188 851.188 623.328 851.188 623.5C851.188 623.506 851.188 623.512 851.188 623.518C851.078 623.555 851 623.66 851 623.781C851 623.938 851.125 624.062 851.281 624.062H852C852.137 624.062 852.25 623.951 852.25 623.812C852.25 623.693 852.164 623.592 852.049 623.568Z" fill="#05BC6C" fill-opacity="0.36"/>
<path d="M271.836 876.57C272.93 873.562 273.75 870.555 273.75 867C273.75 852.508 261.992 840.75 247.5 840.75C242.031 840.75 236.836 842.391 232.734 845.398C225.352 832.273 211.133 823.25 195 823.25C170.664 823.25 151.25 842.938 151.25 867C151.25 867.82 151.25 868.641 151.25 869.461C135.938 874.656 125 889.422 125 906.375C125 928.25 142.5 945.75 164.375 945.75H265C284.141 945.75 300 930.164 300 910.75C300 894.07 287.969 879.852 271.836 876.57Z" fill="#05BC6C" fill-opacity="0.36"/>
<path d="M1206.84 1179.57C1207.93 1176.56 1208.75 1173.55 1208.75 1170C1208.75 1155.51 1196.99 1143.75 1182.5 1143.75C1177.03 1143.75 1171.84 1145.39 1167.73 1148.4C1160.35 1135.27 1146.13 1126.25 1130 1126.25C1105.66 1126.25 1086.25 1145.94 1086.25 1170C1086.25 1170.82 1086.25 1171.64 1086.25 1172.46C1070.94 1177.66 1060 1192.42 1060 1209.38C1060 1231.25 1077.5 1248.75 1099.38 1248.75H1200C1219.14 1248.75 1235 1233.16 1235 1213.75C1235 1197.07 1222.97 1182.85 1206.84 1179.57Z" fill="#05BC6C" fill-opacity="0.36"/>
<path d="M326.93 976.102C327.398 974.812 327.75 973.523 327.75 972C327.75 965.789 322.711 960.75 316.5 960.75C314.156 960.75 311.93 961.453 310.172 962.742C307.008 957.117 300.914 953.25 294 953.25C283.57 953.25 275.25 961.688 275.25 972C275.25 972.352 275.25 972.703 275.25 973.055C268.688 975.281 264 981.609 264 988.875C264 998.25 271.5 1005.75 280.875 1005.75H324C332.203 1005.75 339 999.07 339 990.75C339 983.602 333.844 977.508 326.93 976.102Z" fill="#05BC6C" fill-opacity="0.36"/>
<path d="M54.3438 222.281C54.7188 221.25 55 220.219 55 219C55 214.031 50.9688 210 46 210C44.125 210 42.3438 210.562 40.9375 211.594C38.4062 207.094 33.5312 204 28 204C19.6562 204 13 210.75 13 219C13 219.281 13 219.562 13 219.844C7.75 221.625 4 226.688 4 232.5C4 240 10 246 17.5 246H52C58.5625 246 64 240.656 64 234C64 228.281 59.875 223.406 54.3438 222.281Z" fill="#05BC6C" fill-opacity="0.62"/>
<path d="M1272.42 628.785C1272.96 627.281 1273.38 625.777 1273.38 624C1273.38 616.754 1267.5 610.875 1260.25 610.875C1257.52 610.875 1254.92 611.695 1252.87 613.199C1249.18 606.637 1242.07 602.125 1234 602.125C1221.83 602.125 1212.12 611.969 1212.12 624C1212.12 624.41 1212.12 624.82 1212.12 625.23C1204.47 627.828 1199 635.211 1199 643.688C1199 654.625 1207.75 663.375 1218.69 663.375H1269C1278.57 663.375 1286.5 655.582 1286.5 645.875C1286.5 637.535 1280.48 630.426 1272.42 628.785Z" fill="#05BC6C" fill-opacity="0.62"/>
<path d="M1442.88 725.836C1443.66 723.688 1444.25 721.539 1444.25 719C1444.25 708.648 1435.85 700.25 1425.5 700.25C1421.59 700.25 1417.88 701.422 1414.95 703.57C1409.68 694.195 1399.52 687.75 1388 687.75C1370.62 687.75 1356.75 701.812 1356.75 719C1356.75 719.586 1356.75 720.172 1356.75 720.758C1345.81 724.469 1338 735.016 1338 747.125C1338 762.75 1350.5 775.25 1366.12 775.25H1438C1451.67 775.25 1463 764.117 1463 750.25C1463 738.336 1454.41 728.18 1442.88 725.836Z" fill="#05BC6C" fill-opacity="0.36"/>
<path d="M1912.88 910.836C1913.66 908.688 1914.25 906.539 1914.25 904C1914.25 893.648 1905.85 885.25 1895.5 885.25C1891.59 885.25 1887.88 886.422 1884.95 888.57C1879.68 879.195 1869.52 872.75 1858 872.75C1840.62 872.75 1826.75 886.812 1826.75 904C1826.75 904.586 1826.75 905.172 1826.75 905.758C1815.81 909.469 1808 920.016 1808 932.125C1808 947.75 1820.5 960.25 1836.12 960.25H1908C1921.67 960.25 1933 949.117 1933 935.25C1933 923.336 1924.41 913.18 1912.88 910.836Z" fill="#05BC6C" fill-opacity="0.36"/>
<path d="M1463.42 413.785C1463.96 412.281 1464.38 410.777 1464.38 409C1464.38 401.754 1458.5 395.875 1451.25 395.875C1448.52 395.875 1445.92 396.695 1443.87 398.199C1440.18 391.637 1433.07 387.125 1425 387.125C1412.83 387.125 1403.12 396.969 1403.12 409C1403.12 409.41 1403.12 409.82 1403.12 410.23C1395.47 412.828 1390 420.211 1390 428.688C1390 439.625 1398.75 448.375 1409.69 448.375H1460C1469.57 448.375 1477.5 440.582 1477.5 430.875C1477.5 422.535 1471.48 415.426 1463.42 413.785Z" fill="#05BC6C" fill-opacity="0.36"/>
<path d="M1710.42 595.785C1710.96 594.281 1711.38 592.777 1711.38 591C1711.38 583.754 1705.5 577.875 1698.25 577.875C1695.52 577.875 1692.92 578.695 1690.87 580.199C1687.18 573.637 1680.07 569.125 1672 569.125C1659.83 569.125 1650.12 578.969 1650.12 591C1650.12 591.41 1650.12 591.82 1650.12 592.23C1642.47 594.828 1637 602.211 1637 610.688C1637 621.625 1645.75 630.375 1656.69 630.375H1707C1716.57 630.375 1724.5 622.582 1724.5 612.875C1724.5 604.535 1718.48 597.426 1710.42 595.785Z" fill="#05BC6C" fill-opacity="0.36"/>
<path d="M1812.42 73.7852C1812.96 72.2812 1813.38 70.7773 1813.38 69C1813.38 61.7539 1807.5 55.875 1800.25 55.875C1797.52 55.875 1794.92 56.6953 1792.87 58.1992C1789.18 51.6367 1782.07 47.125 1774 47.125C1761.83 47.125 1752.12 56.9688 1752.12 69C1752.12 69.4102 1752.12 69.8203 1752.12 70.2305C1744.47 72.8281 1739 80.2109 1739 88.6875C1739 99.625 1747.75 108.375 1758.69 108.375H1809C1818.57 108.375 1826.5 100.582 1826.5 90.875C1826.5 82.5352 1820.48 75.4258 1812.42 73.7852Z" fill="#05BC6C" fill-opacity="0.36"/>
<path d="M1710.42 312.785C1710.96 311.281 1711.38 309.777 1711.38 308C1711.38 300.754 1705.5 294.875 1698.25 294.875C1695.52 294.875 1692.92 295.695 1690.87 297.199C1687.18 290.637 1680.07 286.125 1672 286.125C1659.83 286.125 1650.12 295.969 1650.12 308C1650.12 308.41 1650.12 308.82 1650.12 309.23C1642.47 311.828 1637 319.211 1637 327.688C1637 338.625 1645.75 347.375 1656.69 347.375H1707C1716.57 347.375 1724.5 339.582 1724.5 329.875C1724.5 321.535 1718.48 314.426 1710.42 312.785Z" fill="#05BC6C" fill-opacity="0.36"/>
<path d="M2010.42 423.785C2010.96 422.281 2011.38 420.777 2011.38 419C2011.38 411.754 2005.5 405.875 1998.25 405.875C1995.52 405.875 1992.92 406.695 1990.87 408.199C1987.18 401.637 1980.07 397.125 1972 397.125C1959.83 397.125 1950.12 406.969 1950.12 419C1950.12 419.41 1950.12 419.82 1950.12 420.23C1942.47 422.828 1937 430.211 1937 438.688C1937 449.625 1945.75 458.375 1956.69 458.375H2007C2016.57 458.375 2024.5 450.582 2024.5 440.875C2024.5 432.535 2018.48 425.426 2010.42 423.785Z" fill="#05BC6C" fill-opacity="0.36"/>
<path d="M2025.42 279.785C2025.96 278.281 2026.38 276.777 2026.38 275C2026.38 267.754 2020.5 261.875 2013.25 261.875C2010.52 261.875 2007.92 262.695 2005.87 264.199C2002.18 257.637 1995.07 253.125 1987 253.125C1974.83 253.125 1965.12 262.969 1965.12 275C1965.12 275.41 1965.12 275.82 1965.12 276.23C1957.47 278.828 1952 286.211 1952 294.688C1952 305.625 1960.75 314.375 1971.69 314.375H2022C2031.57 314.375 2039.5 306.582 2039.5 296.875C2039.5 288.535 2033.48 281.426 2025.42 279.785Z" fill="#05BC6C" fill-opacity="0.36"/>
<path d="M1644.42 171.785C1644.96 170.281 1645.38 168.777 1645.38 167C1645.38 159.754 1639.5 153.875 1632.25 153.875C1629.52 153.875 1626.92 154.695 1624.87 156.199C1621.18 149.637 1614.07 145.125 1606 145.125C1593.83 145.125 1584.12 154.969 1584.12 167C1584.12 167.41 1584.12 167.82 1584.12 168.23C1576.47 170.828 1571 178.211 1571 186.688C1571 197.625 1579.75 206.375 1590.69 206.375H1641C1650.57 206.375 1658.5 198.582 1658.5 188.875C1658.5 180.535 1652.48 173.426 1644.42 171.785Z" fill="#05BC6C" fill-opacity="0.36"/>
<path d="M1954.42 659.785C1954.96 658.281 1955.38 656.777 1955.38 655C1955.38 647.754 1949.5 641.875 1942.25 641.875C1939.52 641.875 1936.92 642.695 1934.87 644.199C1931.18 637.637 1924.07 633.125 1916 633.125C1903.83 633.125 1894.12 642.969 1894.12 655C1894.12 655.41 1894.12 655.82 1894.12 656.23C1886.47 658.828 1881 666.211 1881 674.688C1881 685.625 1889.75 694.375 1900.69 694.375H1951C1960.57 694.375 1968.5 686.582 1968.5 676.875C1968.5 668.535 1962.48 661.426 1954.42 659.785Z" fill="#05BC6C" fill-opacity="0.36"/>
<path d="M1382.42 1742.79C1382.96 1741.28 1383.38 1739.78 1383.38 1738C1383.38 1730.75 1377.5 1724.88 1370.25 1724.88C1367.52 1724.88 1364.92 1725.7 1362.87 1727.2C1359.18 1720.64 1352.07 1716.12 1344 1716.12C1331.83 1716.12 1322.12 1725.97 1322.12 1738C1322.12 1738.41 1322.12 1738.82 1322.12 1739.23C1314.47 1741.83 1309 1749.21 1309 1757.69C1309 1768.62 1317.75 1777.38 1328.69 1777.38H1379C1388.57 1777.38 1396.5 1769.58 1396.5 1759.88C1396.5 1751.54 1390.48 1744.43 1382.42 1742.79Z" fill="#05BC6C" fill-opacity="0.36"/>
<path d="M1893.42 1493.79C1893.96 1492.28 1894.38 1490.78 1894.38 1489C1894.38 1481.75 1888.5 1475.88 1881.25 1475.88C1878.52 1475.88 1875.92 1476.7 1873.87 1478.2C1870.18 1471.64 1863.07 1467.12 1855 1467.12C1842.83 1467.12 1833.12 1476.97 1833.12 1489C1833.12 1489.41 1833.12 1489.82 1833.12 1490.23C1825.47 1492.83 1820 1500.21 1820 1508.69C1820 1519.62 1828.75 1528.38 1839.69 1528.38H1890C1899.57 1528.38 1907.5 1520.58 1907.5 1510.88C1907.5 1502.54 1901.48 1495.43 1893.42 1493.79Z" fill="#05BC6C" fill-opacity="0.36"/>
<path d="M200.418 1474.79C200.965 1473.28 201.375 1471.78 201.375 1470C201.375 1462.75 195.496 1456.88 188.25 1456.88C185.516 1456.88 182.918 1457.7 180.867 1459.2C177.176 1452.64 170.066 1448.12 162 1448.12C149.832 1448.12 140.125 1457.97 140.125 1470C140.125 1470.41 140.125 1470.82 140.125 1471.23C132.469 1473.83 127 1481.21 127 1489.69C127 1500.62 135.75 1509.38 146.688 1509.38H197C206.57 1509.38 214.5 1501.58 214.5 1491.88C214.5 1483.54 208.484 1476.43 200.418 1474.79Z" fill="#05BC6C" fill-opacity="0.36"/>
<path d="M767.174 925.943C767.682 924.547 768.062 923.15 768.062 921.5C768.062 914.771 762.604 909.312 755.875 909.312C753.336 909.312 750.924 910.074 749.02 911.471C745.592 905.377 738.99 901.188 731.5 901.188C720.201 901.188 711.188 910.328 711.188 921.5C711.188 921.881 711.188 922.262 711.188 922.643C704.078 925.055 699 931.91 699 939.781C699 949.938 707.125 958.062 717.281 958.062H764C772.887 958.062 780.25 950.826 780.25 941.812C780.25 934.068 774.664 927.467 767.174 925.943Z" fill="#05BC6C" fill-opacity="0.36"/>
<path d="M542.174 1153.94C542.682 1152.55 543.062 1151.15 543.062 1149.5C543.062 1142.77 537.604 1137.31 530.875 1137.31C528.336 1137.31 525.924 1138.07 524.02 1139.47C520.592 1133.38 513.99 1129.19 506.5 1129.19C495.201 1129.19 486.188 1138.33 486.188 1149.5C486.188 1149.88 486.188 1150.26 486.188 1150.64C479.078 1153.05 474 1159.91 474 1167.78C474 1177.94 482.125 1186.06 492.281 1186.06H539C547.887 1186.06 555.25 1178.83 555.25 1169.81C555.25 1162.07 549.664 1155.47 542.174 1153.94Z" fill="#05BC6C" fill-opacity="0.36"/>
<path d="M252.418 444.785C252.965 443.281 253.375 441.777 253.375 440C253.375 432.754 247.496 426.875 240.25 426.875C237.516 426.875 234.918 427.695 232.867 429.199C229.176 422.637 222.066 418.125 214 418.125C201.832 418.125 192.125 427.969 192.125 440C192.125 440.41 192.125 440.82 192.125 441.23C184.469 443.828 179 451.211 179 459.688C179 470.625 187.75 479.375 198.688 479.375H249C258.57 479.375 266.5 471.582 266.5 461.875C266.5 453.535 260.484 446.426 252.418 444.785Z" fill="#05BC6C" fill-opacity="0.36"/>
<path d="M250.418 200.785C250.965 199.281 251.375 197.777 251.375 196C251.375 188.754 245.496 182.875 238.25 182.875C235.516 182.875 232.918 183.695 230.867 185.199C227.176 178.637 220.066 174.125 212 174.125C199.832 174.125 190.125 183.969 190.125 196C190.125 196.41 190.125 196.82 190.125 197.23C182.469 199.828 177 207.211 177 215.688C177 226.625 185.75 235.375 196.688 235.375H247C256.57 235.375 264.5 227.582 264.5 217.875C264.5 209.535 258.484 202.426 250.418 200.785Z" fill="#05BC6C" fill-opacity="0.36"/>
<path d="M524.418 543.785C524.965 542.281 525.375 540.777 525.375 539C525.375 531.754 519.496 525.875 512.25 525.875C509.516 525.875 506.918 526.695 504.867 528.199C501.176 521.637 494.066 517.125 486 517.125C473.832 517.125 464.125 526.969 464.125 539C464.125 539.41 464.125 539.82 464.125 540.23C456.469 542.828 451 550.211 451 558.688C451 569.625 459.75 578.375 470.688 578.375H521C530.57 578.375 538.5 570.582 538.5 560.875C538.5 552.535 532.484 545.426 524.418 543.785Z" fill="#05BC6C" fill-opacity="0.36"/>
<path d="M603.418 312.785C603.965 311.281 604.375 309.777 604.375 308C604.375 300.754 598.496 294.875 591.25 294.875C588.516 294.875 585.918 295.695 583.867 297.199C580.176 290.637 573.066 286.125 565 286.125C552.832 286.125 543.125 295.969 543.125 308C543.125 308.41 543.125 308.82 543.125 309.23C535.469 311.828 530 319.211 530 327.688C530 338.625 538.75 347.375 549.688 347.375H600C609.57 347.375 617.5 339.582 617.5 329.875C617.5 321.535 611.484 314.426 603.418 312.785Z" fill="#05BC6C" fill-opacity="0.36"/>
<path d="M459.418 113.785C459.965 112.281 460.375 110.777 460.375 109C460.375 101.754 454.496 95.875 447.25 95.875C444.516 95.875 441.918 96.6953 439.867 98.1992C436.176 91.6367 429.066 87.125 421 87.125C408.832 87.125 399.125 96.9688 399.125 109C399.125 109.41 399.125 109.82 399.125 110.23C391.469 112.828 386 120.211 386 128.688C386 139.625 394.75 148.375 405.688 148.375H456C465.57 148.375 473.5 140.582 473.5 130.875C473.5 122.535 467.484 115.426 459.418 113.785Z" fill="#05BC6C" fill-opacity="0.36"/>
<path d="M787.418 610.785C787.965 609.281 788.375 607.777 788.375 606C788.375 598.754 782.496 592.875 775.25 592.875C772.516 592.875 769.918 593.695 767.867 595.199C764.176 588.637 757.066 584.125 749 584.125C736.832 584.125 727.125 593.969 727.125 606C727.125 606.41 727.125 606.82 727.125 607.23C719.469 609.828 714 617.211 714 625.688C714 636.625 722.75 645.375 733.688 645.375H784C793.57 645.375 801.5 637.582 801.5 627.875C801.5 619.535 795.484 612.426 787.418 610.785Z" fill="#05BC6C" fill-opacity="0.36"/>
<path d="M524.418 773.785C524.965 772.281 525.375 770.777 525.375 769C525.375 761.754 519.496 755.875 512.25 755.875C509.516 755.875 506.918 756.695 504.867 758.199C501.176 751.637 494.066 747.125 486 747.125C473.832 747.125 464.125 756.969 464.125 769C464.125 769.41 464.125 769.82 464.125 770.23C456.469 772.828 451 780.211 451 788.688C451 799.625 459.75 808.375 470.688 808.375H521C530.57 808.375 538.5 800.582 538.5 790.875C538.5 782.535 532.484 775.426 524.418 773.785Z" fill="#05BC6C" fill-opacity="0.36"/>
<path d="M1019.42 517.785C1019.96 516.281 1020.38 514.777 1020.38 513C1020.38 505.754 1014.5 499.875 1007.25 499.875C1004.52 499.875 1001.92 500.695 999.867 502.199C996.176 495.637 989.066 491.125 981 491.125C968.832 491.125 959.125 500.969 959.125 513C959.125 513.41 959.125 513.82 959.125 514.23C951.469 516.828 946 524.211 946 532.688C946 543.625 954.75 552.375 965.688 552.375H1016C1025.57 552.375 1033.5 544.582 1033.5 534.875C1033.5 526.535 1027.48 519.426 1019.42 517.785Z" fill="#05BC6C" fill-opacity="0.36"/>
<path d="M946.395 322.152C947.098 320.219 947.625 318.285 947.625 316C947.625 306.684 940.066 299.125 930.75 299.125C927.234 299.125 923.895 300.18 921.258 302.113C916.512 293.676 907.371 287.875 897 287.875C881.355 287.875 868.875 300.531 868.875 316C868.875 316.527 868.875 317.055 868.875 317.582C859.031 320.922 852 330.414 852 341.312C852 355.375 863.25 366.625 877.312 366.625H942C954.305 366.625 964.5 356.605 964.5 344.125C964.5 333.402 956.766 324.262 946.395 322.152Z" fill="#05BC6C" fill-opacity="0.36"/>
<path d="M1234.39 243.152C1235.1 241.219 1235.62 239.285 1235.62 237C1235.62 227.684 1228.07 220.125 1218.75 220.125C1215.23 220.125 1211.89 221.18 1209.26 223.113C1204.51 214.676 1195.37 208.875 1185 208.875C1169.36 208.875 1156.88 221.531 1156.88 237C1156.88 237.527 1156.88 238.055 1156.88 238.582C1147.03 241.922 1140 251.414 1140 262.312C1140 276.375 1151.25 287.625 1165.31 287.625H1230C1242.3 287.625 1252.5 277.605 1252.5 265.125C1252.5 254.402 1244.77 245.262 1234.39 243.152Z" fill="#05BC6C" fill-opacity="0.36"/>
<path d="M1552.39 276.152C1553.1 274.219 1553.62 272.285 1553.62 270C1553.62 260.684 1546.07 253.125 1536.75 253.125C1533.23 253.125 1529.89 254.18 1527.26 256.113C1522.51 247.676 1513.37 241.875 1503 241.875C1487.36 241.875 1474.88 254.531 1474.88 270C1474.88 270.527 1474.88 271.055 1474.88 271.582C1465.03 274.922 1458 284.414 1458 295.312C1458 309.375 1469.25 320.625 1483.31 320.625H1548C1560.3 320.625 1570.5 310.605 1570.5 298.125C1570.5 287.402 1562.77 278.262 1552.39 276.152Z" fill="#05BC6C" fill-opacity="0.36"/>
<path d="M1054.39 111.152C1055.1 109.219 1055.62 107.285 1055.62 105C1055.62 95.6836 1048.07 88.125 1038.75 88.125C1035.23 88.125 1031.89 89.1797 1029.26 91.1133C1024.51 82.6758 1015.37 76.875 1005 76.875C989.355 76.875 976.875 89.5312 976.875 105C976.875 105.527 976.875 106.055 976.875 106.582C967.031 109.922 960 119.414 960 130.312C960 144.375 971.25 155.625 985.312 155.625H1050C1062.3 155.625 1072.5 145.605 1072.5 133.125C1072.5 122.402 1064.77 113.262 1054.39 111.152Z" fill="#05BC6C" fill-opacity="0.36"/>
<path d="M813.395 87.1523C814.098 85.2188 814.625 83.2852 814.625 81C814.625 71.6836 807.066 64.125 797.75 64.125C794.234 64.125 790.895 65.1797 788.258 67.1133C783.512 58.6758 774.371 52.875 764 52.875C748.355 52.875 735.875 65.5312 735.875 81C735.875 81.5273 735.875 82.0547 735.875 82.582C726.031 85.9219 719 95.4141 719 106.312C719 120.375 730.25 131.625 744.312 131.625H809C821.305 131.625 831.5 121.605 831.5 109.125C831.5 98.4023 823.766 89.2617 813.395 87.1523Z" fill="#05BC6C" fill-opacity="0.36"/>
<path d="M59.9062 1140.47C60.5312 1138.75 61 1137.03 61 1135C61 1126.72 54.2812 1120 46 1120C42.875 1120 39.9062 1120.94 37.5625 1122.66C33.3438 1115.16 25.2188 1110 16 1110C2.09375 1110 -9 1121.25 -9 1135C-9 1135.47 -9 1135.94 -9 1136.41C-17.75 1139.38 -24 1147.81 -24 1157.5C-24 1170 -14 1180 -1.5 1180H56C66.9375 1180 76 1171.09 76 1160C76 1150.47 69.125 1142.34 59.9062 1140.47Z" fill="#05BC6C" fill-opacity="0.36"/>
<path d="M426.441 1597.42C426.832 1596.34 427.125 1595.27 427.125 1594C427.125 1588.82 422.926 1584.62 417.75 1584.62C415.797 1584.62 413.941 1585.21 412.477 1586.29C409.84 1581.6 404.762 1578.38 399 1578.38C390.309 1578.38 383.375 1585.41 383.375 1594C383.375 1594.29 383.375 1594.59 383.375 1594.88C377.906 1596.73 374 1602.01 374 1608.06C374 1615.88 380.25 1622.12 388.062 1622.12H424C430.836 1622.12 436.5 1616.56 436.5 1609.62C436.5 1603.67 432.203 1598.59 426.441 1597.42Z" fill="#05BC6C" fill-opacity="0.36"/>
<path d="M330.418 2013.79C330.965 2012.28 331.375 2010.78 331.375 2009C331.375 2001.75 325.496 1995.88 318.25 1995.88C315.516 1995.88 312.918 1996.7 310.867 1998.2C307.176 1991.64 300.066 1987.12 292 1987.12C279.832 1987.12 270.125 1996.97 270.125 2009C270.125 2009.41 270.125 2009.82 270.125 2010.23C262.469 2012.83 257 2020.21 257 2028.69C257 2039.62 265.75 2048.38 276.688 2048.38H327C336.57 2048.38 344.5 2040.58 344.5 2030.88C344.5 2022.54 338.484 2015.43 330.418 2013.79Z" fill="#05BC6C" fill-opacity="0.15"/>
<path d="M597.418 1832.79C597.965 1831.28 598.375 1829.78 598.375 1828C598.375 1820.75 592.496 1814.88 585.25 1814.88C582.516 1814.88 579.918 1815.7 577.867 1817.2C574.176 1810.64 567.066 1806.12 559 1806.12C546.832 1806.12 537.125 1815.97 537.125 1828C537.125 1828.41 537.125 1828.82 537.125 1829.23C529.469 1831.83 524 1839.21 524 1847.69C524 1858.62 532.75 1867.38 543.688 1867.38H594C603.57 1867.38 611.5 1859.58 611.5 1849.88C611.5 1841.54 605.484 1834.43 597.418 1832.79Z" fill="#05BC6C" fill-opacity="0.15"/>
<path d="M935.418 2267.79C935.965 2266.28 936.375 2264.78 936.375 2263C936.375 2255.75 930.496 2249.88 923.25 2249.88C920.516 2249.88 917.918 2250.7 915.867 2252.2C912.176 2245.64 905.066 2241.12 897 2241.12C884.832 2241.12 875.125 2250.97 875.125 2263C875.125 2263.41 875.125 2263.82 875.125 2264.23C867.469 2266.83 862 2274.21 862 2282.69C862 2293.62 870.75 2302.38 881.688 2302.38H932C941.57 2302.38 949.5 2294.58 949.5 2284.88C949.5 2276.54 943.484 2269.43 935.418 2267.79Z" fill="#05BC6C" fill-opacity="0.15"/>
<path d="M1028.42 1765.79C1028.96 1764.28 1029.38 1762.78 1029.38 1761C1029.38 1753.75 1023.5 1747.88 1016.25 1747.88C1013.52 1747.88 1010.92 1748.7 1008.87 1750.2C1005.18 1743.64 998.066 1739.12 990 1739.12C977.832 1739.12 968.125 1748.97 968.125 1761C968.125 1761.41 968.125 1761.82 968.125 1762.23C960.469 1764.83 955 1772.21 955 1780.69C955 1791.62 963.75 1800.38 974.688 1800.38H1025C1034.57 1800.38 1042.5 1792.58 1042.5 1782.88C1042.5 1774.54 1036.48 1767.43 1028.42 1765.79Z" fill="#05BC6C" fill-opacity="0.15"/>
<path d="M1205.42 1983.79C1205.96 1982.28 1206.38 1980.78 1206.38 1979C1206.38 1971.75 1200.5 1965.88 1193.25 1965.88C1190.52 1965.88 1187.92 1966.7 1185.87 1968.2C1182.18 1961.64 1175.07 1957.12 1167 1957.12C1154.83 1957.12 1145.12 1966.97 1145.12 1979C1145.12 1979.41 1145.12 1979.82 1145.12 1980.23C1137.47 1982.83 1132 1990.21 1132 1998.69C1132 2009.62 1140.75 2018.38 1151.69 2018.38H1202C1211.57 2018.38 1219.5 2010.58 1219.5 2000.88C1219.5 1992.54 1213.48 1985.43 1205.42 1983.79Z" fill="#05BC6C" fill-opacity="0.15"/>
<path d="M150.93 2203.1C151.398 2201.81 151.75 2200.52 151.75 2199C151.75 2192.79 146.711 2187.75 140.5 2187.75C138.156 2187.75 135.93 2188.45 134.172 2189.74C131.008 2184.12 124.914 2180.25 118 2180.25C107.57 2180.25 99.25 2188.69 99.25 2199C99.25 2199.35 99.25 2199.7 99.25 2200.05C92.6875 2202.28 88 2208.61 88 2215.88C88 2225.25 95.5 2232.75 104.875 2232.75H148C156.203 2232.75 163 2226.07 163 2217.75C163 2210.6 157.844 2204.51 150.93 2203.1Z" fill="#05BC6C" fill-opacity="0.36"/>
<path d="M821.758 1737.46C822.039 1736.69 822.25 1735.91 822.25 1735C822.25 1731.27 819.227 1728.25 815.5 1728.25C814.094 1728.25 812.758 1728.67 811.703 1729.45C809.805 1726.07 806.148 1723.75 802 1723.75C795.742 1723.75 790.75 1728.81 790.75 1735C790.75 1735.21 790.75 1735.42 790.75 1735.63C786.812 1736.97 784 1740.77 784 1745.12C784 1750.75 788.5 1755.25 794.125 1755.25H820C824.922 1755.25 829 1751.24 829 1746.25C829 1741.96 825.906 1738.3 821.758 1737.46Z" fill="#05BC6C" fill-opacity="0.36"/>
<path d="M982.418 1402.79C982.965 1401.28 983.375 1399.78 983.375 1398C983.375 1390.75 977.496 1384.88 970.25 1384.88C967.516 1384.88 964.918 1385.7 962.867 1387.2C959.176 1380.64 952.066 1376.12 944 1376.12C931.832 1376.12 922.125 1385.97 922.125 1398C922.125 1398.41 922.125 1398.82 922.125 1399.23C914.469 1401.83 909 1409.21 909 1417.69C909 1428.62 917.75 1437.38 928.688 1437.38H979C988.57 1437.38 996.5 1429.58 996.5 1419.88C996.5 1411.54 990.484 1404.43 982.418 1402.79Z" fill="#05BC6C" fill-opacity="0.36"/>
<path d="M793.418 1194.79C793.965 1193.28 794.375 1191.78 794.375 1190C794.375 1182.75 788.496 1176.88 781.25 1176.88C778.516 1176.88 775.918 1177.7 773.867 1179.2C770.176 1172.64 763.066 1168.12 755 1168.12C742.832 1168.12 733.125 1177.97 733.125 1190C733.125 1190.41 733.125 1190.82 733.125 1191.23C725.469 1193.83 720 1201.21 720 1209.69C720 1220.62 728.75 1229.38 739.688 1229.38H790C799.57 1229.38 807.5 1221.58 807.5 1211.88C807.5 1203.54 801.484 1196.43 793.418 1194.79Z" fill="#05BC6C" fill-opacity="0.36"/>
<path d="M55.418 1742.79C55.9648 1741.28 56.375 1739.78 56.375 1738C56.375 1730.75 50.4961 1724.88 43.25 1724.88C40.5156 1724.88 37.918 1725.7 35.8672 1727.2C32.1758 1720.64 25.0664 1716.12 17 1716.12C4.83203 1716.12 -4.875 1725.97 -4.875 1738C-4.875 1738.41 -4.875 1738.82 -4.875 1739.23C-12.5312 1741.83 -18 1749.21 -18 1757.69C-18 1768.62 -9.25 1777.38 1.6875 1777.38H52C61.5703 1777.38 69.5 1769.58 69.5 1759.88C69.5 1751.54 63.4844 1744.43 55.418 1742.79Z" fill="#05BC6C" fill-opacity="0.36"/>
<path d="M1172.42 1509.79C1172.96 1508.28 1173.38 1506.78 1173.38 1505C1173.38 1497.75 1167.5 1491.88 1160.25 1491.88C1157.52 1491.88 1154.92 1492.7 1152.87 1494.2C1149.18 1487.64 1142.07 1483.12 1134 1483.12C1121.83 1483.12 1112.12 1492.97 1112.12 1505C1112.12 1505.41 1112.12 1505.82 1112.12 1506.23C1104.47 1508.83 1099 1516.21 1099 1524.69C1099 1535.62 1107.75 1544.38 1118.69 1544.38H1169C1178.57 1544.38 1186.5 1536.58 1186.5 1526.88C1186.5 1518.54 1180.48 1511.43 1172.42 1509.79Z" fill="#05BC6C" fill-opacity="0.36"/>
<path d="M1575.42 1567.79C1575.96 1566.28 1576.38 1564.78 1576.38 1563C1576.38 1555.75 1570.5 1549.88 1563.25 1549.88C1560.52 1549.88 1557.92 1550.7 1555.87 1552.2C1552.18 1545.64 1545.07 1541.12 1537 1541.12C1524.83 1541.12 1515.12 1550.97 1515.12 1563C1515.12 1563.41 1515.12 1563.82 1515.12 1564.23C1507.47 1566.83 1502 1574.21 1502 1582.69C1502 1593.62 1510.75 1602.38 1521.69 1602.38H1572C1581.57 1602.38 1589.5 1594.58 1589.5 1584.88C1589.5 1576.54 1583.48 1569.43 1575.42 1567.79Z" fill="#05BC6C" fill-opacity="0.36"/>
<path d="M1344.42 1397.79C1344.96 1396.28 1345.38 1394.78 1345.38 1393C1345.38 1385.75 1339.5 1379.88 1332.25 1379.88C1329.52 1379.88 1326.92 1380.7 1324.87 1382.2C1321.18 1375.64 1314.07 1371.12 1306 1371.12C1293.83 1371.12 1284.12 1380.97 1284.12 1393C1284.12 1393.41 1284.12 1393.82 1284.12 1394.23C1276.47 1396.83 1271 1404.21 1271 1412.69C1271 1423.62 1279.75 1432.38 1290.69 1432.38H1341C1350.57 1432.38 1358.5 1424.58 1358.5 1414.88C1358.5 1406.54 1352.48 1399.43 1344.42 1397.79Z" fill="#05BC6C" fill-opacity="0.36"/>
<path d="M1961.42 1151.79C1961.96 1150.28 1962.38 1148.78 1962.38 1147C1962.38 1139.75 1956.5 1133.88 1949.25 1133.88C1946.52 1133.88 1943.92 1134.7 1941.87 1136.2C1938.18 1129.64 1931.07 1125.12 1923 1125.12C1910.83 1125.12 1901.12 1134.97 1901.12 1147C1901.12 1147.41 1901.12 1147.82 1901.12 1148.23C1893.47 1150.83 1888 1158.21 1888 1166.69C1888 1177.62 1896.75 1186.38 1907.69 1186.38H1958C1967.57 1186.38 1975.5 1178.58 1975.5 1168.88C1975.5 1160.54 1969.48 1153.43 1961.42 1151.79Z" fill="#05BC6C" fill-opacity="0.36"/>
<path d="M1071.42 812.785C1071.96 811.281 1072.38 809.777 1072.38 808C1072.38 800.754 1066.5 794.875 1059.25 794.875C1056.52 794.875 1053.92 795.695 1051.87 797.199C1048.18 790.637 1041.07 786.125 1033 786.125C1020.83 786.125 1011.12 795.969 1011.12 808C1011.12 808.41 1011.12 808.82 1011.12 809.23C1003.47 811.828 998 819.211 998 827.688C998 838.625 1006.75 847.375 1017.69 847.375H1068C1077.57 847.375 1085.5 839.582 1085.5 829.875C1085.5 821.535 1079.48 814.426 1071.42 812.785Z" fill="#05BC6C" fill-opacity="0.62"/>
<path d="M1019.42 1016.79C1019.96 1015.28 1020.38 1013.78 1020.38 1012C1020.38 1004.75 1014.5 998.875 1007.25 998.875C1004.52 998.875 1001.92 999.695 999.867 1001.2C996.176 994.637 989.066 990.125 981 990.125C968.832 990.125 959.125 999.969 959.125 1012C959.125 1012.41 959.125 1012.82 959.125 1013.23C951.469 1015.83 946 1023.21 946 1031.69C946 1042.62 954.75 1051.38 965.688 1051.38H1016C1025.57 1051.38 1033.5 1043.58 1033.5 1033.88C1033.5 1025.54 1027.48 1018.43 1019.42 1016.79Z" fill="#05BC6C" fill-opacity="0.62"/>
<path d="M275.418 1832.79C275.965 1831.28 276.375 1829.78 276.375 1828C276.375 1820.75 270.496 1814.88 263.25 1814.88C260.516 1814.88 257.918 1815.7 255.867 1817.2C252.176 1810.64 245.066 1806.12 237 1806.12C224.832 1806.12 215.125 1815.97 215.125 1828C215.125 1828.41 215.125 1828.82 215.125 1829.23C207.469 1831.83 202 1839.21 202 1847.69C202 1858.62 210.75 1867.38 221.688 1867.38H272C281.57 1867.38 289.5 1859.58 289.5 1849.88C289.5 1841.54 283.484 1834.43 275.418 1832.79Z" fill="#05BC6C" fill-opacity="0.62"/>
<path d="M717.953 1525.73C718.266 1524.88 718.5 1524.02 718.5 1523C718.5 1518.86 715.141 1515.5 711 1515.5C709.438 1515.5 707.953 1515.97 706.781 1516.83C704.672 1513.08 700.609 1510.5 696 1510.5C689.047 1510.5 683.5 1516.12 683.5 1523C683.5 1523.23 683.5 1523.47 683.5 1523.7C679.125 1525.19 676 1529.41 676 1534.25C676 1540.5 681 1545.5 687.25 1545.5H716C721.469 1545.5 726 1541.05 726 1535.5C726 1530.73 722.562 1526.67 717.953 1525.73Z" fill="#05BC6C" fill-opacity="0.62"/>
<path d="M1803.95 1767.73C1804.27 1766.88 1804.5 1766.02 1804.5 1765C1804.5 1760.86 1801.14 1757.5 1797 1757.5C1795.44 1757.5 1793.95 1757.97 1792.78 1758.83C1790.67 1755.08 1786.61 1752.5 1782 1752.5C1775.05 1752.5 1769.5 1758.12 1769.5 1765C1769.5 1765.23 1769.5 1765.47 1769.5 1765.7C1765.12 1767.19 1762 1771.41 1762 1776.25C1762 1782.5 1767 1787.5 1773.25 1787.5H1802C1807.47 1787.5 1812 1783.05 1812 1777.5C1812 1772.73 1808.56 1768.67 1803.95 1767.73Z" fill="#05BC6C" fill-opacity="0.62"/>
<path d="M1441.42 2245.79C1441.96 2244.28 1442.38 2242.78 1442.38 2241C1442.38 2233.75 1436.5 2227.88 1429.25 2227.88C1426.52 2227.88 1423.92 2228.7 1421.87 2230.2C1418.18 2223.64 1411.07 2219.12 1403 2219.12C1390.83 2219.12 1381.12 2228.97 1381.12 2241C1381.12 2241.41 1381.12 2241.82 1381.12 2242.23C1373.47 2244.83 1368 2252.21 1368 2260.69C1368 2271.62 1376.75 2280.38 1387.69 2280.38H1438C1447.57 2280.38 1455.5 2272.58 1455.5 2262.88C1455.5 2254.54 1449.48 2247.43 1441.42 2245.79Z" fill="#05BC6C" fill-opacity="0.62"/>
<path d="M1856.42 1946.79C1856.96 1945.28 1857.38 1943.78 1857.38 1942C1857.38 1934.75 1851.5 1928.88 1844.25 1928.88C1841.52 1928.88 1838.92 1929.7 1836.87 1931.2C1833.18 1924.64 1826.07 1920.12 1818 1920.12C1805.83 1920.12 1796.12 1929.97 1796.12 1942C1796.12 1942.41 1796.12 1942.82 1796.12 1943.23C1788.47 1945.83 1783 1953.21 1783 1961.69C1783 1972.62 1791.75 1981.38 1802.69 1981.38H1853C1862.57 1981.38 1870.5 1973.58 1870.5 1963.88C1870.5 1955.54 1864.48 1948.43 1856.42 1946.79Z" fill="#05BC6C" fill-opacity="0.62"/>
<path d="M628.418 2096.79C628.965 2095.28 629.375 2093.78 629.375 2092C629.375 2084.75 623.496 2078.88 616.25 2078.88C613.516 2078.88 610.918 2079.7 608.867 2081.2C605.176 2074.64 598.066 2070.12 590 2070.12C577.832 2070.12 568.125 2079.97 568.125 2092C568.125 2092.41 568.125 2092.82 568.125 2093.23C560.469 2095.83 555 2103.21 555 2111.69C555 2122.62 563.75 2131.38 574.688 2131.38H625C634.57 2131.38 642.5 2123.58 642.5 2113.88C642.5 2105.54 636.484 2098.43 628.418 2096.79Z" fill="#05BC6C" fill-opacity="0.62"/>
<path d="M1411.42 1038.79C1411.96 1037.28 1412.38 1035.78 1412.38 1034C1412.38 1026.75 1406.5 1020.88 1399.25 1020.88C1396.52 1020.88 1393.92 1021.7 1391.87 1023.2C1388.18 1016.64 1381.07 1012.12 1373 1012.12C1360.83 1012.12 1351.12 1021.97 1351.12 1034C1351.12 1034.41 1351.12 1034.82 1351.12 1035.23C1343.47 1037.83 1338 1045.21 1338 1053.69C1338 1064.62 1346.75 1073.38 1357.69 1073.38H1408C1417.57 1073.38 1425.5 1065.58 1425.5 1055.88C1425.5 1047.54 1419.48 1040.43 1411.42 1038.79Z" fill="#05BC6C" fill-opacity="0.15"/>
<path d="M1617.42 899.785C1617.96 898.281 1618.38 896.777 1618.38 895C1618.38 887.754 1612.5 881.875 1605.25 881.875C1602.52 881.875 1599.92 882.695 1597.87 884.199C1594.18 877.637 1587.07 873.125 1579 873.125C1566.83 873.125 1557.12 882.969 1557.12 895C1557.12 895.41 1557.12 895.82 1557.12 896.23C1549.47 898.828 1544 906.211 1544 914.688C1544 925.625 1552.75 934.375 1563.69 934.375H1614C1623.57 934.375 1631.5 926.582 1631.5 916.875C1631.5 908.535 1625.48 901.426 1617.42 899.785Z" fill="#05BC6C" fill-opacity="0.15"/>
<path d="M1834.42 1127.79C1834.96 1126.28 1835.38 1124.78 1835.38 1123C1835.38 1115.75 1829.5 1109.88 1822.25 1109.88C1819.52 1109.88 1816.92 1110.7 1814.87 1112.2C1811.18 1105.64 1804.07 1101.12 1796 1101.12C1783.83 1101.12 1774.12 1110.97 1774.12 1123C1774.12 1123.41 1774.12 1123.82 1774.12 1124.23C1766.47 1126.83 1761 1134.21 1761 1142.69C1761 1153.62 1769.75 1162.38 1780.69 1162.38H1831C1840.57 1162.38 1848.5 1154.58 1848.5 1144.88C1848.5 1136.54 1842.48 1129.43 1834.42 1127.79Z" fill="#05BC6C" fill-opacity="0.15"/>
</g>
<defs>
<clipPath id="clip0_894_71">
<rect width="2125" height="2684" fill="white"/>
</clipPath>
</defs>
</svg>
