<svg width="629" height="441" viewBox="0 0 629 441" fill="none" xmlns="http://www.w3.org/2000/svg">
<path d="M527.561 191.885C531.49 181.078 534.438 170.271 534.438 157.5C534.438 105.432 492.193 63.1875 440.125 63.1875C420.477 63.1875 401.811 69.082 387.074 79.8887C360.549 32.7324 309.463 0.3125 251.5 0.3125C164.064 0.3125 94.3125 71.0469 94.3125 157.5C94.3125 160.447 94.3125 163.395 94.3125 166.342C39.2969 185.008 0 238.059 0 298.969C0 377.562 62.875 440.438 141.469 440.438H503C571.77 440.438 628.75 384.439 628.75 314.688C628.75 254.76 585.523 203.674 527.561 191.885Z" fill="#05BC6C" fill-opacity="0.4"/>
</svg>
