<svg width="313" height="220" viewBox="0 0 313 220" fill="none" xmlns="http://www.w3.org/2000/svg">
<path d="M262.207 96.0898C264.16 90.7188 265.625 85.3477 265.625 79C265.625 53.1211 244.629 32.125 218.75 32.125C208.984 32.125 199.707 35.0547 192.383 40.4258C179.199 16.9883 153.809 0.875 125 0.875C81.543 0.875 46.875 36.0312 46.875 79C46.875 80.4648 46.875 81.9297 46.875 83.3945C19.5312 92.6719 0 119.039 0 149.312C0 188.375 31.25 219.625 70.3125 219.625H250C284.18 219.625 312.5 191.793 312.5 157.125C312.5 127.34 291.016 101.949 262.207 96.0898Z" fill="#05BC6C"/>
</svg>
