<svg width="803" height="641" viewBox="0 0 803 641" fill="none" xmlns="http://www.w3.org/2000/svg">
<g clip-path="url(#clip0_1122_239)">
<path d="M484.193 350.957C485.497 350.957 486.749 351.473 487.671 352.392C488.594 353.312 489.112 354.558 489.112 355.858V403.268H583.472C584.777 403.268 586.028 403.785 586.951 404.704C587.873 405.623 588.391 406.869 588.391 408.169C588.391 409.469 587.873 410.715 586.951 411.635C586.028 412.554 584.777 413.07 583.472 413.07H489.112V577.026H479.273V355.858C479.273 354.558 479.792 353.312 480.714 352.392C481.637 351.473 482.888 350.957 484.193 350.957V350.957Z" fill="#E6E6E6"/>
<path d="M221.598 575.912L203.859 576.4C201.165 576.538 198.499 575.794 196.27 574.28C194.343 572.853 193.46 570.923 193.847 568.985L197.338 551.509C197.996 548.212 202.051 545.719 206.979 545.584L216.775 545.314C221.704 545.179 225.891 547.444 226.731 550.7L231.184 567.958C231.678 569.872 230.903 571.847 229.058 573.378C226.916 575.012 224.296 575.902 221.598 575.912V575.912Z" fill="#3F3D56"/>
<path d="M329.488 575.416L311.75 575.904C309.056 576.042 306.39 575.298 304.16 573.784C302.234 572.357 301.35 570.427 301.738 568.489L305.228 551.013C305.886 547.716 309.942 545.223 314.87 545.088L324.666 544.818C329.595 544.683 333.782 546.948 334.621 550.204L339.075 567.462C339.569 569.376 338.793 571.351 336.949 572.882C334.806 574.516 332.186 575.406 329.488 575.416V575.416Z" fill="#3F3D56"/>
<path d="M160.005 427.049C159.195 426.701 158.528 426.088 158.115 425.311C157.702 424.535 157.567 423.64 157.734 422.777C157.9 421.914 158.357 421.133 159.03 420.564C159.702 419.994 160.549 419.671 161.432 419.647L363.092 414.099C363.601 414.085 364.107 414.171 364.582 414.352C365.057 414.532 365.492 414.805 365.861 415.153C366.231 415.501 366.528 415.918 366.735 416.381C366.943 416.843 367.057 417.342 367.071 417.849V417.849C367.098 418.872 366.717 419.863 366.011 420.606C365.306 421.35 364.333 421.783 363.306 421.813L363.306 421.813L161.645 427.36C161.082 427.377 160.522 427.271 160.005 427.049Z" fill="#3F3D56"/>
<path d="M234.425 360.539L176.781 362.125L182.155 556.019L239.8 554.433L234.425 360.539Z" fill="#E6E6E6"/>
<path d="M235.886 357.055L224.805 387.127L224.815 524.137L238.317 527.995L235.886 357.055Z" fill="#CCCCCC"/>
<path d="M205.302 309.867C194.518 310.172 186.29 328.765 186.488 336.021L186.852 349.157L225.901 348.083L225.537 334.947C225.333 327.691 216.087 309.578 205.302 309.867Z" fill="#3F3D56"/>
<path d="M177.53 442.421C175.515 442.474 173.561 441.729 172.097 440.349C170.633 438.969 169.778 437.066 169.72 435.059L169.128 413.682C169.072 411.674 169.82 409.726 171.205 408.267C172.591 406.808 174.502 405.957 176.518 405.901C178.533 405.846 180.488 406.59 181.953 407.971C183.417 409.352 184.271 411.255 184.327 413.263L184.92 434.641C184.973 436.648 184.225 438.595 182.84 440.053C181.454 441.512 179.545 442.363 177.53 442.421Z" fill="#3F3D56"/>
<path d="M192.156 362.583L191.883 348.455L195.602 348.363L195.875 362.446L199.246 567.7L195.526 567.802" fill="#3F3D56"/>
<path d="M241.033 395.62L174.186 397.459C167.801 389.702 167.221 356.655 180.546 350.365L185.771 341.526L226.058 339.566L230.766 348.874C237.394 354.493 240.812 387.334 241.033 395.62Z" fill="#E6E6E6"/>
<path d="M215.873 379.77L198.969 380.235C195.707 380.325 192.933 376.109 192.787 370.838C192.641 365.567 195.177 361.205 198.439 361.115L215.343 360.65C218.605 360.56 221.379 364.776 221.525 370.047C221.671 375.318 219.135 379.681 215.873 379.77Z" fill="#05BC6C"/>
<path d="M183.144 475.109L148.298 499.632L142.211 554.922L182.86 541.392L183.144 475.109Z" fill="#E6E6E6"/>
<path d="M345.699 358.164L288.055 359.75L293.429 553.644L351.073 552.058L345.699 358.164Z" fill="#E6E6E6"/>
<path d="M289.438 357.703L301.298 387.479L304.857 524.443L291.46 528.648L289.438 357.703Z" fill="#CCCCCC"/>
<path d="M374.524 304.332C378.697 304.332 382.08 299.813 382.08 294.238C382.08 288.664 378.697 284.145 374.524 284.145C370.351 284.145 366.969 288.664 366.969 294.238C366.969 299.813 370.351 304.332 374.524 304.332Z" fill="#E6E6E6"/>
<path d="M315.451 307.523C304.667 307.828 296.438 326.422 296.636 333.677L297 346.813L336.05 345.739L335.685 332.603C335.481 325.348 326.236 307.235 315.451 307.523Z" fill="#3F3D56"/>
<path d="M326.617 367.006L326.344 352.878L330.063 352.785L330.336 366.868L333.707 572.122L329.987 572.225" fill="#3F3D56"/>
<path d="M351.187 393.276L284.341 395.116C283.175 388.097 284.683 355.345 290.701 348.022L295.926 339.182L336.213 337.223L340.921 346.53C352.815 347.496 356.976 379.68 351.187 393.276Z" fill="#E6E6E6"/>
<path d="M326.104 380.377L309.199 380.842C305.937 380.931 303.145 376.053 302.977 369.969C302.808 363.885 305.325 358.861 308.587 358.771L325.492 358.306C328.754 358.216 331.546 363.094 331.714 369.178C331.883 375.263 329.366 380.287 326.104 380.377Z" fill="#05BC6C"/>
<path d="M348.549 460.938L382.235 487.017L385.782 542.528L345.797 527.163L348.549 460.938Z" fill="#E6E6E6"/>
<path d="M339.141 203.829C302.996 203.829 261.456 163.868 224.703 182.854C113.425 240.34 128.743 144.146 96.7734 108.371L97.823 106.273C122.025 198.248 143.924 344.806 225.186 180.415C245.542 139.235 312.351 202.887 351.676 201.009L351.744 203.53C347.591 203.73 343.39 203.829 339.141 203.829Z" fill="#F2F2F2"/>
<path d="M425.897 209.482C397.084 231.224 339.752 224.356 321.96 261.598C268.092 374.359 222.006 288.462 174.841 279.173L174.406 276.87C221.622 280.772 272.268 274.718 320.867 259.363C364.786 245.488 403.97 224.847 434.181 199.695L435.763 201.664C432.574 204.321 429.285 206.927 425.897 209.482Z" fill="#F2F2F2"/>
<path d="M112.462 204.531C116.634 204.531 120.017 200.012 120.017 194.437C120.017 188.863 116.634 184.344 112.462 184.344C108.289 184.344 104.906 188.863 104.906 194.437C104.906 200.012 108.289 204.531 112.462 204.531Z" fill="#E6E6E6"/>
<path d="M346.798 122.554C350.97 122.554 354.353 118.035 354.353 112.461C354.353 106.886 350.97 102.367 346.798 102.367C342.625 102.367 339.242 106.886 339.242 112.461C339.242 118.035 342.625 122.554 346.798 122.554Z" fill="#E6E6E6"/>
<path d="M181.637 245.27C178.183 247.563 174.647 242.106 178.168 239.915C181.622 237.622 185.157 243.079 181.637 245.27Z" fill="#E6E6E6"/>
<path d="M309.535 66.1649C306.081 68.4578 302.546 63.0005 306.066 60.8094C309.52 58.5166 313.056 63.9739 309.535 66.1649Z" fill="#E6E6E6"/>
<path d="M384.916 172.354L382.719 171.873L383.2 169.683L381.735 169.363L381.253 171.554L379.055 171.074L378.734 172.534L380.932 173.014L380.451 175.203L381.916 175.523L382.398 173.333L384.595 173.813L384.916 172.354Z" fill="#E6E6E6"/>
<path d="M183.486 98.9636C188.773 98.9636 193.059 94.694 193.059 89.4271C193.059 84.1603 188.773 79.8906 183.486 79.8906C178.2 79.8906 173.914 84.1603 173.914 89.4271C173.914 94.694 178.2 98.9636 183.486 98.9636Z" fill="#FF6584"/>
<path d="M253.498 77.3589C242.713 77.664 234.485 96.2577 234.683 103.513L235.047 116.649L274.096 115.575L273.732 102.439C273.528 95.1835 264.282 77.0707 253.498 77.3589Z" fill="#3F3D56"/>
<path d="M276.754 574.768L259.016 575.256C256.321 575.394 253.656 574.649 251.426 573.136C249.5 571.708 248.616 569.779 249.003 567.841L252.494 550.364C253.152 547.067 257.207 544.575 262.136 544.439L271.932 544.17C276.86 544.034 281.047 546.3 281.887 549.556L286.34 566.813C286.834 568.727 286.059 570.703 284.215 572.234C282.072 573.867 279.452 574.757 276.754 574.768V574.768Z" fill="#3F3D56"/>
<path d="M284.66 160.981L227.016 162.566L237.879 554.501L295.523 552.915L284.66 160.981Z" fill="#E6E6E6"/>
<path d="M261.593 350.7L261.32 336.572L265.039 336.48L265.312 350.563L268.683 555.817L264.963 555.919" fill="#3F3D56"/>
<path d="M296.007 196.851L217.902 199C216.54 190.799 218.302 152.531 225.333 143.974L227.26 133.761L281.19 132.277L284.011 142.232C291.756 148.797 295.749 187.169 296.007 196.851Z" fill="#E6E6E6"/>
<path d="M282.895 133.484L227.242 135.015C225.188 135.071 223.492 133.997 223.454 132.615C223.449 132.415 223.478 132.217 223.54 132.028L232.185 105.496C232.555 104.36 234.028 103.526 235.748 103.478L272.655 102.463C274.375 102.416 275.893 103.168 276.325 104.282L286.426 130.298C286.943 131.629 285.75 133.013 283.761 133.391C283.475 133.445 283.186 133.476 282.895 133.484V133.484Z" fill="#E6E6E6"/>
<path d="M232.738 348.897C232.235 348.682 231.76 348.409 231.324 348.081C230.698 347.644 230.18 347.069 229.812 346.402C229.443 345.734 229.232 344.992 229.196 344.231L227.174 271.272C227.09 268.252 230.058 265.711 233.79 265.608L283.612 264.238C287.344 264.134 290.447 266.509 290.532 269.529L292.554 342.488C292.56 343.25 292.391 344.003 292.059 344.689C291.728 345.376 291.243 345.978 290.643 346.449C289.312 347.529 287.653 348.129 285.937 348.151L236.116 349.521C234.958 349.56 233.805 349.347 232.738 348.897V348.897Z" fill="#3F3D56"/>
<path d="M264.619 128.788L247.715 129.253C244.453 129.343 241.695 125.671 241.567 121.07C241.44 116.468 243.99 112.65 247.252 112.56L264.157 112.095C267.419 112.006 270.177 115.677 270.305 120.279C270.432 124.881 267.881 128.699 264.619 128.788Z" fill="#05BC6C"/>
<path d="M664.201 561.51H644.524V419.048C660.983 417.873 673.353 412.851 673.353 406.834C673.353 399.945 657.136 394.359 637.13 394.359C617.124 394.359 600.906 399.945 600.906 406.834C600.906 412.909 613.517 417.967 630.214 419.079V561.51H610.537C608.639 561.51 606.819 562.261 605.477 563.598C604.135 564.935 603.381 566.748 603.381 568.638C603.381 570.529 604.135 572.342 605.477 573.679C606.819 575.016 608.639 575.767 610.537 575.767H664.201C666.099 575.767 667.919 575.016 669.261 573.679C670.603 572.342 671.357 570.529 671.357 568.638C671.357 566.748 670.603 564.935 669.261 563.598C667.919 562.261 666.099 561.51 664.201 561.51Z" fill="#E6E6E6"/>
<path d="M624.707 489.185L618.244 496.202L588 474.705L597.539 464.348L624.707 489.185Z" fill="#A0616A"/>
<path d="M608.177 507.704C608.24 509.273 608.616 510.815 609.282 512.238C609.947 513.662 610.89 514.94 612.055 515.998L612.339 516.262L620.816 507.058L633.178 493.635L624.052 485.289L622.404 487.082L622.232 487.267L614.02 491.137L612.28 491.961L611.982 492.099L611.327 499.107V499.114C610.256 500.266 609.426 501.619 608.885 503.094C608.345 504.569 608.104 506.136 608.177 507.704V507.704Z" fill="#2F2E41"/>
<path d="M658.194 559.188L649.047 561.957L633.977 528.125L647.477 524.039L658.194 559.188Z" fill="#A0616A"/>
<path d="M633.611 575.867L633.723 576.242L663.217 567.316L659.617 555.508L657.288 556.214L657.043 556.286L646.078 555.284L645.754 555.258L641.604 560.961C638.56 561.881 636.008 563.969 634.509 566.764C633.01 569.56 632.687 572.834 633.611 575.867H633.611Z" fill="#2F2E41"/>
<path d="M582.771 382.047C582.771 382.047 524.371 438.222 561.29 455.609H572.701C575.182 447.577 578.994 440.015 583.981 433.237C585.059 431.831 589.098 432.117 590.22 430.747C597.068 422.383 604.493 415.199 609.621 415.485L608.394 454.298L606.409 468.143C605.366 475.299 634.786 537.79 634.786 537.79L653.277 530.55C653.277 530.55 634.012 479.08 633.786 471.659L649.225 390.072L582.771 382.047Z" fill="#2F2E41"/>
<path d="M577.895 384.819C578.193 385.242 578.582 385.594 579.033 385.848C579.778 386.267 580.584 386.565 581.422 386.731C594.571 389.705 637.525 395.869 648.675 392.928C650.045 392.572 650.938 392.071 651.229 391.412C652.163 389.329 652.043 380.528 651.494 369.9C651.395 367.909 649.191 365.753 649.059 363.67C648.966 362.108 650.945 360.637 650.839 359.049C650.111 348.302 649.172 337.352 648.543 330.43C648.146 325.98 647.874 323.197 647.874 323.197L654.657 280.589L654.34 280.068L653.982 279.89L632.112 269.104L630.921 266.072C630.575 265.199 629.975 264.449 629.198 263.918C628.421 263.388 627.502 263.103 626.56 263.098L612.154 263.039C611.406 263.035 610.669 263.209 610.002 263.546C609.336 263.883 608.76 264.374 608.322 264.977L604.418 270.364L578.61 286.845L578.709 287.149L590.819 323.863L590.879 326.725V326.731L591.329 349.74L590.078 352.858L591.487 357.974C591.487 357.974 590.839 363.953 587.365 368.397C584.215 372.432 580.205 376.638 578.392 380.053V380.06C577.386 381.945 577.048 383.58 577.895 384.819Z" fill="#05BC6C"/>
<path d="M558.484 452.275L561.606 456.204C561.606 456.204 590.314 476.214 591.3 478.084L595.837 482.361L606.815 470.67L601.106 463.541C596.538 457.836 590.635 453.334 583.915 450.429V450.429L575.165 442.695L558.484 452.275Z" fill="#2F2E41"/>
<path d="M661.897 398.089L656.669 347.674L655.289 326.925L669.922 324.289C669.922 324.289 669.342 339.125 671.259 347.496C673.151 355.756 671.51 396.982 671.393 398.084C672.468 399.041 673.225 400.301 673.566 401.697C673.906 403.093 673.813 404.558 673.299 405.9C672.785 407.242 671.874 408.397 670.687 409.212C669.5 410.027 668.093 410.463 666.651 410.464C665.209 410.465 663.801 410.029 662.614 409.216C661.426 408.402 660.514 407.248 659.999 405.906C659.483 404.565 659.389 403.099 659.728 401.704C660.067 400.308 660.823 399.047 661.897 398.089V398.089Z" fill="#A0616A"/>
<path d="M644.469 321.737L648.545 330.426L649.968 333.452L653.799 353.441L655.712 355.465L657.359 361.999L658.134 361.841L672.096 358.96L676.166 358.122C677.083 356.6 677.445 354.808 677.189 353.051C676.934 351.293 676.077 349.678 674.763 348.477C674.485 348.227 674.254 347.983 674.26 347.752C674.492 333.848 673.638 308.459 665.929 298.01C663.481 294.694 662.012 291.391 659.874 289.083C659.867 289.077 659.867 289.07 659.861 289.07L654.66 280.586L654.342 280.065L653.985 279.887L644.469 321.737Z" fill="#05BC6C"/>
<path d="M620.488 259.466C631.074 259.466 639.656 250.916 639.656 240.37C639.656 229.823 631.074 221.273 620.488 221.273C609.902 221.273 601.32 229.823 601.32 240.37C601.32 250.916 609.902 259.466 620.488 259.466Z" fill="#A0616A"/>
<path d="M643.247 236.262C643.808 233.053 644.246 228.893 642.638 225.194C641.279 222.082 637.879 219.164 634.101 219.558C634.28 218.855 634.26 218.117 634.043 217.425C633.826 216.733 633.421 216.114 632.873 215.638C631.642 214.675 630.209 214.004 628.68 213.674C625.128 212.634 621.449 211.555 617.65 211.535C613.387 211.512 609.609 212.967 607.293 215.533L607.236 215.616L606.542 217.268C606.449 217.489 606.309 217.688 606.132 217.851C605.954 218.013 605.744 218.136 605.514 218.21C605.285 218.285 605.041 218.309 604.801 218.28C604.56 218.251 604.33 218.169 604.125 218.04C603.9 217.903 603.643 217.826 603.38 217.817C603.116 217.809 602.855 217.869 602.622 217.992C602.389 218.115 602.192 218.296 602.05 218.518C601.909 218.74 601.829 218.995 601.817 219.257L601.78 219.962L600.785 219.567C600.536 219.467 600.264 219.434 599.998 219.474C599.731 219.513 599.481 219.622 599.271 219.79C599.062 219.958 598.901 220.179 598.806 220.43C598.71 220.68 598.684 220.952 598.729 221.216L598.862 222.055C598.648 222.016 598.428 222.02 598.216 222.068C598.004 222.116 597.804 222.205 597.627 222.332C597.375 222.517 597.187 222.777 597.093 223.075C596.998 223.373 597.001 223.693 597.1 223.989C597.872 226.183 599.19 228.145 600.932 229.692C601.713 230.395 602.589 230.988 603.533 231.453C603.729 231.552 603.934 231.646 604.145 231.734C611.784 234.997 619.957 236.841 628.262 237.176C627.476 238.669 626.969 240.291 626.764 241.963C626.651 242.912 626.8 243.874 627.197 244.745C627.593 245.615 628.221 246.361 629.013 246.901C629.356 247.097 629.717 247.261 630.09 247.392C630.446 247.523 630.791 247.683 631.122 247.869C631.607 248.161 632.006 248.576 632.279 249.071C632.551 249.566 632.688 250.124 632.674 250.688C632.661 251.253 632.498 251.804 632.202 252.286C631.906 252.767 631.488 253.163 630.99 253.432C630.99 253.432 632.416 255.167 632.644 255.137C633.553 254.932 634.374 254.448 634.992 253.753C639.143 249.738 641.921 243.856 643.247 236.262Z" fill="#2F2E41"/>
<path d="M727.16 531.446L727.993 512.784C736.678 508.16 746.364 505.717 756.212 505.668C742.659 516.707 744.352 537.986 735.164 552.831C732.263 557.439 728.358 561.338 723.738 564.238C719.119 567.138 713.904 568.965 708.479 569.584L697.138 576.503C695.581 567.859 695.925 558.982 698.143 550.484C700.362 541.985 704.404 534.067 709.99 527.275C713.162 523.495 716.799 520.128 720.815 517.254C723.531 524.39 727.16 531.446 727.16 531.446Z" fill="#F2F2F2"/>
<path d="M784.188 577.392C784.189 577.574 784.153 577.754 784.084 577.922C784.014 578.09 783.912 578.243 783.783 578.372C783.654 578.5 783.5 578.602 783.331 578.672C783.163 578.741 782.982 578.776 782.799 578.776H20.7173C20.3489 578.776 19.9955 578.63 19.735 578.37C19.4745 578.111 19.3281 577.759 19.3281 577.392C19.3281 577.025 19.4745 576.673 19.735 576.413C19.9955 576.154 20.3489 576.008 20.7173 576.008H782.799C782.982 576.007 783.163 576.043 783.331 576.112C783.5 576.181 783.654 576.283 783.783 576.412C783.912 576.541 784.014 576.693 784.084 576.862C784.153 577.03 784.189 577.21 784.188 577.392V577.392Z" fill="#CCCCCC"/>
<path d="M347.131 437.685C345.116 437.738 343.163 436.993 341.699 435.613C340.234 434.232 339.38 432.33 339.322 430.323L338.729 408.945C338.676 406.939 339.425 404.994 340.81 403.537C342.196 402.08 344.105 401.23 346.119 401.175C348.133 401.119 350.087 401.863 351.551 403.241C353.015 404.62 353.87 406.521 353.928 408.527L354.521 429.905C354.574 431.912 353.826 433.859 352.441 435.317C351.055 436.776 349.146 437.627 347.131 437.685V437.685Z" fill="#3F3D56"/>
<path d="M682.401 515.816C670.852 515.816 658.195 515.381 644.428 514.511C573.22 510.006 480.985 494.344 384.712 470.411C288.44 446.477 199.632 417.13 134.649 387.778C102.993 373.479 78.6978 359.944 62.4381 347.548C45.2234 334.426 37.6934 322.987 40.0565 313.552C44.6609 295.17 85.4308 291.148 118.822 291.012L118.833 293.685C72.9785 293.872 45.9265 301.158 42.6603 314.199C38.4996 330.809 72.4321 356.739 135.757 385.343C200.597 414.631 289.242 443.921 385.362 467.817C481.482 491.713 573.547 507.348 644.598 511.843C713.985 516.234 756.169 509.226 760.33 492.616C763.784 478.825 741.012 458.51 696.21 435.411L697.443 433.037C729.997 449.821 767.784 473.894 762.933 493.263C760.57 502.699 748.528 509.271 727.143 512.798C714.953 514.808 699.98 515.816 682.401 515.816Z" fill="#CCCCCC"/>
<path d="M69.4686 498.3C60.3044 498.3 54.3466 496.032 51.7097 491.522C46.5096 482.628 55.2187 467.023 77.5947 445.141L79.4744 447.048C58.6894 467.376 49.6523 482.692 54.0278 490.176C56.7966 494.91 65.0367 496.607 77.8624 495.081C90.5946 493.567 107.468 489.053 128.014 481.666C170.311 466.458 223.378 440.805 277.438 409.432C331.497 378.06 380.072 344.726 414.217 315.571C420.775 309.971 426.728 304.582 431.908 299.558C438.708 293.123 444.982 286.157 450.669 278.727C458.328 268.367 460.913 260.388 458.144 255.653C453.52 247.745 434.096 248.489 403.445 257.75L402.667 255.192C435.551 245.257 454.997 244.959 460.463 254.308C463.859 260.116 461.291 268.866 452.83 280.312C447.056 287.86 440.685 294.936 433.78 301.473C428.559 306.537 422.565 311.963 415.963 317.601C381.699 346.858 332.983 380.291 278.788 411.742C224.593 443.193 171.37 468.92 128.925 484.181C108.188 491.637 91.1148 496.197 78.1804 497.735C75.2902 498.094 72.3812 498.283 69.4686 498.3V498.3Z" fill="#CCCCCC"/>
<path d="M559.193 388.548C552.562 388.417 516.942 387.398 511.1 387.649C510.77 386.496 499.697 400.634 499.428 400.722C499.248 400.91 499.117 401.14 499.046 401.39C498.975 401.64 498.965 401.903 499.018 402.158C499.071 402.412 499.186 402.65 499.351 402.851C499.517 403.052 499.728 403.211 499.969 403.312C500.619 403.706 558.044 402.648 558.74 402.786C559.041 402.781 559.334 402.692 559.586 402.528C559.839 402.365 560.039 402.133 560.165 401.861L560.549 401.004C560.589 399.539 561.07 392.051 560.638 390.771C560.744 390.53 560.789 390.268 560.768 390.006C560.747 389.744 560.661 389.492 560.517 389.272C560.374 389.051 560.178 388.87 559.947 388.744C559.716 388.617 559.457 388.55 559.193 388.548V388.548Z" fill="#E6E6E6"/>
<path opacity="0.17" d="M560.553 401C560.216 401.807 559.785 402.821 558.743 402.783L500.579 403.434C500.304 403.431 500.034 403.357 499.795 403.22C499.557 403.083 499.358 402.888 499.217 402.652C499.077 402.417 498.999 402.149 498.993 401.875C498.986 401.601 499.05 401.33 499.179 401.087L560.553 401Z" fill="black"/>
<path d="M511.375 387.475C510.749 386.396 495.199 309.739 493.901 309.098L483.284 296.159L482.335 295.448C481.015 294.726 477.85 295.214 478.135 297.222C480.629 309.136 496.672 376.989 497.024 387.568L498.955 401.045C498.99 401.274 499.072 401.494 499.197 401.689C499.322 401.885 499.486 402.052 499.68 402.181C499.874 402.309 500.092 402.396 500.322 402.435C500.551 402.474 500.786 402.465 501.012 402.408C501.565 402.348 502.094 402.146 502.545 401.821C502.997 401.496 503.355 401.06 503.585 400.555C503.73 400.08 512.102 387.751 511.375 387.475Z" fill="#E6E6E6"/>
<path opacity="0.17" d="M483.277 296.161L503.583 400.56C502.904 402.272 499.727 403.472 498.987 401.225C498.974 401.222 478.155 297.288 478.134 297.226C477.912 294.725 482.06 294.645 483.277 296.161Z" fill="black"/>
<path d="M483.891 300.43L494.203 314.751L505.779 369.52L500.398 374.197L483.891 300.43Z" fill="#05BC6C"/>
<path d="M552.539 395.932L555.392 396.048C555.437 395.215 555.575 394.39 555.804 393.588C556.233 391.557 556.618 389.142 554.838 389.151C553.63 389.035 553.219 390.559 553.004 392.216C552.949 393.465 552.793 394.708 552.539 395.932Z" fill="#2F2E41"/>
<path d="M536.172 392.108L538.095 392.179L539.025 392.215C539.007 391.199 539.481 389.105 538.327 388.588C538.144 388.509 537.946 388.47 537.746 388.472C536.664 388.41 536.342 389.23 536.243 390.174C536.181 390.744 536.208 391.35 536.19 391.823C536.19 391.921 536.181 392.019 536.172 392.108Z" fill="#2F2E41"/>
<path d="M530.477 391.877L532.408 391.957L533.33 391.993C533.312 390.826 533.929 388.277 532.051 388.241C530.316 388.143 530.539 390.344 530.494 391.592C530.494 391.69 530.485 391.788 530.477 391.877Z" fill="#2F2E41"/>
<path d="M524.773 391.655L526.696 391.726L527.627 391.762C527.609 390.604 528.226 388.055 526.348 388.019C524.612 387.912 524.836 390.113 524.791 391.37C524.791 391.468 524.782 391.566 524.773 391.655Z" fill="#2F2E41"/>
<path d="M519.078 391.424L521.01 391.504L521.931 391.54C521.913 390.372 522.531 387.833 520.652 387.788C518.917 387.69 519.141 389.891 519.096 391.139C519.096 391.237 519.087 391.335 519.078 391.424Z" fill="#2F2E41"/>
<path d="M513.383 391.199L515.306 391.271L516.236 391.306C516.218 390.237 516.737 388 515.359 387.617H515.35C515.223 387.58 515.09 387.562 514.957 387.564C514.795 387.549 514.631 387.565 514.474 387.608H514.465C513.267 387.92 513.436 389.792 513.401 390.914C513.401 391.012 513.392 391.11 513.383 391.199Z" fill="#2F2E41"/>
<path d="M546.789 390.596L549.642 390.712C549.642 390.605 549.642 390.489 549.651 390.355C549.722 389.677 549.734 388.995 549.687 388.315C549.589 387.566 549.267 386.978 548.363 386.96C547.442 386.907 547.075 387.495 546.932 388.252C546.899 388.381 546.875 388.512 546.861 388.645V388.653C546.789 389.348 546.834 390.097 546.789 390.596Z" fill="#2F2E41"/>
<path d="M541.094 390.361L543.947 390.477C544.007 389.712 544.025 388.945 544.001 388.178C543.92 387.394 543.607 386.752 542.668 386.735C541.72 386.672 541.353 387.314 541.21 388.107C541.076 388.873 541.147 389.791 541.094 390.361Z" fill="#2F2E41"/>
<path d="M535.391 390.138L536.24 390.174L538.244 390.254C538.235 389.827 538.315 389.203 538.324 388.588C538.332 388.404 538.326 388.219 538.306 388.036C538.235 387.207 537.94 386.521 536.965 386.503C535.972 386.449 535.623 387.136 535.498 387.973C535.373 388.722 535.444 389.586 535.391 390.138Z" fill="#2F2E41"/>
<path d="M546.844 395.71L549.697 395.817C549.688 394.658 550.296 392.11 548.418 392.074C546.54 391.958 546.951 394.542 546.844 395.71Z" fill="#2F2E41"/>
<path d="M541.141 395.479L543.994 395.594C543.985 394.427 544.593 391.879 542.715 391.843C540.836 391.736 541.248 394.32 541.141 395.479Z" fill="#2F2E41"/>
<path d="M535.445 395.256L538.298 395.363C538.289 394.534 538.603 393.001 538.093 392.182C537.981 392 537.823 391.852 537.634 391.753C537.445 391.654 537.233 391.608 537.019 391.62C536.727 391.589 536.432 391.662 536.188 391.825C535.275 392.422 535.535 394.311 535.445 395.256Z" fill="#2F2E41"/>
<path d="M529.75 395.022L532.603 395.138C532.594 394.309 532.898 392.785 532.406 391.957C532.295 391.772 532.136 391.622 531.945 391.521C531.754 391.421 531.54 391.374 531.324 391.386C531.031 391.354 530.736 391.427 530.492 391.591C529.58 392.206 529.839 394.086 529.75 395.022Z" fill="#2F2E41"/>
<path d="M524.055 394.799L526.908 394.906C526.899 394.077 527.212 392.544 526.702 391.725C526.591 391.543 526.432 391.395 526.243 391.296C526.054 391.197 525.842 391.151 525.629 391.163C525.336 391.132 525.042 391.205 524.797 391.368C523.885 391.965 524.144 393.854 524.055 394.799Z" fill="#2F2E41"/>
<path d="M518.352 394.569L521.205 394.685C521.196 393.856 521.5 392.332 521.008 391.504C520.898 391.318 520.738 391.167 520.547 391.067C520.356 390.966 520.141 390.92 519.926 390.933C519.633 390.901 519.338 390.974 519.094 391.138C518.182 391.753 518.441 393.633 518.352 394.569Z" fill="#2F2E41"/>
<path d="M512.656 394.346L515.509 394.453C515.5 393.624 515.805 392.1 515.304 391.271C515.193 391.089 515.035 390.94 514.846 390.842C514.656 390.743 514.444 390.697 514.23 390.71C513.938 390.679 513.643 390.752 513.399 390.915C512.486 391.521 512.746 393.401 512.656 394.346Z" fill="#2F2E41"/>
<path d="M544.877 386.11L566.623 340.291L574.845 321.178L561.923 313.848C561.923 313.848 557.522 328.033 552.922 335.293C548.383 342.458 536.18 381.884 535.922 382.963C534.59 383.51 533.455 384.447 532.668 385.651C531.882 386.855 531.481 388.268 531.518 389.704C531.555 391.139 532.029 392.53 532.877 393.692C533.725 394.853 534.907 395.731 536.266 396.209C537.626 396.687 539.099 396.742 540.49 396.368C541.882 395.994 543.127 395.207 544.06 394.113C544.994 393.018 545.572 391.667 545.718 390.238C545.864 388.809 545.571 387.37 544.878 386.11H544.877Z" fill="#A0616A"/>
<path d="M544.75 343.686L561.196 353.571L564.925 347.955L567.409 346.678L577.69 329.091L586.78 319.865L598.789 281.621L583.164 283.957L583.143 283.963C580.359 285.434 577.869 288.064 574.456 290.381C563.7 297.684 554.425 321.348 550.007 334.542C549.934 334.758 549.637 334.909 549.291 335.057C547.653 335.754 546.306 336.994 545.479 338.566C544.651 340.138 544.394 341.947 544.75 343.686L544.75 343.686Z" fill="#05BC6C"/>
</g>
<defs>
<clipPath id="clip0_1122_239">
<rect width="764.86" height="518.518" fill="white" transform="translate(19.3281 60.2578)"/>
</clipPath>
</defs>
</svg>
