<svg width="803" height="800" viewBox="0 0 803 800" fill="none" xmlns="http://www.w3.org/2000/svg">
<rect width="803" height="800" fill="white"/>
<g clip-path="url(#clip0_403_2118)">
<path d="M484.193 509.957C485.497 509.957 486.749 510.473 487.671 511.392C488.594 512.312 489.112 513.558 489.112 514.858V562.268H583.472C584.777 562.268 586.028 562.785 586.951 563.704C587.873 564.623 588.391 565.869 588.391 567.169C588.391 568.469 587.873 569.715 586.951 570.635C586.028 571.554 584.777 572.07 583.472 572.07H489.112V736.026H479.273V514.858C479.273 513.558 479.792 512.312 480.714 511.392C481.637 510.473 482.888 509.957 484.193 509.957Z" fill="#E6E6E6"/>
<path d="M221.598 734.912L203.859 735.4C201.165 735.538 198.499 734.794 196.27 733.28C194.343 731.853 193.46 729.923 193.847 727.985L197.338 710.509C197.996 707.212 202.051 704.719 206.979 704.584L216.775 704.314C221.704 704.179 225.891 706.444 226.731 709.7L231.184 726.958C231.678 728.872 230.903 730.847 229.058 732.378C226.916 734.012 224.296 734.902 221.598 734.912Z" fill="#3F3D56"/>
<path d="M329.488 734.416L311.75 734.904C309.056 735.042 306.39 734.298 304.16 732.784C302.234 731.357 301.35 729.427 301.738 727.489L305.228 710.013C305.886 706.716 309.942 704.223 314.87 704.088L324.666 703.818C329.595 703.683 333.782 705.948 334.621 709.204L339.075 726.462C339.569 728.376 338.793 730.351 336.949 731.882C334.806 733.516 332.186 734.406 329.488 734.416Z" fill="#3F3D56"/>
<path d="M160.005 586.049C159.195 585.701 158.528 585.088 158.115 584.311C157.702 583.535 157.567 582.64 157.734 581.777C157.9 580.914 158.357 580.133 159.03 579.564C159.702 578.994 160.549 578.671 161.432 578.647L363.092 573.099C363.601 573.085 364.107 573.171 364.582 573.352C365.057 573.532 365.492 573.805 365.861 574.153C366.231 574.501 366.528 574.918 366.735 575.381C366.943 575.843 367.057 576.342 367.071 576.849V576.849C367.098 577.872 366.717 578.863 366.011 579.606C365.306 580.35 364.333 580.783 363.306 580.813L363.306 580.813L161.645 586.36C161.082 586.377 160.522 586.271 160.005 586.049Z" fill="#3F3D56"/>
<path d="M234.425 519.539L176.781 521.125L182.155 715.019L239.8 713.433L234.425 519.539Z" fill="#E6E6E6"/>
<path d="M235.886 516.055L224.805 546.127L224.815 683.137L238.317 686.995L235.886 516.055Z" fill="#CCCCCC"/>
<path d="M205.302 468.867C194.518 469.172 186.29 487.765 186.488 495.021L186.852 508.157L225.901 507.083L225.537 493.947C225.333 486.691 216.087 468.578 205.302 468.867Z" fill="#3F3D56"/>
<path d="M177.53 601.421C175.515 601.474 173.561 600.729 172.097 599.349C170.633 597.969 169.778 596.066 169.72 594.059L169.128 572.682C169.072 570.674 169.82 568.726 171.205 567.267C172.591 565.808 174.502 564.957 176.518 564.901C178.533 564.846 180.488 565.59 181.953 566.971C183.417 568.352 184.271 570.255 184.327 572.263L184.92 593.641C184.973 595.648 184.225 597.595 182.84 599.053C181.454 600.512 179.545 601.363 177.53 601.421Z" fill="#3F3D56"/>
<path d="M192.156 521.583L191.883 507.455L195.602 507.363L195.875 521.446L199.246 726.7L195.526 726.802" fill="#3F3D56"/>
<path d="M241.033 554.62L174.186 556.459C167.801 548.702 167.221 515.655 180.546 509.365L185.771 500.526L226.058 498.566L230.766 507.874C237.394 513.493 240.812 546.334 241.033 554.62Z" fill="#E6E6E6"/>
<path d="M215.873 538.77L198.969 539.235C195.707 539.325 192.933 535.109 192.787 529.838C192.641 524.567 195.177 520.205 198.439 520.115L215.343 519.65C218.605 519.56 221.379 523.776 221.525 529.047C221.671 534.318 219.135 538.681 215.873 538.77Z" fill="#05BC6C"/>
<path d="M183.144 634.109L148.298 658.632L142.211 713.922L182.86 700.392L183.144 634.109Z" fill="#E6E6E6"/>
<path d="M345.699 517.164L288.055 518.75L293.429 712.644L351.073 711.058L345.699 517.164Z" fill="#E6E6E6"/>
<path d="M289.438 516.703L301.298 546.479L304.857 683.443L291.46 687.648L289.438 516.703Z" fill="#CCCCCC"/>
<path d="M374.524 463.332C378.697 463.332 382.08 458.813 382.08 453.238C382.08 447.664 378.697 443.145 374.524 443.145C370.351 443.145 366.969 447.664 366.969 453.238C366.969 458.813 370.351 463.332 374.524 463.332Z" fill="#E6E6E6"/>
<path d="M315.451 466.523C304.667 466.828 296.438 485.422 296.636 492.677L297 505.813L336.05 504.739L335.685 491.603C335.481 484.348 326.236 466.235 315.451 466.523Z" fill="#3F3D56"/>
<path d="M326.617 526.006L326.344 511.878L330.063 511.785L330.336 525.868L333.707 731.122L329.987 731.225" fill="#3F3D56"/>
<path d="M351.187 552.276L284.341 554.116C283.175 547.097 284.683 514.345 290.701 507.022L295.926 498.182L336.213 496.223L340.921 505.53C352.815 506.496 356.976 538.68 351.187 552.276Z" fill="#E6E6E6"/>
<path d="M326.104 539.377L309.199 539.842C305.937 539.931 303.145 535.053 302.977 528.969C302.808 522.885 305.325 517.861 308.587 517.771L325.492 517.306C328.754 517.216 331.545 522.094 331.714 528.178C331.883 534.263 329.366 539.287 326.104 539.377Z" fill="#05BC6C"/>
<path d="M348.549 619.938L382.235 646.017L385.782 701.528L345.797 686.163L348.549 619.938Z" fill="#E6E6E6"/>
<path d="M339.141 362.829C302.996 362.829 261.456 322.868 224.703 341.854C113.425 399.34 128.743 303.146 96.7734 267.371L97.823 265.273C122.025 357.248 143.924 503.806 225.186 339.415C245.542 298.235 312.351 361.887 351.676 360.009L351.744 362.53C347.591 362.73 343.39 362.829 339.141 362.829Z" fill="#F2F2F2"/>
<path d="M425.897 368.482C397.084 390.224 339.752 383.356 321.96 420.598C268.092 533.359 222.006 447.462 174.841 438.173L174.406 435.87C221.622 439.772 272.268 433.718 320.867 418.363C364.786 404.488 403.97 383.847 434.181 358.695L435.763 360.664C432.574 363.321 429.285 365.927 425.897 368.482Z" fill="#F2F2F2"/>
<path d="M112.462 363.531C116.634 363.531 120.017 359.012 120.017 353.437C120.017 347.863 116.634 343.344 112.462 343.344C108.289 343.344 104.906 347.863 104.906 353.437C104.906 359.012 108.289 363.531 112.462 363.531Z" fill="#E6E6E6"/>
<path d="M346.798 281.554C350.97 281.554 354.353 277.035 354.353 271.461C354.353 265.886 350.97 261.367 346.798 261.367C342.625 261.367 339.242 265.886 339.242 271.461C339.242 277.035 342.625 281.554 346.798 281.554Z" fill="#E6E6E6"/>
<path d="M181.637 404.27C178.183 406.563 174.647 401.106 178.168 398.915C181.622 396.622 185.157 402.079 181.637 404.27Z" fill="#E6E6E6"/>
<path d="M309.535 225.165C306.081 227.458 302.546 222 306.066 219.809C309.52 217.517 313.056 222.974 309.535 225.165Z" fill="#E6E6E6"/>
<path d="M384.916 331.354L382.719 330.873L383.2 328.683L381.735 328.363L381.253 330.554L379.055 330.074L378.734 331.534L380.932 332.014L380.451 334.203L381.916 334.523L382.398 332.333L384.595 332.813L384.916 331.354Z" fill="#E6E6E6"/>
<path d="M183.486 257.964C188.773 257.964 193.059 253.694 193.059 248.427C193.059 243.16 188.773 238.891 183.486 238.891C178.2 238.891 173.914 243.16 173.914 248.427C173.914 253.694 178.2 257.964 183.486 257.964Z" fill="#FF6584"/>
<path d="M253.498 236.359C242.713 236.664 234.485 255.258 234.683 262.513L235.047 275.649L274.096 274.575L273.732 261.439C273.528 254.184 264.282 236.071 253.498 236.359Z" fill="#3F3D56"/>
<path d="M276.754 733.768L259.016 734.256C256.321 734.394 253.656 733.649 251.426 732.136C249.5 730.708 248.616 728.779 249.003 726.841L252.494 709.364C253.152 706.067 257.207 703.575 262.136 703.439L271.932 703.17C276.86 703.034 281.047 705.3 281.887 708.556L286.34 725.813C286.834 727.727 286.059 729.703 284.215 731.234C282.072 732.867 279.452 733.757 276.754 733.768Z" fill="#3F3D56"/>
<path d="M284.66 319.981L227.016 321.566L237.879 713.501L295.523 711.915L284.66 319.981Z" fill="#E6E6E6"/>
<path d="M261.593 509.7L261.32 495.572L265.039 495.48L265.312 509.563L268.683 714.817L264.963 714.919" fill="#3F3D56"/>
<path d="M296.007 355.851L217.902 358C216.54 349.799 218.302 311.531 225.333 302.974L227.26 292.761L281.19 291.277L284.011 301.232C291.756 307.797 295.749 346.169 296.007 355.851Z" fill="#E6E6E6"/>
<path d="M282.895 292.484L227.242 294.015C225.188 294.071 223.492 292.997 223.454 291.615C223.449 291.415 223.478 291.217 223.54 291.028L232.185 264.496C232.555 263.36 234.028 262.526 235.748 262.478L272.655 261.463C274.375 261.416 275.893 262.168 276.325 263.282L286.426 289.298C286.943 290.629 285.75 292.013 283.761 292.391C283.475 292.445 283.186 292.476 282.895 292.484Z" fill="#E6E6E6"/>
<path d="M232.738 507.897C232.235 507.682 231.76 507.409 231.324 507.081C230.698 506.644 230.18 506.069 229.812 505.402C229.443 504.734 229.232 503.992 229.196 503.231L227.174 430.272C227.09 427.252 230.058 424.711 233.79 424.608L283.612 423.238C287.344 423.134 290.447 425.509 290.532 428.529L292.554 501.488C292.56 502.25 292.391 503.003 292.059 503.689C291.728 504.376 291.243 504.978 290.643 505.449C289.312 506.529 287.653 507.129 285.937 507.151L236.116 508.521C234.958 508.56 233.805 508.347 232.738 507.897Z" fill="#3F3D56"/>
<path d="M264.619 287.788L247.715 288.253C244.453 288.343 241.695 284.671 241.567 280.07C241.44 275.468 243.99 271.65 247.252 271.56L264.157 271.095C267.419 271.006 270.177 274.677 270.305 279.279C270.432 283.881 267.881 287.699 264.619 287.788Z" fill="#05BC6C"/>
<path d="M664.201 720.51H644.524V578.048C660.983 576.873 673.353 571.851 673.353 565.834C673.353 558.945 657.136 553.359 637.13 553.359C617.124 553.359 600.906 558.945 600.906 565.834C600.906 571.909 613.517 576.967 630.214 578.079V720.51H610.537C608.639 720.51 606.819 721.261 605.477 722.598C604.135 723.935 603.381 725.748 603.381 727.638C603.381 729.529 604.135 731.342 605.477 732.679C606.819 734.016 608.639 734.767 610.537 734.767H664.201C666.099 734.767 667.919 734.016 669.261 732.679C670.603 731.342 671.357 729.529 671.357 727.638C671.357 725.748 670.603 723.935 669.261 722.598C667.919 721.261 666.099 720.51 664.201 720.51Z" fill="#E6E6E6"/>
<path d="M624.707 648.185L618.244 655.202L588 633.705L597.539 623.348L624.707 648.185Z" fill="#A0616A"/>
<path d="M608.177 666.704C608.24 668.273 608.616 669.815 609.282 671.238C609.947 672.662 610.89 673.94 612.055 674.998L612.339 675.262L620.816 666.058L633.178 652.635L624.052 644.289L622.404 646.082L622.232 646.267L614.02 650.137L612.28 650.961L611.982 651.099L611.327 658.107V658.114C610.256 659.266 609.426 660.619 608.885 662.094C608.345 663.569 608.104 665.136 608.177 666.704Z" fill="#2F2E41"/>
<path d="M658.194 718.188L649.047 720.957L633.977 687.125L647.477 683.039L658.194 718.188Z" fill="#A0616A"/>
<path d="M633.611 734.867L633.723 735.242L663.217 726.316L659.617 714.508L657.288 715.214L657.043 715.286L646.078 714.284L645.754 714.258L641.604 719.961C638.56 720.881 636.008 722.969 634.509 725.764C633.01 728.56 632.687 731.834 633.611 734.867H633.611Z" fill="#2F2E41"/>
<path d="M582.771 541.047C582.771 541.047 524.371 597.222 561.29 614.609H572.701C575.182 606.577 578.994 599.015 583.981 592.237C585.059 590.831 589.098 591.117 590.22 589.747C597.068 581.383 604.493 574.199 609.621 574.485L608.394 613.298L606.409 627.143C605.366 634.299 634.786 696.79 634.786 696.79L653.277 689.549C653.277 689.549 634.012 638.08 633.786 630.659L649.225 549.072L582.771 541.047Z" fill="#2F2E41"/>
<path d="M577.895 543.819C578.193 544.242 578.582 544.594 579.033 544.848C579.778 545.267 580.584 545.565 581.422 545.731C594.571 548.705 637.525 554.869 648.675 551.928C650.045 551.572 650.938 551.071 651.229 550.412C652.163 548.329 652.043 539.528 651.494 528.9C651.395 526.909 649.191 524.753 649.059 522.67C648.966 521.108 650.945 519.637 650.839 518.049C650.111 507.302 649.172 496.352 648.543 489.43C648.146 484.98 647.874 482.197 647.874 482.197L654.657 439.589L654.34 439.068L653.982 438.89L632.112 428.104L630.921 425.072C630.575 424.199 629.975 423.449 629.198 422.918C628.421 422.388 627.502 422.103 626.56 422.098L612.154 422.039C611.406 422.035 610.669 422.209 610.002 422.546C609.336 422.883 608.76 423.374 608.322 423.977L604.418 429.364L578.61 445.845L578.709 446.149L590.819 482.863L590.879 485.725V485.731L591.329 508.74L590.078 511.858L591.487 516.974C591.487 516.974 590.839 522.953 587.365 527.397C584.215 531.432 580.205 535.638 578.392 539.053V539.06C577.386 540.945 577.048 542.58 577.895 543.819Z" fill="#05BC6C"/>
<path d="M558.484 611.275L561.606 615.204C561.606 615.204 590.314 635.214 591.3 637.084L595.837 641.361L606.815 629.67L601.106 622.541C596.538 616.836 590.635 612.334 583.915 609.429L575.165 601.695L558.484 611.275Z" fill="#2F2E41"/>
<path d="M661.897 557.089L656.669 506.674L655.289 485.925L669.922 483.289C669.922 483.289 669.342 498.125 671.259 506.496C673.151 514.756 671.51 555.982 671.393 557.084C672.468 558.041 673.225 559.301 673.566 560.697C673.906 562.093 673.813 563.558 673.299 564.9C672.785 566.242 671.874 567.397 670.687 568.212C669.5 569.027 668.093 569.463 666.651 569.464C665.209 569.465 663.801 569.029 662.614 568.216C661.426 567.402 660.514 566.248 659.999 564.906C659.483 563.565 659.389 562.099 659.728 560.704C660.067 559.308 660.823 558.047 661.897 557.089V557.089Z" fill="#A0616A"/>
<path d="M644.469 480.737L648.545 489.426L649.968 492.452L653.799 512.441L655.712 514.465L657.359 520.999L658.134 520.841L672.096 517.96L676.166 517.122C677.083 515.6 677.445 513.808 677.189 512.051C676.934 510.293 676.077 508.678 674.763 507.477C674.485 507.227 674.254 506.983 674.26 506.752C674.492 492.848 673.638 467.459 665.929 457.01C663.481 453.694 662.012 450.391 659.874 448.083C659.867 448.077 659.867 448.07 659.861 448.07L654.66 439.586L654.342 439.065L653.985 438.887L644.469 480.737Z" fill="#05BC6C"/>
<path d="M620.488 418.466C631.074 418.466 639.656 409.916 639.656 399.37C639.656 388.823 631.074 380.273 620.488 380.273C609.902 380.273 601.32 388.823 601.32 399.37C601.32 409.916 609.902 418.466 620.488 418.466Z" fill="#A0616A"/>
<path d="M643.247 395.262C643.808 392.053 644.246 387.893 642.638 384.194C641.279 381.082 637.879 378.164 634.101 378.558C634.28 377.855 634.26 377.117 634.043 376.425C633.826 375.733 633.421 375.114 632.873 374.638C631.642 373.675 630.209 373.004 628.68 372.674C625.128 371.634 621.449 370.555 617.65 370.535C613.387 370.512 609.609 371.967 607.293 374.533L607.236 374.616L606.542 376.268C606.449 376.489 606.309 376.688 606.132 376.851C605.954 377.013 605.744 377.136 605.514 377.21C605.285 377.285 605.041 377.309 604.801 377.28C604.56 377.251 604.33 377.169 604.125 377.04C603.9 376.903 603.643 376.826 603.38 376.817C603.116 376.809 602.855 376.869 602.622 376.992C602.389 377.115 602.192 377.296 602.05 377.518C601.909 377.74 601.829 377.995 601.817 378.257L601.78 378.962L600.785 378.567C600.536 378.467 600.264 378.434 599.998 378.474C599.731 378.513 599.481 378.622 599.271 378.79C599.062 378.958 598.901 379.179 598.806 379.43C598.71 379.68 598.684 379.952 598.729 380.216L598.862 381.055C598.648 381.016 598.428 381.02 598.216 381.068C598.004 381.116 597.804 381.205 597.627 381.332C597.375 381.517 597.187 381.777 597.093 382.075C596.998 382.373 597.001 382.693 597.1 382.989C597.872 385.183 599.19 387.145 600.932 388.692C601.713 389.395 602.589 389.988 603.533 390.453C603.729 390.552 603.934 390.646 604.145 390.734C611.784 393.997 619.957 395.841 628.262 396.176C627.476 397.669 626.969 399.291 626.764 400.963C626.651 401.912 626.8 402.874 627.197 403.745C627.593 404.615 628.221 405.361 629.013 405.901C629.356 406.097 629.717 406.261 630.09 406.392C630.446 406.523 630.791 406.683 631.122 406.869C631.607 407.161 632.006 407.576 632.279 408.071C632.551 408.566 632.688 409.124 632.674 409.688C632.661 410.253 632.498 410.804 632.202 411.286C631.906 411.767 631.488 412.163 630.99 412.432C630.99 412.432 632.416 414.167 632.644 414.137C633.553 413.932 634.374 413.448 634.992 412.753C639.143 408.738 641.921 402.856 643.247 395.262Z" fill="#2F2E41"/>
<path d="M727.16 690.446L727.993 671.784C736.678 667.16 746.364 664.717 756.212 664.668C742.659 675.707 744.352 696.986 735.164 711.831C732.263 716.439 728.358 720.338 723.738 723.238C719.119 726.138 713.904 727.965 708.479 728.584L697.138 735.503C695.581 726.859 695.925 717.982 698.143 709.484C700.362 700.985 704.404 693.067 709.99 686.275C713.162 682.495 716.799 679.128 720.815 676.254C723.531 683.39 727.16 690.446 727.16 690.446Z" fill="#F2F2F2"/>
<path d="M784.188 736.392C784.189 736.574 784.153 736.754 784.084 736.922C784.014 737.09 783.912 737.243 783.783 737.372C783.654 737.5 783.5 737.602 783.331 737.672C783.163 737.741 782.982 737.776 782.799 737.776H20.7173C20.3489 737.776 19.9955 737.63 19.735 737.37C19.4745 737.111 19.3281 736.759 19.3281 736.392C19.3281 736.025 19.4745 735.673 19.735 735.413C19.9955 735.154 20.3489 735.008 20.7173 735.008H782.799C782.982 735.007 783.163 735.043 783.331 735.112C783.5 735.181 783.654 735.283 783.783 735.412C783.912 735.541 784.014 735.693 784.084 735.862C784.153 736.03 784.189 736.21 784.188 736.392Z" fill="#CCCCCC"/>
<path d="M347.131 596.685C345.116 596.738 343.163 595.993 341.699 594.613C340.234 593.232 339.38 591.33 339.322 589.323L338.729 567.945C338.676 565.939 339.425 563.994 340.81 562.537C342.196 561.08 344.105 560.23 346.119 560.175C348.133 560.119 350.087 560.863 351.551 562.241C353.015 563.62 353.87 565.521 353.928 567.527L354.521 588.905C354.574 590.912 353.826 592.859 352.441 594.317C351.055 595.776 349.146 596.627 347.131 596.685Z" fill="#3F3D56"/>
<path d="M682.401 674.816C670.852 674.816 658.195 674.381 644.428 673.511C573.22 669.006 480.985 653.344 384.712 629.411C288.44 605.477 199.632 576.13 134.649 546.778C102.993 532.479 78.6978 518.944 62.4381 506.548C45.2234 493.426 37.6934 481.987 40.0565 472.552C44.6609 454.17 85.4308 450.148 118.822 450.012L118.833 452.685C72.9785 452.872 45.9265 460.158 42.6603 473.199C38.4996 489.809 72.4321 515.739 135.757 544.343C200.597 573.631 289.242 602.921 385.362 626.817C481.482 650.713 573.547 666.348 644.598 670.843C713.985 675.234 756.169 668.226 760.33 651.616C763.784 637.825 741.012 617.51 696.21 594.411L697.443 592.037C729.997 608.821 767.784 632.894 762.933 652.263C760.57 661.699 748.529 668.271 727.143 671.798C714.953 673.808 699.98 674.816 682.401 674.816Z" fill="#CCCCCC"/>
<path d="M69.4686 657.3C60.3044 657.3 54.3466 655.032 51.7097 650.522C46.5096 641.628 55.2187 626.023 77.5947 604.141L79.4744 606.048C58.6894 626.376 49.6523 641.692 54.0278 649.176C56.7966 653.91 65.0367 655.607 77.8624 654.081C90.5946 652.567 107.468 648.053 128.014 640.666C170.311 625.458 223.378 599.805 277.438 568.432C331.497 537.06 380.072 503.726 414.217 474.571C420.775 468.971 426.728 463.582 431.908 458.558C438.708 452.123 444.982 445.157 450.669 437.727C458.328 427.367 460.913 419.388 458.144 414.653C453.52 406.745 434.096 407.489 403.445 416.75L402.667 414.192C435.551 404.257 454.997 403.959 460.463 413.308C463.859 419.116 461.291 427.866 452.83 439.312C447.056 446.86 440.685 453.936 433.78 460.473C428.559 465.537 422.565 470.963 415.963 476.601C381.699 505.858 332.983 539.291 278.788 570.742C224.593 602.193 171.37 627.92 128.925 643.181C108.188 650.637 91.1148 655.197 78.1804 656.735C75.2902 657.094 72.3812 657.283 69.4686 657.3Z" fill="#CCCCCC"/>
<path d="M559.193 547.548C552.562 547.417 516.942 546.398 511.1 546.649C510.77 545.496 499.697 559.634 499.428 559.722C499.248 559.91 499.117 560.14 499.046 560.39C498.975 560.64 498.965 560.903 499.018 561.158C499.071 561.412 499.186 561.65 499.351 561.851C499.517 562.052 499.728 562.211 499.969 562.312C500.619 562.706 558.044 561.648 558.74 561.786C559.041 561.781 559.334 561.692 559.586 561.528C559.839 561.365 560.039 561.133 560.165 560.861L560.549 560.004C560.589 558.539 561.07 551.051 560.638 549.771C560.744 549.53 560.789 549.268 560.768 549.006C560.747 548.744 560.661 548.492 560.517 548.272C560.374 548.051 560.178 547.87 559.947 547.744C559.716 547.617 559.457 547.55 559.193 547.548Z" fill="#E6E6E6"/>
<path opacity="0.17" d="M560.553 560C560.216 560.807 559.785 561.821 558.743 561.783L500.579 562.434C500.304 562.431 500.034 562.357 499.795 562.22C499.557 562.083 499.358 561.888 499.217 561.652C499.077 561.417 498.999 561.149 498.993 560.875C498.986 560.601 499.05 560.33 499.179 560.087L560.553 560Z" fill="black"/>
<path d="M511.375 546.475C510.749 545.396 495.199 468.739 493.901 468.098L483.284 455.159L482.335 454.448C481.015 453.726 477.85 454.214 478.135 456.222C480.629 468.136 496.672 535.989 497.024 546.568L498.955 560.045C498.99 560.274 499.072 560.494 499.197 560.689C499.322 560.885 499.486 561.052 499.68 561.181C499.874 561.309 500.092 561.396 500.322 561.435C500.551 561.474 500.786 561.465 501.012 561.408C501.565 561.348 502.094 561.146 502.545 560.821C502.997 560.496 503.355 560.06 503.585 559.555C503.73 559.08 512.102 546.751 511.375 546.475Z" fill="#E6E6E6"/>
<path opacity="0.17" d="M483.277 455.161L503.583 559.56C502.904 561.272 499.727 562.472 498.987 560.225C498.974 560.222 478.155 456.288 478.134 456.226C477.912 453.725 482.06 453.645 483.277 455.161Z" fill="black"/>
<path d="M483.891 459.43L494.203 473.751L505.779 528.52L500.398 533.197L483.891 459.43Z" fill="#05BC6C"/>
<path d="M552.539 554.932L555.392 555.048C555.437 554.215 555.575 553.39 555.804 552.588C556.233 550.557 556.618 548.142 554.838 548.151C553.63 548.035 553.219 549.559 553.004 551.216C552.949 552.465 552.793 553.708 552.539 554.932Z" fill="#2F2E41"/>
<path d="M536.172 551.108L538.095 551.179L539.025 551.215C539.007 550.199 539.481 548.105 538.327 547.588C538.144 547.509 537.946 547.47 537.746 547.472C536.664 547.41 536.342 548.23 536.243 549.174C536.181 549.744 536.208 550.35 536.19 550.823C536.19 550.921 536.181 551.019 536.172 551.108Z" fill="#2F2E41"/>
<path d="M530.477 550.877L532.408 550.957L533.33 550.993C533.312 549.826 533.929 547.277 532.051 547.241C530.316 547.143 530.539 549.344 530.494 550.592C530.494 550.69 530.485 550.788 530.477 550.877Z" fill="#2F2E41"/>
<path d="M524.773 550.655L526.696 550.726L527.627 550.762C527.609 549.604 528.226 547.055 526.348 547.019C524.612 546.912 524.836 549.113 524.791 550.37C524.791 550.468 524.782 550.566 524.773 550.655Z" fill="#2F2E41"/>
<path d="M519.078 550.424L521.01 550.504L521.931 550.54C521.913 549.372 522.531 546.833 520.652 546.788C518.917 546.69 519.141 548.891 519.096 550.139C519.096 550.237 519.087 550.335 519.078 550.424Z" fill="#2F2E41"/>
<path d="M513.383 550.199L515.306 550.271L516.236 550.306C516.218 549.237 516.737 547 515.359 546.617H515.35C515.223 546.58 515.09 546.562 514.957 546.564C514.795 546.549 514.631 546.565 514.474 546.608H514.465C513.267 546.92 513.436 548.792 513.401 549.914C513.401 550.012 513.392 550.11 513.383 550.199Z" fill="#2F2E41"/>
<path d="M546.789 549.596L549.642 549.712C549.642 549.605 549.642 549.489 549.651 549.355C549.722 548.677 549.734 547.995 549.687 547.315C549.589 546.566 549.267 545.978 548.363 545.96C547.442 545.907 547.075 546.495 546.932 547.252C546.899 547.381 546.875 547.512 546.861 547.645V547.653C546.789 548.348 546.834 549.097 546.789 549.596Z" fill="#2F2E41"/>
<path d="M541.094 549.361L543.947 549.477C544.007 548.712 544.025 547.945 544.001 547.178C543.92 546.394 543.607 545.752 542.668 545.735C541.72 545.672 541.353 546.314 541.21 547.107C541.076 547.873 541.147 548.791 541.094 549.361Z" fill="#2F2E41"/>
<path d="M535.391 549.138L536.24 549.174L538.244 549.254C538.235 548.827 538.315 548.203 538.324 547.588C538.332 547.404 538.326 547.219 538.306 547.036C538.235 546.207 537.94 545.521 536.965 545.503C535.972 545.449 535.623 546.136 535.498 546.973C535.373 547.722 535.444 548.586 535.391 549.138Z" fill="#2F2E41"/>
<path d="M546.844 554.71L549.697 554.817C549.688 553.658 550.296 551.11 548.418 551.074C546.54 550.958 546.951 553.542 546.844 554.71Z" fill="#2F2E41"/>
<path d="M541.141 554.479L543.994 554.594C543.985 553.427 544.593 550.879 542.715 550.843C540.836 550.736 541.248 553.32 541.141 554.479Z" fill="#2F2E41"/>
<path d="M535.445 554.256L538.298 554.363C538.289 553.534 538.603 552.001 538.093 551.182C537.981 551 537.823 550.852 537.634 550.753C537.445 550.654 537.233 550.608 537.019 550.62C536.727 550.589 536.432 550.662 536.188 550.825C535.275 551.422 535.535 553.311 535.445 554.256Z" fill="#2F2E41"/>
<path d="M529.75 554.022L532.603 554.138C532.594 553.309 532.898 551.785 532.406 550.957C532.295 550.772 532.136 550.622 531.945 550.521C531.754 550.421 531.54 550.374 531.324 550.386C531.031 550.354 530.736 550.427 530.492 550.591C529.58 551.206 529.839 553.086 529.75 554.022Z" fill="#2F2E41"/>
<path d="M524.055 553.799L526.908 553.906C526.899 553.077 527.212 551.544 526.702 550.725C526.591 550.543 526.432 550.395 526.243 550.296C526.054 550.197 525.842 550.151 525.629 550.163C525.336 550.132 525.042 550.205 524.797 550.368C523.885 550.965 524.144 552.854 524.055 553.799Z" fill="#2F2E41"/>
<path d="M518.352 553.569L521.205 553.685C521.196 552.856 521.5 551.332 521.008 550.504C520.898 550.318 520.738 550.167 520.547 550.067C520.356 549.966 520.141 549.92 519.926 549.933C519.633 549.901 519.338 549.974 519.094 550.138C518.182 550.753 518.441 552.633 518.352 553.569Z" fill="#2F2E41"/>
<path d="M512.656 553.346L515.509 553.453C515.5 552.624 515.805 551.1 515.304 550.271C515.193 550.089 515.035 549.94 514.846 549.842C514.656 549.743 514.444 549.697 514.23 549.71C513.938 549.679 513.643 549.752 513.399 549.915C512.486 550.521 512.746 552.401 512.656 553.346Z" fill="#2F2E41"/>
<path d="M544.877 545.11L566.623 499.291L574.845 480.178L561.923 472.848C561.923 472.848 557.522 487.033 552.922 494.293C548.383 501.458 536.18 540.884 535.922 541.963C534.59 542.51 533.455 543.447 532.668 544.651C531.882 545.855 531.481 547.268 531.518 548.704C531.555 550.139 532.029 551.53 532.877 552.692C533.725 553.853 534.907 554.731 536.266 555.209C537.626 555.687 539.099 555.742 540.49 555.368C541.882 554.994 543.127 554.207 544.06 553.113C544.994 552.018 545.572 550.667 545.718 549.238C545.864 547.809 545.571 546.37 544.878 545.11H544.877Z" fill="#A0616A"/>
<path d="M544.75 502.686L561.196 512.571L564.925 506.955L567.409 505.678L577.69 488.091L586.78 478.865L598.789 440.621L583.164 442.957L583.143 442.963C580.359 444.434 577.869 447.064 574.456 449.381C563.7 456.684 554.425 480.348 550.007 493.542C549.934 493.758 549.637 493.909 549.291 494.056C547.653 494.754 546.306 495.994 545.479 497.566C544.651 499.138 544.394 500.947 544.75 502.686L544.75 502.686Z" fill="#05BC6C"/>
</g>
<defs>
<clipPath id="clip0_403_2118">
<rect width="764.86" height="518.518" fill="white" transform="translate(19.3281 219.258)"/>
</clipPath>
</defs>
</svg>
