<svg width="762" height="550" viewBox="0 0 762 550" fill="none" xmlns="http://www.w3.org/2000/svg">
<g clip-path="url(#clip0_403_2319)">
<path d="M375.713 546.746H346.461V321.613H370.25C371.403 321.613 372.508 322.07 373.325 322.882C374.142 323.695 374.603 324.798 374.609 325.95L375.713 546.746Z" fill="#CCCCCC"/>
<path d="M349.197 547.939H35.0703V387.605H349.197V547.939Z" fill="white"/>
<path d="M225.382 547.344H35.6641V388.203H348.599V424.127C348.562 456.795 335.568 488.114 312.469 511.214C289.369 534.313 258.05 547.307 225.382 547.344Z" fill="#F2F2F2"/>
<path d="M370.954 328.008C370.796 328.307 370.674 328.623 370.589 328.95L359.757 370.702L348.008 392.953H36.2656V387.411L54.0141 370.702L74.7186 331.099C75.6326 329.35 76.8329 327.767 78.2696 326.416C81.5479 323.331 85.8796 321.613 90.381 321.613H367.1C367.851 321.613 368.59 321.807 369.244 322.177C369.898 322.546 370.445 323.079 370.833 323.722C371.221 324.366 371.436 325.098 371.457 325.849C371.478 326.6 371.305 327.344 370.954 328.008Z" fill="#F2F2F2"/>
<path d="M349.197 547.939H35.0703V387.605H349.197V547.939ZM37.4549 545.554H346.813V389.99H37.4549V545.554Z" fill="#E6E6E6"/>
<path d="M365.537 349.367L359.75 370.702H54.0078L63.8871 352.944L365.537 349.367Z" fill="#CCCCCC"/>
<path d="M96.7312 471.625H46.6562V474.396H96.7312V471.625Z" fill="white"/>
<path d="M96.7312 481.32H46.6562V484.091H96.7312V481.32Z" fill="white"/>
<path d="M96.7312 491.02H46.6562V493.791H96.7312V491.02Z" fill="white"/>
<path d="M66.0508 440.754C75.9984 440.754 84.0626 432.69 84.0626 422.742C84.0626 412.795 75.9984 404.73 66.0508 404.73C56.1032 404.73 48.0391 412.795 48.0391 422.742C48.0391 432.69 56.1032 440.754 66.0508 440.754Z" fill="white"/>
<path d="M263.461 358.605H248.164V240.871H260.605C261.207 240.871 261.785 241.11 262.213 241.535C262.64 241.96 262.881 242.537 262.884 243.139L263.461 358.605Z" fill="#CCCCCC"/>
<path d="M249.594 359.226H85.3203V275.379H249.594V359.226Z" fill="white"/>
<path d="M184.846 358.915H85.6328V275.691H249.283V294.478C249.264 311.562 242.469 327.94 230.389 340.02C218.309 352.1 201.93 358.895 184.846 358.915Z" fill="#F2F2F2"/>
<path d="M260.972 244.215C260.889 244.372 260.825 244.537 260.781 244.708L255.116 266.542L248.972 278.179H85.9453V275.28L95.2269 266.542L106.054 245.831C106.532 244.917 107.16 244.089 107.911 243.382C109.626 241.769 111.891 240.871 114.245 240.871H258.956C259.349 240.871 259.735 240.973 260.077 241.166C260.419 241.359 260.706 241.637 260.909 241.974C261.111 242.31 261.224 242.694 261.235 243.086C261.246 243.479 261.155 243.868 260.972 244.215Z" fill="#F2F2F2"/>
<path d="M249.594 359.226H85.3203V275.379H249.594V359.226ZM86.5674 357.979H248.347V276.626H86.5674V357.979Z" fill="#E6E6E6"/>
<path d="M258.141 255.383L255.115 266.539H95.2266L100.393 257.252L258.141 255.383Z" fill="#CCCCCC"/>
<path d="M117.57 319.316H91.3828V320.766H117.57V319.316Z" fill="white"/>
<path d="M117.57 324.391H91.3828V325.84H117.57V324.391Z" fill="white"/>
<path d="M117.57 329.461H91.3828V330.91H117.57V329.461Z" fill="white"/>
<path d="M101.521 303.175C106.723 303.175 110.94 298.957 110.94 293.755C110.94 288.553 106.723 284.336 101.521 284.336C96.3187 284.336 92.1016 288.553 92.1016 293.755C92.1016 298.957 96.3187 303.175 101.521 303.175Z" fill="white"/>
<path d="M714.296 547.859L714.201 547.351C712.653 538.816 712.982 530.047 715.166 521.653C717.349 513.258 721.335 505.44 726.845 498.741C729.966 495.008 733.544 491.683 737.495 488.844L737.872 488.572L738.037 489.006C740.002 494.188 742.483 499.378 743.613 501.675L744.376 484.527L744.812 484.297C746.806 483.228 749.075 482.781 751.326 483.013C753.577 483.245 755.707 484.146 757.441 485.6C759.235 487.042 760.556 488.987 761.234 491.186C761.912 493.386 761.917 495.738 761.246 497.939C760.653 499.954 760.093 502.044 759.552 504.065C757.691 511.01 755.767 518.192 752.038 524.239C749.171 528.788 745.323 532.64 740.777 535.512C736.23 538.385 731.099 540.205 725.759 540.841L714.296 547.859Z" fill="#F2F2F2"/>
<path d="M761.739 547.649C761.74 547.836 761.703 548.021 761.632 548.193C761.561 548.365 761.457 548.522 761.325 548.654C761.193 548.786 761.036 548.89 760.864 548.961C760.692 549.032 760.507 549.069 760.32 549.068H1.67664C1.30035 549.068 0.939457 548.919 0.673376 548.653C0.407294 548.386 0.257812 548.026 0.257812 547.649C0.257812 547.273 0.407294 546.912 0.673376 546.646C0.939457 546.38 1.30035 546.23 1.67664 546.23H760.32C760.507 546.23 760.692 546.266 760.864 546.337C761.036 546.408 761.193 546.513 761.325 546.645C761.457 546.777 761.561 546.933 761.632 547.106C761.703 547.278 761.74 547.463 761.739 547.649Z" fill="#CCCCCC"/>
<path d="M589.664 184.626L567.949 181.516C560.605 193.796 557.995 226.483 557.995 226.483L536.743 276.994C535.336 277.95 534.205 279.259 533.465 280.791C532.725 282.323 532.401 284.023 532.526 285.72C532.652 287.416 533.222 289.05 534.18 290.456C535.137 291.863 536.449 292.992 537.981 293.73C539.514 294.469 541.214 294.79 542.911 294.663C544.607 294.535 546.24 293.963 547.646 293.004C549.051 292.045 550.178 290.732 550.915 289.198C551.652 287.665 551.971 285.964 551.842 284.268L586.735 225.475L589.664 184.626Z" fill="#FFB8B8"/>
<path d="M586.203 124.34C589.564 124.86 592.769 126.115 595.59 128.015C598.411 129.915 600.778 132.413 602.524 135.332C604.27 138.251 605.351 141.519 605.69 144.903C606.029 148.288 605.618 151.705 604.487 154.912L599.878 167.973C599.878 167.973 597.37 207.301 587.804 218.402L558.449 215.745C558.449 215.745 563.816 195.904 559.695 186.304C557.172 180.425 557.312 160.119 559.799 143.6C560.265 140.6 561.318 137.722 562.898 135.13C564.477 132.537 566.553 130.282 569.006 128.493C571.458 126.704 574.24 125.417 577.19 124.704C580.141 123.991 583.204 123.867 586.203 124.34Z" fill="#E6E6E6"/>
<path d="M657.967 532.409L644.887 532.407L638.664 481.953L657.97 481.954L657.967 532.409Z" fill="#FFB6B6"/>
<path d="M658.427 546.053L618.203 546.052V545.543C618.203 541.391 619.853 537.409 622.789 534.473C625.725 531.536 629.707 529.887 633.86 529.887H633.861L641.208 524.312L654.917 529.888L658.428 529.888L658.427 546.053Z" fill="#2F2E41"/>
<path d="M601.104 469.88L589.022 474.889L563.945 430.668L581.78 423.273L601.104 469.88Z" fill="#FFB6B6"/>
<path d="M606.756 482.308L569.6 497.715L569.405 497.245C567.815 493.41 567.813 489.099 569.4 485.263C570.988 481.426 574.034 478.377 577.869 476.786L577.87 476.785L582.522 468.822L597.321 468.72L600.564 467.375L606.756 482.308Z" fill="#2F2E41"/>
<path d="M672.923 245.398L580.093 255.097L567.675 296.92L524.672 366.028L572.153 453.265L588.875 438.257L572.824 367.812L620.732 316.092L629.816 312.322L637.027 504.243L663.699 504.681L675.37 292.908C680.978 274.2 679.29 258.753 672.923 245.398Z" fill="#2F2E41"/>
<path d="M638.888 112.996L623.651 95.8398L599.575 98.515L584.16 120.087C575.955 121.973 568.786 126.932 564.126 133.944C559.466 140.956 557.671 149.486 559.109 157.782C565.091 192.225 585.419 225.632 578.707 242.626C568.517 268.424 567.896 278.945 592.286 275.328C616.676 271.712 698.387 263.374 682.545 247.532C666.703 231.69 663.223 205.217 663.223 205.217L662.588 144.653C663.262 141 663.172 137.247 662.325 133.631C661.477 130.014 659.891 126.612 657.664 123.639C655.438 120.665 652.621 118.185 649.389 116.353C646.158 114.522 642.582 113.379 638.888 112.997L638.888 112.996Z" fill="#E6E6E6"/>
<path d="M609.116 91.4476C623.877 91.4476 635.842 79.4821 635.842 64.7219C635.842 49.9616 623.877 37.9961 609.116 37.9961C594.356 37.9961 582.391 49.9616 582.391 64.7219C582.391 79.4821 594.356 91.4476 609.116 91.4476Z" fill="#FFB8B8"/>
<path d="M642.043 63.1369C640.849 68.5518 638.696 73.7095 635.686 78.3661C634.887 79.9539 633.693 81.3095 632.219 82.3028C631.473 82.7817 630.582 82.9837 629.702 82.8738C628.822 82.7638 628.009 82.3487 627.403 81.7009L626.753 81.1711C628.028 80.3854 629.167 79.3974 630.124 78.2457C630.598 77.6677 630.927 76.985 631.084 76.2542C631.241 75.5235 631.222 74.7658 631.027 74.0441C630.796 73.3324 630.298 72.7379 629.638 72.3855C628.978 72.033 628.208 71.95 627.488 72.154C625.923 72.768 624.972 75.0313 623.334 74.6822C622.01 74.3932 621.733 72.6476 621.733 71.2752C621.781 64.1 618.314 53.9031 615.629 54.2161C612.917 54.3644 610.201 54.0009 607.623 53.1446C605.042 52.2869 602.319 51.9393 599.606 52.1213C599.413 52.1454 599.22 52.1815 599.016 52.2176C598.581 50.8544 597.982 49.5487 597.234 48.329C597.318 49.8013 597.246 51.2784 597.017 52.7353C594.858 53.6253 592.626 54.3301 590.348 54.842C587.868 55.1912 582.414 62.6072 582.161 61.8487C581.726 60.4854 581.128 59.1798 580.379 57.9601C580.464 59.4324 580.391 60.9095 580.163 62.3664C580.151 62.4265 580.151 62.4747 580.139 62.5349C578.935 60.9337 578.2 58.9834 578.61 60.4763C574.577 51.3508 576.142 44.8137 582.486 37.1208C583.723 35.4667 585.359 34.1536 587.242 33.3044C588.184 32.8903 589.218 32.7259 590.243 32.8271C591.267 32.9284 592.249 33.2918 593.092 33.8823C595.68 31.5099 598.855 29.8726 602.289 29.1402C605.722 28.4078 609.289 28.6069 612.619 29.7169C619.229 32.0164 624.321 33.3647 625.333 40.2991C630.798 39.4202 636.42 42.5263 639.43 47.1612C642.428 51.8083 643.042 57.7073 642.043 63.1369Z" fill="#2F2E41"/>
<path d="M620.37 285.117H611.5V216.848H618.714C619.063 216.848 619.399 216.986 619.646 217.232C619.894 217.479 620.034 217.813 620.036 218.163L620.37 285.117Z" fill="#3F3D56"/>
<path d="M612.335 285.479H517.078V236.859H612.335V285.479Z" fill="white"/>
<path d="M574.788 285.297H517.258V237.039H612.153V247.933C612.142 257.839 608.201 267.336 601.197 274.341C594.192 281.346 584.694 285.286 574.788 285.297Z" fill="#05BC6C"/>
<path d="M618.929 218.787C618.881 218.877 618.844 218.973 618.818 219.072L615.534 231.733L611.971 238.481H517.438V236.8L522.82 231.733L529.098 219.724C529.375 219.194 529.739 218.714 530.175 218.304C531.169 217.369 532.483 216.848 533.848 216.848H617.76C617.988 216.848 618.212 216.907 618.41 217.019C618.609 217.131 618.775 217.292 618.892 217.487C619.01 217.682 619.075 217.904 619.082 218.132C619.088 218.36 619.035 218.585 618.929 218.787Z" fill="#3F3D56"/>
<path d="M612.335 285.479H517.078V236.859H612.335V285.479ZM517.801 284.756H611.611V237.582H517.801V284.756Z" fill="#3F3D56"/>
<path d="M617.288 225.266L615.534 231.736H522.82L525.815 226.351L617.288 225.266Z" fill="#05BC6C"/>
<path d="M535.771 262.336H520.586V263.176H535.771V262.336Z" fill="white"/>
<path d="M535.771 265.277H520.586V266.118H535.771V265.277Z" fill="white"/>
<path d="M535.771 268.219H520.586V269.059H535.771V268.219Z" fill="white"/>
<path d="M526.47 252.979C529.486 252.979 531.932 250.533 531.932 247.517C531.932 244.5 529.486 242.055 526.47 242.055C523.453 242.055 521.008 244.5 521.008 247.517C521.008 250.533 523.453 252.979 526.47 252.979Z" fill="white"/>
<path d="M657.429 178.384L635.714 175.273C628.37 187.554 625.76 220.241 625.76 220.241L604.509 270.751C603.102 271.707 601.971 273.017 601.23 274.549C600.49 276.081 600.167 277.781 600.292 279.478C600.418 281.174 600.988 282.808 601.945 284.214C602.903 285.621 604.214 286.75 605.747 287.488C607.28 288.227 608.98 288.548 610.677 288.421C612.373 288.293 614.006 287.721 615.411 286.762C616.816 285.802 617.944 284.49 618.681 282.956C619.417 281.423 619.737 279.722 619.607 278.026L654.5 219.233L657.429 178.384Z" fill="#FFB8B8"/>
<path d="M645.663 118.097C649.024 118.617 652.229 119.872 655.05 121.772C657.871 123.672 660.239 126.17 661.984 129.089C663.73 132.008 664.811 135.276 665.15 138.66C665.489 142.044 665.079 145.462 663.947 148.669L659.339 161.73C659.339 161.73 665.143 201.058 655.577 212.159L626.222 209.502C626.222 209.502 631.589 189.66 627.469 180.061C624.945 174.181 625.086 153.875 627.572 137.357C629.471 124.744 633.058 116.144 645.663 118.097Z" fill="#E6E6E6"/>
<path d="M461.275 53.0275C450.665 58.3187 442.592 67.6078 438.832 78.8513C435.071 90.0947 435.931 102.372 441.222 112.981C452.241 135.074 492.057 172.754 523.825 178.447C510.16 136.955 529.16 94.7807 521.229 73.0799C512.753 49.892 483.368 42.0091 461.275 53.0275Z" fill="#05BC6C"/>
<path d="M476.165 105.572C484.216 105.572 490.744 99.0445 490.744 90.9929C490.744 82.9412 484.216 76.4141 476.165 76.4141C468.113 76.4141 461.586 82.9412 461.586 90.9929C461.586 99.0445 468.113 105.572 476.165 105.572Z" fill="white"/>
<path d="M523.541 201.848C528.815 201.848 533.09 197.572 533.09 192.299C533.09 187.025 528.815 182.75 523.541 182.75C518.267 182.75 513.992 187.025 513.992 192.299C513.992 197.572 518.267 201.848 523.541 201.848Z" fill="#05BC6C"/>
<path opacity="0.2" d="M480.607 75.6689C482.521 75.6025 484.43 75.9139 486.224 76.5854C488.018 77.2569 489.662 78.2755 491.062 79.5827C492.462 80.8899 493.591 82.4602 494.384 84.2039C495.177 85.9476 495.618 87.8305 495.683 89.7449C495.748 91.6593 495.435 93.5677 494.762 95.3611C494.089 97.1545 493.069 98.7976 491.76 100.197C490.452 101.596 488.881 102.723 487.136 103.515C485.392 104.306 483.509 104.746 481.594 104.809C484.839 103.603 487.548 101.281 489.237 98.2588C490.926 95.2371 491.484 91.713 490.812 88.3172C490.14 84.9214 488.282 81.8756 485.569 79.7249C482.857 77.5742 479.467 76.4591 476.008 76.579C477.482 76.0295 479.035 75.7222 480.607 75.6689Z" fill="#231F20"/>
<path opacity="0.2" d="M521.299 73.0891C529.231 94.7897 510.23 136.964 523.895 178.456C520.897 177.904 517.943 177.131 515.059 176.143C503.925 136.033 521.4 95.9542 513.736 74.9875C506.878 56.2218 486.324 47.4822 467.023 50.6705C488.206 43.4462 513.532 51.8395 521.299 73.0891Z" fill="#231F20"/>
<path d="M73.7764 274.426C62.794 274.162 52.1566 278.272 44.2044 285.851C36.2522 293.431 31.6366 303.858 31.3729 314.841C30.8237 337.711 47.107 385.825 70.6589 404.254C77.4464 364.349 111.284 338.04 114.191 316.829C117.298 294.165 96.646 274.975 73.7764 274.426Z" fill="#D1D3D4"/>
<path d="M69.5166 325.482C76.9773 325.482 83.0254 319.434 83.0254 311.974C83.0254 304.513 76.9773 298.465 69.5166 298.465C62.0559 298.465 56.0078 304.513 56.0078 311.974C56.0078 319.434 62.0559 325.482 69.5166 325.482Z" fill="white"/>
<path d="M64.4261 424.325C69.3127 424.325 73.2741 420.363 73.2741 415.477C73.2741 410.59 69.3127 406.629 64.4261 406.629C59.5395 406.629 55.5781 410.59 55.5781 415.477C55.5781 420.363 59.5395 424.325 64.4261 424.325Z" fill="#D1D3D4"/>
<path opacity="0.2" d="M79.8029 301.345C83.0246 302.912 85.4918 305.695 86.6617 309.082C87.8316 312.468 87.6083 316.18 86.0411 319.402C85.2651 320.997 84.1825 322.424 82.8551 323.601C81.5277 324.778 79.9814 325.681 78.3047 326.261C74.9184 327.431 71.2061 327.207 67.9844 325.64C71.1647 326.058 74.3898 325.33 77.0824 323.587C79.7751 321.844 81.7596 319.199 82.6807 316.127C83.6018 313.054 83.3995 309.754 82.1098 306.818C80.8201 303.881 78.5273 301.499 75.6418 300.098C77.087 300.286 78.4923 300.708 79.8029 301.345Z" fill="#231F20"/>
<path opacity="0.2" d="M114.244 316.865C111.337 338.076 77.4991 364.385 70.7116 404.29C68.495 402.538 66.411 400.625 64.4766 398.566C72.7383 360.89 104.418 335.636 107.227 315.143C109.741 296.801 96.6942 280.737 79.5048 274.984C99.9848 278.247 117.091 296.096 114.244 316.865Z" fill="#231F20"/>
<path d="M230.924 98.4116C227.837 98.6136 224.951 100.012 222.88 102.309C220.809 104.607 219.716 107.622 219.833 110.712C219.867 111.34 219.953 111.964 220.09 112.578L185.039 134.66L204.417 143.23L234.731 120.947C237.232 120.183 239.41 118.612 240.924 116.48C242.439 114.348 243.205 111.775 243.103 109.162C243.031 107.675 242.667 106.217 242.031 104.872C241.396 103.526 240.501 102.319 239.399 101.319C238.297 100.319 237.009 99.5456 235.608 99.0435C234.207 98.5413 232.721 98.3201 231.235 98.3922C231.131 98.3973 231.027 98.4037 230.924 98.4116Z" fill="#FFB6B6"/>
<path d="M197.119 124.621L205.806 142.545L171.459 164.647C169.015 166.233 166.206 167.168 163.299 167.363C160.392 167.558 157.484 167.006 154.85 165.76C151.648 164.227 149.031 161.695 147.393 158.546C145.755 155.396 145.186 151.8 145.77 148.298L156.915 84.6717C157.663 80.2191 160.089 76.2226 163.694 73.504C167.299 70.7854 171.808 69.5514 176.295 70.0559C178.48 70.2949 180.597 70.9619 182.525 72.019C184.452 73.0761 186.153 74.5025 187.529 76.2167C188.906 77.931 189.931 79.8995 190.546 82.01C191.162 84.1204 191.356 86.3315 191.117 88.5169C191.098 88.6895 191.076 88.8618 191.052 89.0338C190.968 89.6452 190.851 90.2516 190.701 90.8504L178.534 136.1L197.119 124.621Z" fill="#05BC6C"/>
<path d="M199.566 152.41H150.445V201.53H199.566V152.41Z" fill="#FFB8B8"/>
<path d="M316.047 297.073L334.806 290.762L345.253 341.825L332.541 346.101L316.047 297.073Z" fill="#FFB6B6"/>
<path d="M284.258 293.148L302.866 286.402L314.498 337.208L301.889 341.778L284.258 293.148Z" fill="#FFB6B6"/>
<path d="M152.204 214.36C142.359 279.995 273.466 241.191 273.466 241.191L314.573 297.898L338.639 293.523C338.639 293.523 327.81 259.48 308.471 213.843C299.883 193.576 202.361 198.528 202.361 198.528L200.336 182.637L144.547 181.543L152.204 214.36Z" fill="#2F2E41"/>
<path d="M246.906 245.592L277.223 226.711C299.417 271.029 305.96 290.223 305.96 290.223L284.977 296.123L246.906 245.592Z" fill="#2F2E41"/>
<path d="M180.263 72.5898L170.376 59.8811L156.272 59.2695L154.865 71.2223L147.877 74.4447C140.899 100.954 139.821 128.671 144.72 155.642C145.656 156.524 146.341 157.64 146.702 158.874C147.064 160.109 147.089 161.417 146.776 162.665L146.323 164.471L146.365 164.537C147.852 166.884 148.357 169.721 147.77 172.436L144.432 178.366C143.235 180.499 142.516 182.866 142.326 185.305C142.136 187.743 142.48 190.194 143.333 192.486C144.186 194.778 145.528 196.857 147.266 198.578C149.004 200.299 151.096 201.621 153.396 202.452C173.91 209.887 193.14 212.657 207.367 191.792L211.84 119.079L180.263 72.5898Z" fill="#05BC6C"/>
<path d="M169.905 63.2545C184.306 63.2545 195.981 51.5797 195.981 37.178C195.981 22.7764 184.306 11.1016 169.905 11.1016C155.503 11.1016 143.828 22.7764 143.828 37.178C143.828 51.5797 155.503 63.2545 169.905 63.2545Z" fill="#FFB8B8"/>
<path d="M156.816 5.74284C145.775 5.95497 137.018 16.1964 137.256 28.6178C129.086 37.1434 127.106 79.0775 133.934 90.2331C146.422 91.6828 154.019 60.785 164.971 65.2516L166.414 58.5085L169.685 67.2897C172.468 68.5729 175.231 69.9813 177.972 71.5151C179.942 62.4789 179.453 53.6954 174.159 46.0448C169.455 39.248 180.902 31.1789 189.089 32.3194L188.969 26.0769L191.025 32.2822C194.216 34.6272 197.747 33.7783 201.367 32.0835C207.237 1.57493 161.789 -6.76819 156.816 5.74284Z" fill="#2F2E41"/>
<path d="M326.77 354.737L335.128 353.645L335.589 345.559L340.441 352.951L362.608 350.055C363.671 349.917 364.661 349.442 365.435 348.7C366.209 347.959 366.725 346.989 366.909 345.934C367.092 344.878 366.934 343.791 366.456 342.832C365.978 341.873 365.207 341.091 364.253 340.602L344.954 330.688L343.912 322.711L325.438 326.254L326.77 354.737Z" fill="#2F2E41"/>
<path d="M304.688 354.809L312.27 351.128L310.148 343.312L317.09 348.787L337.2 339.022C338.164 338.554 338.954 337.79 339.453 336.842C339.952 335.894 340.135 334.811 339.975 333.751C339.815 332.691 339.32 331.711 338.563 330.952C337.806 330.194 336.827 329.697 335.768 329.534L314.323 326.241L310.808 319.004L294.406 328.214L304.688 354.809Z" fill="#2F2E41"/>
<path d="M190.227 180.918H199.524V109.359H191.963C191.596 109.359 191.245 109.504 190.985 109.763C190.726 110.021 190.579 110.372 190.577 110.738L190.227 180.918Z" fill="#CCCCCC"/>
<path d="M198.656 130.336H298.502V181.298H198.656V130.336Z" fill="white"/>
<path d="M198.844 141.946V130.527H298.31V181.11H238.008C227.625 181.098 217.67 176.968 210.328 169.626C202.986 162.284 198.856 152.329 198.844 141.946Z" fill="#F2F2F2"/>
<path d="M191.746 111.392C191.797 111.487 191.835 111.587 191.862 111.691L195.305 124.962L199.04 132.035H298.127V130.273L292.486 124.962L285.905 112.374C285.614 111.819 285.233 111.316 284.776 110.886C283.734 109.905 282.357 109.359 280.926 109.359H192.971C192.733 109.359 192.498 109.421 192.29 109.539C192.082 109.656 191.908 109.825 191.785 110.03C191.662 110.234 191.593 110.467 191.586 110.706C191.58 110.944 191.635 111.181 191.746 111.392Z" fill="#F2F2F2"/>
<path d="M198.656 130.336H298.502V181.298H198.656V130.336ZM297.744 180.54H199.414V131.094H297.744L297.744 180.54Z" fill="#E6E6E6"/>
<path d="M193.461 118.184L195.301 124.965H292.481L289.34 119.321L193.461 118.184Z" fill="#CCCCCC"/>
<path d="M294.823 157.039H278.906V157.92H294.823V157.039Z" fill="white"/>
<path d="M294.823 160.125H278.906V161.006H294.823V160.125Z" fill="white"/>
<path d="M294.823 163.207H278.906V164.088H294.823V163.207Z" fill="white"/>
<path d="M288.655 147.231C291.817 147.231 294.38 144.668 294.38 141.506C294.38 138.344 291.817 135.781 288.655 135.781C285.493 135.781 282.93 138.344 282.93 141.506C282.93 144.668 285.493 147.231 288.655 147.231Z" fill="white"/>
<path d="M242.47 54.9995C249.2 54.8379 255.718 57.3562 260.59 62.0004C265.463 66.6445 268.291 73.0341 268.453 79.7635C268.789 93.7767 258.812 123.259 244.38 134.551C240.221 110.099 219.488 93.9787 217.706 80.982C215.803 67.0946 228.457 55.336 242.47 54.9995Z" fill="#D1D3D4"/>
<path d="M245.082 86.2853C249.654 86.2853 253.36 82.5794 253.36 78.0079C253.36 73.4364 249.654 69.7305 245.082 69.7305C240.511 69.7305 236.805 73.4364 236.805 78.0079C236.805 82.5794 240.511 86.2853 245.082 86.2853Z" fill="white"/>
<path d="M248.203 146.851C251.197 146.851 253.624 144.424 253.624 141.429C253.624 138.435 251.197 136.008 248.203 136.008C245.209 136.008 242.781 138.435 242.781 141.429C242.781 144.424 245.209 146.851 248.203 146.851Z" fill="#D1D3D4"/>
<path opacity="0.2" d="M238.781 71.4948C237.804 71.9703 236.93 72.6337 236.209 73.4471C235.488 74.2604 234.934 75.2079 234.579 76.2353C234.224 77.2627 234.075 78.3499 234.14 79.435C234.205 80.52 234.483 81.5815 234.959 82.559C235.434 83.5365 236.098 84.4107 236.911 85.1318C237.725 85.8529 238.672 86.4067 239.699 86.7617C240.727 87.1166 241.814 87.2657 242.899 87.2005C243.984 87.1353 245.046 86.8569 246.023 86.3814C244.074 86.6373 242.098 86.1913 240.448 85.1233C238.798 84.0553 237.582 82.4349 237.018 80.5523C236.454 78.6696 236.578 76.6476 237.368 74.848C238.158 73.0484 239.563 71.5889 241.331 70.7305C240.446 70.846 239.585 71.1042 238.781 71.4948Z" fill="#231F20"/>
<path opacity="0.2" d="M217.675 81.0061C219.456 94.0028 240.19 110.124 244.349 134.575C245.707 133.502 246.984 132.33 248.17 131.068C243.107 107.982 223.696 92.5079 221.974 79.9507C220.434 68.7118 228.428 58.8683 238.961 55.3438C226.412 57.3427 215.93 68.2796 217.675 81.0061Z" fill="#231F20"/>
<path d="M227.73 123.833C224.646 123.605 221.593 124.589 219.223 126.577C216.853 128.564 215.352 131.398 215.04 134.475C214.986 135.102 214.984 135.732 215.034 136.359L177.258 153.361L195.258 164.538L228.372 146.679C230.955 146.269 233.33 145.016 235.126 143.115C236.921 141.214 238.037 138.772 238.299 136.17C238.572 133.177 237.644 130.198 235.72 127.889C233.796 125.58 231.034 124.13 228.041 123.857C227.937 123.848 227.834 123.84 227.73 123.833Z" fill="#FFB6B6"/>
<path d="M190.619 145.099L196.734 164.055L159.651 181.175C157.01 182.407 154.099 182.943 151.193 182.732C148.287 182.522 145.483 181.571 143.048 179.972C140.09 178.01 137.85 175.139 136.665 171.792C135.48 168.446 135.416 164.805 136.48 161.419L156.35 99.9554C157.709 95.6498 160.666 92.0288 164.613 89.8369C168.561 87.645 173.198 87.0489 177.571 88.1714C179.702 88.7114 181.706 89.6659 183.468 90.9803C185.23 92.2947 186.716 93.9433 187.841 95.8321C188.966 97.7208 189.708 99.8126 190.025 101.988C190.341 104.164 190.226 106.38 189.686 108.511C189.644 108.679 189.598 108.847 189.551 109.014C189.382 109.608 189.182 110.192 188.951 110.764L170.62 153.887L190.619 145.099Z" fill="#05BC6C"/>
</g>
<defs>
<clipPath id="clip0_403_2319">
<rect width="761.481" height="548.919" fill="white" transform="translate(0.257812 0.148438)"/>
</clipPath>
</defs>
</svg>
