<svg width="762" height="352" viewBox="0 0 762 352" fill="none" xmlns="http://www.w3.org/2000/svg">
<g clip-path="url(#clip0_403_2422)">
<path d="M161.746 332.45C143.513 320.568 130.257 299.21 132.97 277.617C149.387 294.663 171.305 305.352 194.844 307.794C203.926 308.702 214.122 308.767 220.571 315.226C224.584 319.244 226.289 325.117 226.377 330.796C226.464 336.474 225.1 342.063 223.744 347.578L224.078 348.956C202.33 348.152 179.978 344.331 161.746 332.45Z" fill="#F0F0F0"/>
<path d="M133.431 277.612C140.251 294.284 152.151 308.383 167.441 317.907C170.696 320.016 174.263 321.598 178.011 322.596C181.693 323.45 185.537 323.302 189.143 322.168C192.526 321.179 195.873 319.775 199.438 319.625C201.264 319.575 203.08 319.912 204.767 320.613C206.453 321.315 207.973 322.365 209.225 323.694C212.432 326.926 214.286 331.118 215.957 335.28C217.813 339.902 219.666 344.731 223.445 348.154C223.903 348.569 223.232 349.255 222.775 348.841C216.201 342.886 215.478 333.331 210.31 326.423C207.899 323.199 204.502 320.682 200.349 320.576C196.717 320.483 193.265 321.928 189.848 322.959C186.346 324.117 182.614 324.4 178.978 323.783C175.192 322.979 171.57 321.537 168.267 319.518C160.759 315.091 153.994 309.511 148.22 302.982C141.588 295.568 136.273 287.073 132.506 277.867C132.273 277.297 133.199 277.046 133.431 277.612H133.431Z" fill="white"/>
<path d="M162.335 315.13C160.389 317.478 157.672 319.058 154.668 319.588C151.664 320.118 148.57 319.563 145.938 318.022C145.407 317.708 145.869 316.867 146.402 317.181C148.85 318.621 151.732 319.138 154.528 318.639C157.324 318.14 159.849 316.658 161.648 314.46C162.04 313.983 162.725 314.656 162.335 315.13V315.13Z" fill="white"/>
<path d="M187.488 322.895C186.962 316.683 184.114 310.897 179.512 306.691C179.056 306.274 179.726 305.588 180.181 306.004C184.963 310.39 187.914 316.417 188.447 322.883C188.498 323.499 187.538 323.508 187.488 322.895Z" fill="white"/>
<path d="M142.791 295.166C143.734 294.415 144.475 293.441 144.948 292.332C145.42 291.223 145.61 290.014 145.501 288.814C145.443 288.198 146.402 288.19 146.46 288.802C146.575 290.128 146.363 291.463 145.844 292.69C145.324 293.916 144.512 294.996 143.478 295.836C143.387 295.923 143.267 295.973 143.141 295.974C143.015 295.976 142.893 295.93 142.8 295.845C142.71 295.755 142.658 295.634 142.656 295.507C142.655 295.38 142.703 295.258 142.791 295.166Z" fill="white"/>
<path d="M195.163 238.105C195.211 238.489 195.258 238.872 195.312 239.259C195.974 244.408 197.053 249.495 198.539 254.469C198.648 254.855 198.764 255.245 198.883 255.628C202.59 267.574 208.483 278.728 216.262 288.522C219.361 292.417 222.751 296.07 226.405 299.451C231.45 304.119 237.292 308.778 240.409 314.667C240.741 315.278 241.035 315.909 241.289 316.556L225.734 348.445C225.662 348.5 225.598 348.558 225.526 348.613L224.963 349.915C224.762 349.754 224.558 349.582 224.357 349.421C224.24 349.328 224.127 349.228 224.01 349.135C223.934 349.071 223.857 349.006 223.784 348.952C223.758 348.931 223.733 348.91 223.715 348.892C223.642 348.838 223.58 348.781 223.514 348.731C222.368 347.775 221.226 346.81 220.09 345.835C220.082 345.832 220.082 345.832 220.079 345.821C211.436 338.372 203.34 330.135 196.751 320.932C196.553 320.655 196.347 320.375 196.156 320.083C193.209 315.918 190.607 311.519 188.377 306.93C187.164 304.414 186.079 301.837 185.126 299.211C182.678 292.42 181.313 285.287 181.081 278.072C180.622 263.689 184.767 249.319 194.418 238.895C194.665 238.628 194.909 238.368 195.163 238.105Z" fill="#F0F0F0"/>
<path d="M195.529 238.374C190.937 255.792 191.95 274.214 198.424 291.024C199.753 294.667 201.649 298.078 204.041 301.131C206.466 304.03 209.624 306.227 213.186 307.493C216.484 308.739 220.001 309.633 222.938 311.66C224.426 312.719 225.673 314.082 226.597 315.657C227.522 317.233 228.103 318.986 228.302 320.802C228.917 325.313 227.874 329.777 226.702 334.106C225.401 338.913 223.973 343.885 224.929 348.893C225.045 349.499 224.097 349.644 223.981 349.038C222.318 340.325 227.492 332.261 227.526 323.633C227.542 319.608 226.344 315.553 223.092 312.967C220.248 310.707 216.622 309.782 213.273 308.548C209.78 307.365 206.63 305.344 204.098 302.662C201.559 299.74 199.535 296.408 198.114 292.807C194.785 284.752 192.743 276.224 192.063 267.535C191.232 257.622 192.102 247.64 194.637 238.021C194.794 237.426 195.685 237.783 195.529 238.374Z" fill="white"/>
<path d="M196.021 285.731C193.053 286.434 189.932 286.059 187.215 284.674C184.498 283.289 182.362 280.982 181.188 278.167C180.953 277.597 181.828 277.204 182.064 277.775C183.152 280.399 185.142 282.547 187.675 283.832C190.208 285.117 193.116 285.454 195.876 284.783C196.476 284.637 196.618 285.586 196.021 285.731V285.731Z" fill="white"/>
<path d="M211.432 307.079C214.752 301.802 215.962 295.468 214.819 289.339C214.705 288.732 215.654 288.587 215.767 289.194C216.944 295.574 215.672 302.163 212.205 307.647C211.874 308.169 211.102 307.599 211.432 307.079Z" fill="white"/>
<path d="M192.438 258.025C193.643 257.992 194.821 257.661 195.866 257.06C196.911 256.46 197.791 255.609 198.426 254.584C198.75 254.058 199.521 254.629 199.199 255.152C198.492 256.281 197.519 257.219 196.366 257.885C195.213 258.551 193.914 258.925 192.583 258.973C192.458 258.988 192.332 258.955 192.23 258.881C192.129 258.806 192.059 258.696 192.036 258.572C192.018 258.446 192.05 258.318 192.125 258.216C192.2 258.114 192.312 258.045 192.438 258.025H192.438Z" fill="white"/>
<path d="M718.158 332.45C736.391 320.568 749.647 299.21 746.934 277.617C730.517 294.663 708.6 305.352 685.06 307.794C675.978 308.702 665.783 308.767 659.333 315.226C655.32 319.244 653.615 325.117 653.527 330.796C653.44 336.474 654.804 342.063 656.16 347.578L655.827 348.956C677.574 348.152 699.926 344.331 718.158 332.45Z" fill="#F0F0F0"/>
<path d="M746.48 277.612C739.66 294.284 727.76 308.383 712.47 317.907C709.215 320.016 705.648 321.598 701.9 322.596C698.218 323.45 694.374 323.302 690.768 322.168C687.384 321.179 684.038 319.775 680.473 319.625C678.647 319.575 676.831 319.912 675.144 320.613C673.457 321.315 671.938 322.365 670.686 323.694C667.479 326.926 665.624 331.118 663.953 335.28C662.098 339.902 660.244 344.731 656.466 348.154C656.008 348.569 656.678 349.255 657.135 348.841C663.709 342.886 664.433 333.331 669.6 326.423C672.011 323.199 675.409 320.682 679.562 320.576C683.194 320.483 686.646 321.928 690.063 322.959C693.565 324.117 697.296 324.4 700.932 323.783C704.719 322.979 708.341 321.537 711.644 319.518C719.151 315.091 725.917 309.511 731.691 302.982C738.323 295.568 743.637 287.074 747.405 277.867C747.638 277.297 746.711 277.046 746.48 277.612H746.48Z" fill="white"/>
<path d="M717.569 315.13C719.515 317.478 722.233 319.058 725.236 319.588C728.24 320.118 731.334 319.563 733.966 318.022C734.497 317.708 734.035 316.867 733.503 317.181C731.054 318.621 728.172 319.138 725.376 318.639C722.58 318.14 720.055 316.658 718.256 314.46C717.864 313.983 717.18 314.656 717.569 315.13V315.13Z" fill="white"/>
<path d="M692.414 322.895C692.94 316.683 695.788 310.897 700.39 306.691C700.847 306.274 700.177 305.588 699.721 306.004C694.94 310.39 691.988 316.417 691.455 322.883C691.405 323.499 692.364 323.508 692.414 322.895Z" fill="white"/>
<path d="M737.113 295.166C736.171 294.415 735.43 293.441 734.957 292.332C734.484 291.223 734.294 290.014 734.404 288.814C734.462 288.198 733.502 288.19 733.445 288.802C733.329 290.128 733.541 291.463 734.061 292.69C734.581 293.916 735.393 294.996 736.426 295.836C736.517 295.923 736.638 295.973 736.764 295.974C736.89 295.976 737.011 295.93 737.104 295.845C737.195 295.755 737.246 295.634 737.248 295.507C737.25 295.38 737.201 295.258 737.113 295.166Z" fill="white"/>
<path d="M684.743 238.105C684.696 238.489 684.649 238.872 684.594 239.259C683.932 244.408 682.853 249.495 681.368 254.469C681.259 254.855 681.143 255.245 681.023 255.628C677.316 267.574 671.423 278.728 663.645 288.522C660.546 292.417 657.155 296.07 653.502 299.451C648.456 304.119 642.614 308.778 639.497 314.667C639.165 315.278 638.871 315.909 638.617 316.556L654.173 348.445C654.244 348.5 654.309 348.558 654.381 348.613L654.944 349.915C655.144 349.754 655.349 349.582 655.549 349.421C655.666 349.328 655.779 349.228 655.896 349.135C655.973 349.071 656.05 349.006 656.122 348.952C656.148 348.931 656.174 348.91 656.192 348.892C656.265 348.838 656.327 348.781 656.392 348.731C657.539 347.775 658.68 346.81 659.817 345.835C659.824 345.832 659.824 345.832 659.828 345.821C668.47 338.372 676.567 330.135 683.156 320.932C683.354 320.655 683.56 320.375 683.751 320.083C686.698 315.918 689.299 311.519 691.529 306.93C692.743 304.414 693.828 301.837 694.78 299.211C697.229 292.42 698.594 285.287 698.825 278.072C699.285 263.689 695.14 249.319 685.488 238.895C685.241 238.628 684.998 238.368 684.743 238.105Z" fill="#F0F0F0"/>
<path d="M684.369 238.374C688.961 255.792 687.948 274.214 681.474 291.024C680.145 294.667 678.249 298.078 675.858 301.131C673.432 304.03 670.274 306.227 666.712 307.493C663.415 308.739 659.897 309.633 656.961 311.66C655.473 312.719 654.226 314.082 653.301 315.657C652.377 317.233 651.796 318.986 651.596 320.802C650.982 325.313 652.025 329.777 653.197 334.106C654.498 338.913 655.925 343.885 654.969 348.893C654.853 349.499 655.801 349.644 655.917 349.038C657.58 340.325 652.406 332.261 652.372 323.633C652.356 319.608 653.554 315.553 656.806 312.967C659.65 310.707 663.276 309.782 666.626 308.548C670.118 307.365 673.268 305.344 675.8 302.662C678.339 299.74 680.363 296.408 681.784 292.807C685.113 284.752 687.155 276.224 687.835 267.535C688.667 257.622 687.796 247.64 685.261 238.021C685.104 237.426 684.213 237.783 684.369 238.374Z" fill="white"/>
<path d="M683.882 285.731C686.85 286.434 689.971 286.059 692.688 284.674C695.405 283.289 697.542 280.982 698.715 278.167C698.951 277.597 698.075 277.204 697.84 277.775C696.752 280.399 694.761 282.547 692.229 283.832C689.696 285.117 686.787 285.454 684.028 284.783C683.428 284.637 683.286 285.586 683.882 285.731V285.731Z" fill="white"/>
<path d="M668.467 307.079C665.146 301.802 663.937 295.468 665.079 289.339C665.193 288.732 664.245 288.587 664.131 289.194C662.954 295.574 664.226 302.163 667.693 307.647C668.024 308.169 668.796 307.599 668.467 307.079Z" fill="white"/>
<path d="M687.463 258.025C686.258 257.992 685.08 257.661 684.035 257.06C682.99 256.46 682.11 255.609 681.475 254.584C681.151 254.058 680.38 254.629 680.702 255.152C681.409 256.281 682.382 257.219 683.535 257.885C684.688 258.551 685.987 258.925 687.318 258.973C687.443 258.988 687.569 258.955 687.671 258.881C687.772 258.806 687.841 258.696 687.864 258.572C687.883 258.446 687.851 258.318 687.776 258.216C687.701 258.114 687.588 258.045 687.463 258.025H687.463Z" fill="white"/>
<path d="M197.654 227.67C196.964 227.255 196.373 226.693 195.924 226.025C195.475 225.357 195.177 224.599 195.052 223.803C194.928 223.008 194.979 222.195 195.203 221.422C195.427 220.648 195.817 219.933 196.347 219.327L186.648 202.328L196.797 202.984L204.451 219.026C205.411 219.983 205.985 221.26 206.067 222.613C206.148 223.966 205.73 225.302 204.892 226.367C204.054 227.433 202.854 228.154 201.52 228.394C200.186 228.634 198.81 228.376 197.654 227.67Z" fill="#FFB6B6"/>
<path d="M123.001 343.551H129.716L132.91 317.652L123 317.653L123.001 343.551Z" fill="#FFB6B6"/>
<path d="M121.281 341.36L134.504 341.359H134.505C136.74 341.359 138.883 342.247 140.463 343.828C142.043 345.408 142.931 347.551 142.931 349.786V350.06L121.282 350.061L121.281 341.36Z" fill="#2F2E41"/>
<path d="M169.002 343.551H175.716L178.91 317.652L169 317.653L169.002 343.551Z" fill="#FFB6B6"/>
<path d="M167.289 341.36L180.512 341.359H180.513C182.747 341.359 184.891 342.247 186.471 343.828C188.051 345.408 188.939 347.551 188.939 349.786V350.06L167.289 350.061L167.289 341.36Z" fill="#2F2E41"/>
<path d="M186.264 203.059C186.264 203.059 188.111 229.358 184.474 242.604C180.837 255.849 180.187 335.949 180.187 335.949H167.995L157.428 226.916L133.066 336.334L121.453 335.535L127.822 206.601L186.264 203.059Z" fill="#2F2E41"/>
<path d="M132.866 114.403L142.187 107.602L157.805 111.002L162.032 121.048L169.317 124.66C171.713 125.847 173.784 127.599 175.353 129.763C176.922 131.928 177.942 134.442 178.325 137.088L188.732 208.956L127.828 206.601L120.455 121.963C120.378 121.079 120.479 120.188 120.752 119.344C121.025 118.499 121.465 117.718 122.046 117.047C122.626 116.376 123.335 115.828 124.131 115.435C124.927 115.043 125.794 114.814 126.68 114.763L132.866 114.403Z" fill="#3F3D56"/>
<path d="M173.172 130.273L178.797 137.856L203.298 212.583L191.813 217.181L173.424 182.36L173.172 130.273Z" fill="#3F3D56"/>
<path d="M152.775 104.05C160.288 104.05 166.378 97.9595 166.378 90.4468C166.378 82.934 160.288 76.8438 152.775 76.8438C145.262 76.8438 139.172 82.934 139.172 90.4468C139.172 97.9595 145.262 104.05 152.775 104.05Z" fill="#FFB9B9"/>
<path opacity="0.1" d="M123.125 146.41L145.323 177.285L170.136 193.465L123.125 146.41Z" fill="black"/>
<path d="M145.571 100.279C144.625 98.39 143.651 96.3337 144.013 94.252C144.375 92.1703 146.763 90.3565 148.607 91.3885C149.372 88.6241 152.758 87.4142 155.609 87.7334C158.459 88.0525 161.084 89.4274 163.891 90.0177C166.698 90.608 170.107 90.1397 171.624 87.7054L167.994 87.6426L171.774 83.2584L167.392 82.9306C168.91 81.2926 168.507 78.5098 167.037 76.8283C165.568 75.1468 163.339 74.3511 161.163 73.848C156.82 72.8469 152.318 72.7434 147.934 73.5439C145.866 73.8626 143.875 74.5557 142.056 75.5893C140.344 76.6337 138.929 78.1012 137.947 79.8505C136.888 81.824 136.316 84.0219 136.278 86.2613C136.213 89.2609 136.902 92.2288 138.282 94.8929C139.662 97.557 141.689 99.8321 144.176 101.51" fill="#2F2E41"/>
<path d="M652.053 350.409H229.905C225.558 350.404 221.39 348.675 218.316 345.601C215.242 342.527 213.513 338.359 213.508 334.012V17.1003C213.513 12.753 215.242 8.58512 218.316 5.51112C221.39 2.43711 225.558 0.708006 229.905 0.703125H652.053C656.4 0.708083 660.568 2.43723 663.642 5.51123C666.716 8.58523 668.445 12.7531 668.45 17.1003V334.012C668.445 338.359 666.716 342.527 663.642 345.601C660.568 348.675 656.4 350.404 652.053 350.409Z" fill="#E4E4E4"/>
<path d="M545.8 146.211H480.635C477.414 146.211 474.326 144.932 472.049 142.654C469.771 140.377 468.492 137.289 468.492 134.068C468.492 130.848 469.771 127.759 472.049 125.482C474.326 123.205 477.414 121.926 480.635 121.926H545.8C549.021 121.926 552.109 123.205 554.386 125.482C556.663 127.759 557.943 130.848 557.943 134.068C557.943 137.289 556.663 140.377 554.386 142.654C552.109 144.932 549.021 146.211 545.8 146.211Z" fill="white"/>
<path d="M488.731 179.401H473.351C472.17 179.401 471.037 178.932 470.202 178.097C469.368 177.262 468.898 176.129 468.898 174.948C468.898 173.768 469.368 172.635 470.202 171.8C471.037 170.965 472.17 170.496 473.351 170.496H488.731C489.912 170.496 491.045 170.965 491.88 171.8C492.714 172.635 493.184 173.768 493.184 174.948C493.184 176.129 492.714 177.262 491.88 178.097C491.045 178.932 489.912 179.401 488.731 179.401Z" fill="white"/>
<path d="M552.684 179.401H537.304C536.123 179.401 534.991 178.932 534.156 178.097C533.321 177.262 532.852 176.129 532.852 174.948C532.852 173.768 533.321 172.635 534.156 171.8C534.991 170.965 536.123 170.496 537.304 170.496H552.684C553.865 170.496 554.998 170.965 555.833 171.8C556.668 172.635 557.137 173.768 557.137 174.948C557.137 176.129 556.668 177.262 555.833 178.097C554.998 178.932 553.865 179.401 552.684 179.401Z" fill="white"/>
<path d="M520.302 179.401H504.921C503.74 179.401 502.608 178.932 501.773 178.097C500.938 177.262 500.469 176.129 500.469 174.948C500.469 173.768 500.938 172.635 501.773 171.8C502.608 170.965 503.74 170.496 504.921 170.496H520.302C521.482 170.496 522.615 170.965 523.45 171.8C524.285 172.635 524.754 173.768 524.754 174.948C524.754 176.129 524.285 177.262 523.45 178.097C522.615 178.932 521.482 179.401 520.302 179.401Z" fill="white"/>
<path d="M488.731 196.401H473.351C472.17 196.401 471.037 195.932 470.202 195.097C469.368 194.262 468.898 193.129 468.898 191.948C468.898 190.768 469.368 189.635 470.202 188.8C471.037 187.965 472.17 187.496 473.351 187.496H488.731C489.912 187.496 491.045 187.965 491.88 188.8C492.714 189.635 493.184 190.768 493.184 191.948C493.184 193.129 492.714 194.262 491.88 195.097C491.045 195.932 489.912 196.401 488.731 196.401Z" fill="white"/>
<path d="M552.684 196.401H537.304C536.123 196.401 534.991 195.932 534.156 195.097C533.321 194.262 532.852 193.129 532.852 191.948C532.852 190.768 533.321 189.635 534.156 188.8C534.991 187.965 536.123 187.496 537.304 187.496H552.684C553.865 187.496 554.998 187.965 555.833 188.8C556.668 189.635 557.137 190.768 557.137 191.948C557.137 193.129 556.668 194.262 555.833 195.097C554.998 195.932 553.865 196.401 552.684 196.401Z" fill="white"/>
<path d="M520.302 196.401H504.921C503.74 196.401 502.608 195.932 501.773 195.097C500.938 194.262 500.469 193.129 500.469 191.948C500.469 190.768 500.938 189.635 501.773 188.8C502.608 187.965 503.74 187.496 504.921 187.496H520.302C521.482 187.496 522.615 187.965 523.45 188.8C524.285 189.635 524.754 190.768 524.754 191.948C524.754 193.129 524.285 194.262 523.45 195.097C522.615 195.932 521.482 196.401 520.302 196.401Z" fill="white"/>
<path d="M488.731 213.401H473.351C472.17 213.401 471.037 212.932 470.202 212.097C469.368 211.262 468.898 210.129 468.898 208.948C468.898 207.768 469.368 206.635 470.202 205.8C471.037 204.965 472.17 204.496 473.351 204.496H488.731C489.912 204.496 491.045 204.965 491.88 205.8C492.714 206.635 493.184 207.768 493.184 208.948C493.184 210.129 492.714 211.262 491.88 212.097C491.045 212.932 489.912 213.401 488.731 213.401Z" fill="white"/>
<path d="M552.684 213.401H537.304C536.123 213.401 534.991 212.932 534.156 212.097C533.321 211.262 532.852 210.129 532.852 208.948C532.852 207.768 533.321 206.635 534.156 205.8C534.991 204.965 536.123 204.496 537.304 204.496H552.684C553.865 204.496 554.998 204.965 555.833 205.8C556.668 206.635 557.137 207.768 557.137 208.948C557.137 210.129 556.668 211.262 555.833 212.097C554.998 212.932 553.865 213.401 552.684 213.401Z" fill="white"/>
<path d="M520.302 213.401H504.921C503.74 213.401 502.608 212.932 501.773 212.097C500.938 211.262 500.469 210.129 500.469 208.948C500.469 207.768 500.938 206.635 501.773 205.8C502.608 204.965 503.74 204.496 504.921 204.496H520.302C521.482 204.496 522.615 204.965 523.45 205.8C524.285 206.635 524.754 207.768 524.754 208.948C524.754 210.129 524.285 211.262 523.45 212.097C522.615 212.932 521.482 213.401 520.302 213.401Z" fill="white"/>
<path d="M488.731 230.401H473.351C472.17 230.401 471.037 229.932 470.202 229.097C469.368 228.262 468.898 227.129 468.898 225.948C468.898 224.768 469.368 223.635 470.202 222.8C471.037 221.965 472.17 221.496 473.351 221.496H488.731C489.912 221.496 491.045 221.965 491.88 222.8C492.714 223.635 493.184 224.768 493.184 225.948C493.184 227.129 492.714 228.262 491.88 229.097C491.045 229.932 489.912 230.401 488.731 230.401Z" fill="white"/>
<path d="M552.684 230.401H537.304C536.123 230.401 534.991 229.932 534.156 229.097C533.321 228.262 532.852 227.129 532.852 225.948C532.852 224.768 533.321 223.635 534.156 222.8C534.991 221.965 536.123 221.496 537.304 221.496H552.684C553.865 221.496 554.998 221.965 555.833 222.8C556.668 223.635 557.137 224.768 557.137 225.948C557.137 227.129 556.668 228.262 555.833 229.097C554.998 229.932 553.865 230.401 552.684 230.401Z" fill="white"/>
<path d="M520.302 230.401H504.921C503.74 230.401 502.608 229.932 501.773 229.097C500.938 228.262 500.469 227.129 500.469 225.948C500.469 224.768 500.938 223.635 501.773 222.8C502.608 221.965 503.74 221.496 504.921 221.496H520.302C521.482 221.496 522.615 221.965 523.45 222.8C524.285 223.635 524.754 224.768 524.754 225.948C524.754 227.129 524.285 228.262 523.45 229.097C522.615 229.932 521.482 230.401 520.302 230.401Z" fill="white"/>
<path d="M384.714 212.589C407.515 212.589 425.999 194.105 425.999 171.304C425.999 148.503 407.515 130.02 384.714 130.02C361.914 130.02 343.43 148.503 343.43 171.304C343.43 194.105 361.914 212.589 384.714 212.589Z" fill="#CACACA"/>
<path d="M384.713 221.901C381.494 221.897 378.407 220.617 376.131 218.341C373.854 216.064 372.574 212.978 372.57 209.759V132.856C372.569 131.26 372.882 129.68 373.492 128.206C374.101 126.731 374.996 125.392 376.123 124.263C377.251 123.135 378.59 122.239 380.064 121.628C381.538 121.018 383.117 120.703 384.713 120.703C386.308 120.703 387.888 121.018 389.362 121.628C390.836 122.239 392.175 123.135 393.302 124.263C394.43 125.392 395.324 126.731 395.934 128.206C396.544 129.68 396.857 131.26 396.855 132.856V209.759C396.852 212.978 395.571 216.064 393.295 218.341C391.019 220.617 387.932 221.897 384.713 221.901Z" fill="white"/>
<path d="M492.569 140.996H481.236C480.807 140.996 480.395 140.825 480.091 140.522C479.788 140.218 479.617 139.806 479.617 139.377C479.617 138.947 479.788 138.536 480.091 138.232C480.395 137.928 480.807 137.758 481.236 137.758H492.569C492.999 137.758 493.41 137.928 493.714 138.232C494.018 138.536 494.188 138.947 494.188 139.377C494.188 139.806 494.018 140.218 493.714 140.522C493.41 140.825 492.999 140.996 492.569 140.996Z" fill="#E4E4E4"/>
<path d="M510.374 141.402H499.041C498.611 141.402 498.2 141.232 497.896 140.928C497.592 140.624 497.422 140.212 497.422 139.783C497.422 139.354 497.592 138.942 497.896 138.638C498.2 138.335 498.611 138.164 499.041 138.164H510.374C510.803 138.164 511.215 138.335 511.519 138.638C511.822 138.942 511.993 139.354 511.993 139.783C511.993 140.212 511.822 140.624 511.519 140.928C511.215 141.232 510.803 141.402 510.374 141.402Z" fill="#E4E4E4"/>
<path d="M528.186 141.808H516.853C516.424 141.808 516.012 141.638 515.709 141.334C515.405 141.031 515.234 140.619 515.234 140.189C515.234 139.76 515.405 139.348 515.709 139.045C516.012 138.741 516.424 138.57 516.853 138.57H528.186C528.616 138.57 529.028 138.741 529.331 139.045C529.635 139.348 529.805 139.76 529.805 140.189C529.805 140.619 529.635 141.031 529.331 141.334C529.028 141.638 528.616 141.808 528.186 141.808Z" fill="#E4E4E4"/>
<path d="M545.991 142.211H534.658C534.229 142.211 533.817 142.04 533.513 141.736C533.21 141.433 533.039 141.021 533.039 140.592C533.039 140.162 533.21 139.75 533.513 139.447C533.817 139.143 534.229 138.973 534.658 138.973H545.991C546.421 138.973 546.832 139.143 547.136 139.447C547.44 139.75 547.61 140.162 547.61 140.592C547.61 141.021 547.44 141.433 547.136 141.736C546.832 142.04 546.421 142.211 545.991 142.211Z" fill="#E4E4E4"/>
<path d="M267.335 300.42C267.334 302.425 267.732 304.409 268.504 306.259C269.277 308.109 270.409 309.786 271.836 311.195H265.149C263.176 311.195 261.222 310.806 259.399 310.051C257.577 309.296 255.92 308.189 254.525 306.794C253.13 305.399 252.024 303.743 251.269 301.92C250.514 300.098 250.125 298.144 250.125 296.171V52.6057C250.125 50.6327 250.514 48.6791 251.269 46.8564C252.024 45.0336 253.13 43.3774 254.525 41.9824C255.92 40.5873 257.577 39.4806 259.399 38.7256C261.222 37.9706 263.176 37.582 265.149 37.582H274.88C272.585 38.9168 270.68 40.8303 269.356 43.1316C268.032 45.4328 267.335 48.0411 267.335 50.696L267.335 300.42Z" fill="#CACACA"/>
<path d="M760.773 351.998H1.21889C0.963741 351.997 0.7193 351.895 0.539143 351.715C0.358986 351.534 0.257812 351.289 0.257812 351.034C0.257812 350.779 0.358986 350.534 0.539143 350.354C0.7193 350.173 0.963741 350.071 1.21889 350.07H760.773C761.028 350.07 761.273 350.172 761.454 350.353C761.635 350.533 761.736 350.779 761.736 351.034C761.736 351.29 761.635 351.535 761.454 351.716C761.273 351.897 761.028 351.998 760.773 351.998Z" fill="#CACACA"/>
<path d="M265.712 108.754C260.596 107.321 255.461 105.993 250.307 104.771C232.683 100.564 214.815 97.4494 196.807 95.4454C193.755 94.6416 190.508 95.0761 187.775 96.6544C185.041 98.2327 183.041 100.827 182.211 103.872L173.218 137.062C172.392 140.121 172.814 143.383 174.391 146.132C175.968 148.88 178.571 150.891 181.629 151.722L181.75 151.746C193.65 153.098 205.663 154.976 217.611 157.373C218.68 157.583 219.74 157.802 220.809 158.028C224.638 158.822 228.456 159.669 232.263 160.57C233.931 160.959 235.59 161.363 237.258 161.776C241.742 162.893 246.23 164.083 250.72 165.346C255.715 166.755 260.712 168.258 265.712 169.855C266.255 170.017 266.797 170.187 267.331 170.365V109.215C266.797 109.053 266.255 108.899 265.712 108.754Z" fill="white"/>
<path d="M265.712 108.754C260.596 107.321 255.461 105.993 250.307 104.771C232.683 100.564 214.815 97.4494 196.807 95.4454C193.755 94.6416 190.508 95.0761 187.775 96.6544C185.041 98.2327 183.041 100.827 182.211 103.872L173.218 137.062C172.392 140.121 172.814 143.383 174.391 146.132C175.968 148.88 178.571 150.891 181.629 151.722L181.75 151.746C193.65 153.098 205.663 154.976 217.611 157.373C218.68 157.583 219.74 157.802 220.809 158.028C224.638 158.822 228.456 159.669 232.263 160.57C233.931 160.959 235.59 161.363 237.258 161.776C241.742 162.893 246.23 164.083 250.72 165.346C255.715 166.755 260.712 168.258 265.712 169.855C266.255 170.017 266.797 170.187 267.331 170.365V168.657C266.789 168.487 266.246 168.317 265.712 168.147C261.114 166.682 256.522 165.303 251.934 164.01C250.218 163.517 248.502 163.039 246.786 162.578C243.694 161.744 240.609 160.945 237.533 160.181C235.898 159.769 234.266 159.372 232.636 158.992C232.514 158.959 232.385 158.935 232.263 158.902C229.486 158.247 226.704 157.621 223.917 157.024C222.849 156.798 221.78 156.571 220.712 156.353C207.824 153.681 194.84 151.601 181.993 150.144C179.365 149.412 177.133 147.672 175.782 145.302C174.431 142.932 174.071 140.125 174.78 137.491L183.774 104.293C184.493 101.652 186.231 99.4037 188.606 98.0424C190.982 96.681 193.8 96.3177 196.443 97.032L196.564 97.0482C214.344 99.0225 231.986 102.083 249.392 106.212C249.57 106.26 249.749 106.301 249.926 106.341C255.205 107.604 260.467 108.97 265.712 110.437C266.246 110.583 266.788 110.737 267.331 110.899V109.215C266.797 109.053 266.255 108.899 265.712 108.754Z" fill="#05BC6C"/>
<path d="M267.336 110.059V169.51C266.794 169.331 266.26 169.161 265.717 168.991C260.933 167.461 256.133 166.021 251.316 164.669C246.693 163.357 242.055 162.124 237.401 160.969C235.749 160.565 234.106 160.168 232.454 159.779C232.39 159.488 232.325 159.196 232.268 158.905C231.969 157.513 231.734 156.104 231.556 154.688C231.475 154.145 231.418 153.603 231.362 153.052C230.51 144.38 231.697 135.628 234.828 127.496C237.96 119.363 242.949 112.076 249.397 106.214C249.632 105.988 249.875 105.769 250.118 105.559C255.347 106.805 260.547 108.154 265.717 109.606C266.26 109.744 266.802 109.898 267.336 110.059Z" fill="#05BC6C"/>
<path d="M213.571 134.4L191.058 131.745C190.266 131.652 189.464 131.715 188.696 131.932C187.929 132.148 187.212 132.514 186.585 133.008C185.959 133.502 185.436 134.114 185.047 134.81C184.657 135.506 184.409 136.272 184.315 137.064C184.222 137.856 184.285 138.658 184.502 139.426C184.719 140.193 185.084 140.91 185.578 141.537C186.072 142.163 186.684 142.686 187.38 143.075C188.076 143.465 188.842 143.713 189.634 143.807L212.146 146.462C213.743 146.647 215.349 146.19 216.61 145.193C217.872 144.196 218.686 142.739 218.875 141.142C219.063 139.545 218.611 137.938 217.616 136.674C216.622 135.411 215.167 134.593 213.571 134.4ZM217.278 140.957C217.137 142.129 216.537 143.197 215.61 143.927C214.683 144.657 213.504 144.989 212.332 144.851L189.82 142.196C188.651 142.053 187.586 141.454 186.858 140.528C186.13 139.602 185.799 138.425 185.938 137.256C186.076 136.086 186.672 135.019 187.595 134.288C188.519 133.557 189.694 133.222 190.864 133.356L213.376 136.011C214.548 136.153 215.616 136.753 216.347 137.679C217.078 138.606 217.413 139.785 217.278 140.957L217.278 140.957Z" fill="#05BC6C"/>
<path d="M267.337 123.982V152.177C266.817 152.489 266.276 152.765 265.718 153.003C262.812 154.3 259.591 154.72 256.45 154.211C253.309 153.702 250.385 152.286 248.038 150.137C247.812 149.935 247.585 149.716 247.366 149.49C247.148 149.271 246.938 149.036 246.735 148.802C244.292 145.995 242.879 142.438 242.732 138.719C242.584 135.001 243.71 131.343 245.924 128.351C248.138 125.36 251.306 123.213 254.906 122.267C258.505 121.321 262.319 121.632 265.718 123.148C266.272 123.397 266.813 123.675 267.337 123.982Z" fill="white"/>
<path d="M265.713 144.39C259.343 145.718 253.015 147.189 246.731 148.802C244.383 149.401 242.044 150.022 239.712 150.664C236.928 151.433 234.143 152.229 231.358 153.052C227.804 154.105 224.256 155.205 220.713 156.355C219.685 156.695 218.649 157.035 217.613 157.375C207.761 160.662 197.974 164.304 188.349 168.279C185.286 169.044 182.65 170.989 181.014 173.689C179.378 176.39 178.875 179.627 179.614 182.696L187.734 216.113C188.485 219.19 190.427 221.844 193.133 223.493C195.839 225.141 199.088 225.648 202.167 224.904L202.281 224.863C218.109 218.371 234.309 212.824 250.794 208.252C255.716 206.884 260.689 205.594 265.713 204.383C266.256 204.253 266.79 204.124 267.332 204.002V144.059C266.79 144.156 266.256 144.269 265.713 144.39Z" fill="white"/>
<path d="M265.713 144.39C259.343 145.718 253.015 147.189 246.731 148.802C244.383 149.401 242.044 150.022 239.712 150.664C236.928 151.433 234.143 152.229 231.358 153.052C227.804 154.105 224.256 155.205 220.713 156.355C219.685 156.695 218.649 157.035 217.613 157.375C207.761 160.662 197.974 164.304 188.349 168.279C185.286 169.044 182.65 170.989 181.014 173.689C179.378 176.39 178.875 179.627 179.614 182.696L187.734 216.113C188.485 219.19 190.427 221.844 193.133 223.493C195.839 225.141 199.088 225.648 202.167 224.904L202.281 224.863C218.109 218.371 234.309 212.824 250.794 208.252C255.716 206.884 260.689 205.594 265.713 204.383C266.256 204.253 266.79 204.124 267.332 204.002V202.335C266.79 202.464 266.256 202.594 265.713 202.723C265.309 202.821 264.896 202.918 264.491 203.015C259.731 204.172 255.023 205.397 250.365 206.69C250.244 206.722 250.114 206.763 249.993 206.795C233.59 211.357 217.472 216.885 201.722 223.35C199.066 223.972 196.272 223.521 193.946 222.095C191.621 220.668 189.953 218.382 189.304 215.732L181.193 182.316C180.549 179.655 180.987 176.847 182.411 174.509C183.834 172.17 186.127 170.492 188.786 169.841L188.907 169.801C199.391 165.462 210.06 161.528 220.81 158.031C221.846 157.691 222.883 157.359 223.919 157.027C226.461 156.225 229.005 155.446 231.552 154.687C234.24 153.886 236.925 153.114 239.607 152.372C239.785 152.324 239.963 152.275 240.141 152.226C242.764 151.506 245.395 150.81 248.034 150.138C253.887 148.648 259.78 147.28 265.713 146.034C266.248 145.92 266.79 145.807 267.332 145.702V144.059C266.79 144.156 266.256 144.269 265.713 144.39Z" fill="#05BC6C"/>
<path d="M267.335 144.875V203.167C266.801 203.289 266.259 203.41 265.716 203.54C260.649 204.77 255.603 206.082 250.579 207.474C250.376 207.247 250.182 207.021 249.996 206.794C244.751 200.654 240.896 193.451 238.698 185.68C236.5 177.91 236.01 169.755 237.262 161.777C237.303 161.51 237.352 161.235 237.4 160.968C237.441 160.709 237.489 160.442 237.538 160.183C238.038 157.532 238.73 154.921 239.61 152.371C239.715 152.063 239.82 151.756 239.934 151.448C242.403 150.768 244.88 150.115 247.365 149.489C253.444 147.919 259.562 146.491 265.716 145.207C266.251 145.085 266.793 144.98 267.335 144.875Z" fill="#05BC6C"/>
<path d="M229.719 197.677C229.112 196.186 227.939 194.997 226.456 194.37C224.973 193.744 223.303 193.73 221.81 194.334L200.803 202.85C199.314 203.457 198.126 204.631 197.501 206.113C196.876 207.595 196.864 209.265 197.469 210.755C198.074 212.246 199.245 213.436 200.727 214.063C202.208 214.691 203.878 214.705 205.369 214.102L226.376 205.586C227.866 204.978 229.054 203.804 229.68 202.322C230.307 200.84 230.321 199.17 229.719 197.677ZM225.769 204.08L204.762 212.605C203.668 213.047 202.442 213.037 201.355 212.577C200.268 212.116 199.408 211.243 198.964 210.149C198.52 209.056 198.528 207.83 198.987 206.742C199.445 205.654 200.317 204.793 201.411 204.348L222.417 195.832C223.511 195.387 224.737 195.395 225.825 195.855C226.912 196.314 227.773 197.186 228.218 198.28C228.662 199.374 228.654 200.6 228.195 201.688C227.735 202.775 226.863 203.636 225.769 204.08Z" fill="#05BC6C"/>
<path d="M267.332 159.761V191.501C266.798 191.637 266.257 191.745 265.713 191.825C262.463 192.281 259.151 191.748 256.208 190.296C253.264 188.845 250.826 186.541 249.209 183.686C247.592 180.83 246.872 177.554 247.141 174.283C247.411 171.013 248.658 167.899 250.721 165.346C250.907 165.111 251.101 164.885 251.312 164.666C251.506 164.44 251.717 164.221 251.935 164.011C253.725 162.24 255.9 160.907 258.289 160.115C260.679 159.323 263.22 159.094 265.713 159.445C266.258 159.518 266.799 159.624 267.332 159.761Z" fill="white"/>
<path d="M265.711 104.536V185.333C266.254 185.155 266.796 184.985 267.33 184.823V105.273C266.788 105.022 266.254 104.779 265.711 104.536ZM265.711 104.536V185.333C266.254 185.155 266.796 184.985 267.33 184.823V105.273C266.788 105.022 266.254 104.779 265.711 104.536ZM265.711 104.536V185.333C266.254 185.155 266.796 184.985 267.33 184.823V105.273C266.788 105.022 266.254 104.779 265.711 104.536ZM265.711 110.437V203.539C266.254 203.409 266.796 203.288 267.33 203.166V110.899C266.788 110.737 266.245 110.583 265.711 110.437V110.437ZM265.711 110.437V203.539C266.254 203.409 266.796 203.288 267.33 203.166V110.899C266.788 110.737 266.245 110.583 265.711 110.437V110.437ZM265.711 110.437V203.539C266.254 203.409 266.796 203.288 267.33 203.166V110.899C266.788 110.737 266.245 110.583 265.711 110.437V110.437ZM265.711 110.437V203.539C266.254 203.409 266.796 203.288 267.33 203.166V110.899C266.788 110.737 266.245 110.583 265.711 110.437V110.437ZM265.711 110.437V204.381C266.254 204.251 266.788 204.121 267.33 204V110.899C266.788 110.737 266.245 110.583 265.711 110.437V110.437ZM618.858 33.8906H282.516C278.062 33.898 273.791 35.6709 270.641 38.821C267.491 41.971 265.718 46.2412 265.711 50.696V300.42C265.719 304.874 267.492 309.143 270.642 312.292C273.792 315.441 278.062 317.212 282.516 317.217H618.858C623.311 317.212 627.58 315.441 630.729 312.292C633.878 309.143 635.649 304.873 635.655 300.42V50.696C635.651 46.2415 633.88 41.9703 630.731 38.8198C627.582 35.6692 623.312 33.8965 618.858 33.8906V33.8906ZM634.036 300.42C634.032 304.444 632.431 308.303 629.586 311.148C626.74 313.994 622.882 315.594 618.858 315.598H282.516C278.491 315.595 274.632 313.995 271.785 311.149C268.938 308.304 267.336 304.445 267.33 300.42V50.696C267.336 46.6701 268.938 42.8109 271.785 39.9643C274.631 37.1176 278.491 35.5157 282.516 35.5097H618.858C622.883 35.5143 626.742 37.116 629.588 39.9632C632.434 42.8104 634.033 46.6705 634.036 50.696V300.42ZM265.711 110.437V202.721C266.254 202.592 266.788 202.462 267.33 202.332V110.899C266.788 110.737 266.245 110.583 265.711 110.437V110.437ZM265.711 110.437V203.539C266.254 203.409 266.796 203.288 267.33 203.166V110.899C266.788 110.737 266.245 110.583 265.711 110.437V110.437ZM265.711 110.437V203.539C266.254 203.409 266.796 203.288 267.33 203.166V110.899C266.788 110.737 266.245 110.583 265.711 110.437V110.437ZM265.711 110.437V203.539C266.254 203.409 266.796 203.288 267.33 203.166V110.899C266.788 110.737 266.245 110.583 265.711 110.437V110.437ZM265.711 104.536V185.333C266.254 185.155 266.796 184.985 267.33 184.823V105.273C266.788 105.022 266.254 104.779 265.711 104.536ZM265.711 104.536V185.333C266.254 185.155 266.796 184.985 267.33 184.823V105.273C266.788 105.022 266.254 104.779 265.711 104.536Z" fill="#2F2E41"/>
<path d="M193.605 190.023C193.288 189.283 192.812 188.622 192.211 188.086C191.611 187.549 190.9 187.151 190.129 186.92C189.358 186.688 188.545 186.628 187.749 186.744C186.952 186.86 186.19 187.15 185.518 187.592L169.999 175.668L169.266 185.812L184.115 195.58C184.933 196.661 186.119 197.404 187.449 197.669C188.778 197.934 190.158 197.702 191.328 197.017C192.498 196.332 193.376 195.242 193.795 193.953C194.215 192.664 194.147 191.266 193.605 190.023V190.023Z" fill="#FFB6B6"/>
<path d="M131.072 118.062L125.966 115.648C125.966 115.648 117.739 117.962 121.736 128.841L145.923 173.901L175.453 191.19L184.659 183.032L155.108 159.65L131.072 118.062Z" fill="#3F3D56"/>
</g>
<defs>
<clipPath id="clip0_403_2422">
<rect width="761.482" height="351.295" fill="white" transform="translate(0.257812 0.703125)"/>
</clipPath>
</defs>
</svg>
