<svg width="400" height="407" viewBox="0 0 400 407" fill="none" xmlns="http://www.w3.org/2000/svg">
<g clip-path="url(#clip0_403_2537)">
<path d="M302.328 216.134C316.615 207.299 335.655 205.453 349.417 215.175C332.235 220.846 317.504 232.76 307.831 248.809C304.121 255.012 300.606 262.321 294.018 264.634C289.919 266.074 285.344 265.186 281.452 263.206C277.56 261.225 274.223 258.232 270.933 255.273L269.883 255.016C277.832 239.667 288.04 224.969 302.328 216.134Z" fill="#F0F0F0"/>
<path d="M349.263 215.504C335.602 214.408 321.962 217.891 310.279 225.459C307.737 227.041 305.447 229.036 303.492 231.372C301.658 233.713 300.45 236.53 299.993 239.531C299.515 242.32 299.331 245.232 298.219 247.85C297.631 249.181 296.784 250.365 295.733 251.326C294.682 252.286 293.45 253.001 292.12 253.423C288.83 254.566 285.347 254.391 281.948 254.095C278.173 253.766 274.257 253.361 270.643 254.846C270.205 255.026 269.967 254.297 270.404 254.117C276.692 251.533 283.437 254.451 289.895 253.222C292.908 252.648 295.776 251.111 297.262 248.162C298.562 245.584 298.754 242.582 299.216 239.753C299.62 236.819 300.698 234.033 302.356 231.641C304.191 229.207 306.405 227.122 308.903 225.473C314.469 221.668 320.567 218.811 326.973 217.008C334.274 214.908 341.86 214.143 349.404 214.747C349.871 214.785 349.727 215.541 349.263 215.504L349.263 215.504Z" fill="white"/>
<path d="M313.907 222.787C312.973 220.543 312.823 218.02 313.485 215.67C314.147 213.319 315.578 211.294 317.522 209.956C317.916 209.686 318.331 210.322 317.936 210.591C316.123 211.834 314.791 213.72 314.178 215.91C313.566 218.1 313.714 220.45 314.596 222.535C314.788 222.988 314.097 223.238 313.907 222.787H313.907Z" fill="white"/>
<path d="M300.057 238.084C304.462 239.941 309.367 239.976 313.794 238.18C314.232 238.001 314.471 238.73 314.033 238.908C309.423 240.768 304.318 240.722 299.739 238.778C299.303 238.592 299.623 237.899 300.057 238.084Z" fill="white"/>
<path d="M334.136 215.921C334.326 216.869 334.737 217.752 335.33 218.491C335.923 219.23 336.681 219.802 337.535 220.155C337.973 220.335 337.652 221.028 337.216 220.849C336.275 220.455 335.439 219.822 334.782 219.007C334.125 218.192 333.666 217.219 333.447 216.174C333.418 216.077 333.426 215.972 333.467 215.881C333.509 215.79 333.582 215.719 333.672 215.683C333.763 215.65 333.863 215.656 333.95 215.701C334.037 215.745 334.104 215.824 334.136 215.921Z" fill="white"/>
<path d="M355.121 274.118C354.844 274.014 354.567 273.91 354.286 273.809C350.558 272.432 346.731 271.378 342.842 270.656C342.542 270.595 342.238 270.538 341.937 270.486C332.55 268.853 322.958 269.076 313.648 271.145C309.944 271.972 306.305 273.095 302.762 274.506C297.87 276.454 292.712 278.978 287.646 279.1C287.117 279.119 286.588 279.103 286.061 279.053L269.667 256.391C269.654 256.319 269.636 256.252 269.623 256.18L268.93 255.307C269.108 255.221 269.294 255.135 269.472 255.049C269.575 254.999 269.681 254.953 269.784 254.903C269.854 254.871 269.924 254.839 269.986 254.806C270.009 254.795 270.032 254.785 270.05 254.778C270.112 254.745 270.172 254.721 270.228 254.691C271.268 254.211 272.313 253.738 273.363 253.271C273.368 253.267 273.368 253.267 273.377 253.268C281.385 249.734 289.743 246.876 298.246 245.451C298.502 245.408 298.762 245.361 299.026 245.328C302.862 244.708 306.739 244.42 310.62 244.468C312.744 244.501 314.866 244.648 316.976 244.909C322.429 245.592 327.745 247.178 332.731 249.608C342.671 254.453 351.033 262.606 354.838 273.298C354.935 273.571 355.029 273.84 355.121 274.118Z" fill="#F0F0F0"/>
<path d="M354.815 274.286C344.531 264.715 331.657 258.814 318.02 257.419C315.089 257.064 312.124 257.2 309.233 257.821C306.436 258.522 303.867 260.002 301.793 262.108C299.823 264.03 298.018 266.238 295.64 267.621C294.412 268.309 293.061 268.716 291.675 268.813C290.289 268.911 288.899 268.698 287.596 268.188C284.318 267.006 281.637 264.65 279.092 262.249C276.265 259.584 273.369 256.768 269.638 255.653C269.185 255.518 269.41 254.784 269.862 254.919C276.354 256.858 280.077 263.482 285.934 266.611C288.666 268.071 291.832 268.669 294.697 267.261C297.203 266.03 299.067 263.755 301.046 261.79C303.04 259.705 305.487 258.167 308.172 257.312C311.024 256.537 313.979 256.281 316.912 256.555C323.524 257.06 330.02 258.66 336.161 261.299C343.186 264.269 349.679 268.487 355.359 273.772C355.71 274.099 355.164 274.611 354.815 274.286H354.815Z" fill="white"/>
<path d="M322.433 257.596C322.964 255.209 324.282 253.099 326.149 251.644C328.016 250.189 330.312 249.482 332.626 249.652C332.72 249.659 332.808 249.706 332.871 249.78C332.933 249.855 332.966 249.953 332.962 250.053C332.958 250.153 332.918 250.247 332.849 250.316C332.78 250.385 332.689 250.423 332.594 250.422C330.44 250.261 328.301 250.919 326.565 252.278C324.829 253.636 323.61 255.607 323.127 257.833C323.021 258.316 322.328 258.077 322.433 257.596V257.596Z" fill="white"/>
<path d="M302.671 260.995C305.13 265.282 309.027 268.431 313.585 269.815C314.036 269.952 313.812 270.686 313.361 270.549C308.62 269.1 304.571 265.813 302.022 261.346C301.779 260.92 302.43 260.571 302.671 260.995Z" fill="white"/>
<path d="M342.495 264.989C342.107 265.868 341.932 266.834 341.985 267.802C342.037 268.769 342.317 269.708 342.797 270.534C343.045 270.956 342.394 271.305 342.148 270.885C341.621 269.971 341.314 268.933 341.253 267.864C341.193 266.795 341.381 265.727 341.801 264.752C341.833 264.657 341.899 264.578 341.984 264.532C342.069 264.486 342.168 264.476 342.26 264.504C342.352 264.536 342.428 264.605 342.472 264.695C342.516 264.786 342.524 264.892 342.495 264.989Z" fill="white"/>
<path d="M24.1284 354.423C25.8047 337.014 35.6213 319.667 51.1633 313.648C45.3636 331.664 45.7781 351.268 52.3334 368.992C54.885 375.817 58.3951 383.128 56.2777 390.118C54.9602 394.467 51.5843 397.85 47.7765 400.006C43.9684 402.161 39.7147 403.246 35.514 404.31L34.6986 405.056C27.6608 389.216 22.4521 371.833 24.1284 354.423Z" fill="#F0F0F0"/>
<path d="M51.3234 313.972C42.4308 324.991 37.0482 338.692 35.9402 353.13C35.6495 356.233 35.8233 359.366 36.4552 362.412C37.1615 365.359 38.6012 368.052 40.6247 370.211C42.4731 372.264 44.5889 374.138 45.933 376.631C46.6032 377.918 47.0084 379.34 47.1223 380.804C47.2362 382.268 47.0561 383.741 46.5938 385.126C45.5268 388.609 43.3397 391.479 41.1086 394.208C38.6314 397.237 36.0129 400.342 35.0163 404.304C34.8955 404.784 34.198 404.557 34.3186 404.078C36.0526 397.185 42.259 393.146 45.1279 386.907C46.4666 383.996 46.9835 380.64 45.6076 377.633C44.4045 375.003 42.2243 373.068 40.3357 371.006C38.3325 368.93 36.8405 366.367 35.9901 363.541C35.2135 360.539 34.9258 357.418 35.1394 354.314C35.5149 347.316 36.9286 340.425 39.3288 333.892C42.0291 326.419 45.9185 319.49 50.8286 313.405C51.1327 313.028 51.6255 313.598 51.3234 313.972Z" fill="white"/>
<path d="M36.0361 348.459C33.7703 347.934 31.7548 346.574 30.3497 344.623C28.9447 342.671 28.2414 340.255 28.3656 337.806C28.3718 337.707 28.4142 337.613 28.484 337.546C28.5538 337.479 28.6456 337.443 28.74 337.445C28.8344 337.448 28.9242 337.49 28.9904 337.561C29.0566 337.632 29.0941 337.728 29.095 337.827C28.9754 340.108 29.6307 342.358 30.9426 344.173C32.2545 345.987 34.1367 347.246 36.2494 347.722C36.7084 347.826 36.4925 348.563 36.0361 348.459Z" fill="white"/>
<path d="M39.5597 369.3C43.5759 366.635 46.4944 362.467 47.7331 357.627C47.8555 357.148 48.553 357.374 48.4307 357.853C47.1328 362.886 44.0873 367.217 39.9022 369.981C39.5031 370.244 39.1627 369.562 39.5596 369.3H39.5597Z" fill="white"/>
<path d="M42.7186 327.134C43.5552 327.531 44.4719 327.701 45.3863 327.631C46.3007 327.56 47.1841 327.25 47.9573 326.729C48.353 326.461 48.693 327.144 48.2998 327.41C47.4431 327.982 46.467 328.322 45.4569 328.403C44.4468 328.483 43.4334 328.301 42.5053 327.872C42.4147 327.839 42.3391 327.771 42.2941 327.682C42.2492 327.592 42.2381 327.488 42.2631 327.39C42.2918 327.293 42.3558 327.211 42.441 327.163C42.5263 327.115 42.6261 327.105 42.7186 327.134Z" fill="white"/>
<path d="M99.5533 343.533C99.3107 343.708 99.0682 343.883 98.8254 344.064C95.5755 346.435 92.5131 349.081 89.6685 351.976C89.4452 352.196 89.222 352.423 89.0052 352.65C82.2221 359.702 76.7364 368.024 72.8269 377.193C71.2744 380.844 69.9868 384.614 68.9753 388.47C67.5786 393.797 66.4651 399.689 63.5709 404.088C63.2738 404.55 62.9499 404.992 62.6011 405.413L35.6219 406.048C35.5599 406.017 35.4978 405.992 35.4355 405.961L34.3594 406.039C34.3984 405.836 34.443 405.627 34.482 405.424C34.5042 405.306 34.5324 405.188 34.5546 405.071C34.5713 404.992 34.5883 404.914 34.5991 404.842C34.6045 404.816 34.6103 404.789 34.6159 404.77C34.6267 404.698 34.644 404.632 34.6549 404.567C34.9012 403.396 35.1556 402.224 35.4183 401.052C35.4182 401.046 35.4182 401.046 35.4241 401.039C37.4471 392.117 40.1925 383.295 44.117 375.194C44.2352 374.95 44.3529 374.7 44.4833 374.456C46.2715 370.815 48.3382 367.334 50.6628 364.049C51.9411 362.254 53.3045 360.529 54.7478 358.88C58.4848 354.628 62.8312 351.023 67.6277 348.198C77.1903 342.569 88.3493 340.235 98.7601 343.291C99.0264 343.37 99.2869 343.448 99.5533 343.533Z" fill="#F0F0F0"/>
<path d="M99.4995 343.897C86.1244 347.035 74.0243 354.548 64.9181 365.37C62.9186 367.663 61.2734 370.275 60.0432 373.11C58.9292 375.912 58.5453 378.978 58.9313 381.99C59.2379 384.807 59.8599 387.65 59.5137 390.496C59.316 391.95 58.8298 393.343 58.0871 394.584C57.3443 395.826 56.3617 396.887 55.2038 397.699C52.3683 399.801 48.9875 400.7 45.6525 401.459C41.9497 402.3 38.0909 403.113 35.039 405.642C34.6692 405.948 34.2411 405.323 34.6103 405.017C39.9202 400.617 47.1753 401.344 53.0191 398.188C55.7459 396.716 58.0695 394.365 58.6836 391.088C59.2206 388.222 58.5815 385.29 58.2478 382.441C57.8305 379.509 58.0987 376.513 59.029 373.715C60.1187 370.823 61.6659 368.149 63.6044 365.806C67.8889 360.458 72.9421 355.855 78.5789 352.167C84.9901 347.919 92.0413 344.863 99.4273 343.129C99.8845 343.022 99.9537 343.791 99.4995 343.897H99.4995Z" fill="white"/>
<path d="M67.6602 361.704C66.1503 359.842 65.3154 357.474 65.3048 355.021C65.2942 352.569 66.1085 350.192 67.6022 348.316C67.9057 347.937 68.4764 348.418 68.1725 348.797C66.7784 350.542 66.0201 352.755 66.0344 355.039C66.0487 357.323 66.8347 359.526 68.2505 361.251C68.5577 361.626 67.9657 362.077 67.6602 361.704Z" fill="white"/>
<path d="M58.6004 380.584C63.325 381.012 68.0287 379.542 71.7736 376.467C72.1444 376.162 72.5726 376.786 72.2022 377.091C68.2996 380.283 63.4017 381.803 58.4861 381.346C58.0176 381.302 58.1344 380.54 58.6004 380.584Z" fill="white"/>
<path d="M85.1397 348.93C85.582 349.779 86.2167 350.498 86.9871 351.024C87.7574 351.55 88.6392 351.865 89.5532 351.941C90.022 351.979 89.9046 352.74 89.4389 352.703C88.4295 352.614 87.456 352.264 86.6037 351.686C85.7514 351.107 85.0461 350.316 84.5494 349.383C84.4956 349.299 84.474 349.197 84.489 349.097C84.504 348.997 84.5545 348.906 84.6302 348.844C84.7087 348.785 84.8062 348.76 84.9016 348.776C84.997 348.792 85.0825 348.847 85.1397 348.93Z" fill="white"/>
<path d="M232.06 47.8514L86.8277 32.748C85.1453 32.5634 83.5194 32.0022 82.0579 31.1018C80.5502 30.1741 79.2137 28.9656 78.1132 27.5346C75.7473 24.4756 74.4494 20.649 74.4375 16.6976C74.4361 15.7351 74.5171 14.7745 74.6795 13.8275C74.835 12.9204 75.0727 12.0312 75.3894 11.1723C75.6959 10.3412 76.0821 9.5455 76.542 8.79763C76.9944 8.06284 77.5205 7.38191 78.1114 6.76667C78.6861 6.16735 79.323 5.63867 80.0101 5.19072C81.3477 4.31887 82.8598 3.7903 84.4253 3.64731C85.2255 3.57477 86.0308 3.5966 86.8265 3.71241L232.06 24.4829C233.169 24.657 234.218 25.1218 235.113 25.835C236.094 26.6127 236.932 27.5726 237.587 28.6679C238.316 29.8743 238.875 31.1873 239.244 32.5651C239.647 34.049 239.851 35.5852 239.85 37.1289C239.851 37.8811 239.801 38.6325 239.702 39.3773C239.608 40.0871 239.463 40.7882 239.268 41.4747C239.082 42.1282 238.845 42.764 238.559 43.3755C238.286 43.9594 237.961 44.5146 237.588 45.0334C237.24 45.5198 236.842 45.9644 236.403 46.3594C235.995 46.7253 235.545 47.0359 235.065 47.2838C234.132 47.7647 233.092 47.9611 232.06 47.8507L232.06 47.8514Z" fill="#E4E4E4"/>
<path d="M167.509 41.1388L86.8277 32.748C85.1453 32.5634 83.5193 32.0022 82.0579 31.1018C80.5502 30.1742 79.2137 28.9656 78.1132 27.5346C75.7473 24.4756 74.4494 20.649 74.4375 16.6976C74.4361 15.7351 74.5171 14.7745 74.6795 13.8275C74.835 12.9204 75.0727 12.0313 75.3894 11.1723C75.6959 10.3412 76.0821 9.5455 76.542 8.79763C76.9944 8.06284 77.5205 7.38191 78.1114 6.76667C78.6861 6.16735 79.323 5.63867 80.0101 5.19072C81.3477 4.31887 82.8598 3.7903 84.4253 3.64731C85.2255 3.57477 86.0308 3.5966 86.8265 3.71241L167.507 15.2531L167.509 41.1388Z" fill="#05BC6C"/>
<path d="M167.301 43.0447C166.928 43.0035 166.569 42.8697 166.255 42.6541C165.922 42.4276 165.633 42.1378 165.401 41.7994C165.149 41.4338 164.954 41.0279 164.822 40.5971C164.681 40.1384 164.609 39.6591 164.609 39.1768V16.4938C164.607 16.0287 164.679 15.5665 164.822 15.1268C164.948 14.7378 165.145 14.3786 165.401 14.069C165.634 13.7841 165.927 13.5611 166.257 13.418C166.589 13.2787 166.95 13.2338 167.304 13.2878C167.677 13.3462 168.033 13.4945 168.344 13.7214C168.674 13.9628 168.961 14.2649 169.19 14.6132C169.439 14.9854 169.632 15.396 169.762 15.8304C169.9 16.2886 169.971 16.7666 169.971 17.2476V39.7476C169.973 40.2124 169.903 40.6744 169.762 41.1146C169.636 41.5077 169.443 41.8724 169.19 42.19C168.959 42.4814 168.669 42.7139 168.342 42.8703C168.015 43.0222 167.657 43.0823 167.301 43.0447Z" fill="#3F3D56"/>
<path d="M38.239 24.4263C38.0953 24.4107 37.9527 24.3848 37.8123 24.3488C37.6686 24.3118 37.5273 24.2648 37.3894 24.2082C37.2475 24.15 37.1094 24.0824 36.9756 24.0057C36.8372 23.9264 36.7036 23.8381 36.5754 23.7415C35.8004 23.1576 35.2488 22.2998 35.0202 21.3232C34.9444 20.9984 34.9061 20.665 34.9063 20.3305V3.29772C34.9052 2.97298 34.9434 2.64942 35.0202 2.33497C35.0923 2.0381 35.2032 1.75329 35.3496 1.48873C35.6367 0.971874 36.064 0.558029 36.576 0.300747C36.8333 0.170612 37.1074 0.0813394 37.3894 0.035812C37.6708 -0.00915561 37.9569 -0.0117911 38.239 0.027995C38.5305 0.0693533 38.8156 0.151217 39.0868 0.271456C39.3739 0.398762 39.6452 0.562717 39.8946 0.759668L52.7613 10.8657C52.9913 11.0466 53.2019 11.2535 53.3894 11.4828C53.7607 11.9367 54.036 12.4694 54.1965 13.045C54.277 13.3337 54.3276 13.6308 54.3474 13.931C54.3474 13.9549 54.3488 13.9788 54.3517 14.0026C54.3546 14.0264 54.3546 14.0504 54.3517 14.0742V14.2181C54.3527 14.5351 54.3163 14.8511 54.2433 15.1587C54.1743 15.4486 54.0687 15.7273 53.9293 15.9873C53.7939 16.2394 53.6249 16.4696 53.4275 16.6708C53.2301 16.8729 53.0057 17.0431 52.7613 17.176L39.8934 24.1027C39.7652 24.1716 39.6325 24.2306 39.4963 24.2791C39.3619 24.3271 39.2245 24.3648 39.085 24.3918C38.9459 24.4186 38.8051 24.4349 38.6638 24.4406C38.5221 24.4463 38.3802 24.4415 38.239 24.4263Z" fill="#CACACA"/>
<path d="M232.083 122.015L86.8656 124.911C85.221 124.943 83.5908 124.582 82.0964 123.855C80.5981 123.122 79.2561 122.075 78.1517 120.777C76.9914 119.417 76.0809 117.841 75.4666 116.129C74.1465 112.434 74.1465 108.358 75.4666 104.663C76.081 102.951 76.9916 101.374 78.1517 100.014C79.256 98.7148 80.598 97.6663 82.0964 96.9314C83.5906 96.2038 85.2208 95.842 86.8656 95.8729L232.083 98.6479C233.165 98.677 234.22 99.0143 235.136 99.6244C236.114 100.278 236.956 101.136 237.609 102.145C238.344 103.274 238.903 104.521 239.265 105.837C240.073 108.769 240.073 111.883 239.265 114.815C238.903 116.132 238.344 117.379 237.609 118.508C236.956 119.521 236.115 120.381 235.136 121.037C234.22 121.648 233.165 121.985 232.083 122.015Z" fill="#E4E4E4"/>
<path d="M143.624 123.779L86.8656 124.911C85.221 124.943 83.5908 124.582 82.0964 123.855C80.5981 123.122 79.2561 122.075 78.1517 120.777C76.9914 119.417 76.0809 117.841 75.4666 116.129C74.808 114.298 74.4724 112.355 74.4766 110.396C74.476 109.424 74.557 108.454 74.7186 107.496C74.8764 106.561 75.114 105.644 75.4285 104.754C75.7378 103.879 76.1237 103.036 76.581 102.237C77.0351 101.443 77.5604 100.698 78.1498 100.011C78.7235 99.3405 79.3596 98.7327 80.0486 98.197C80.711 97.6828 81.423 97.2442 82.1728 96.8885C83.6471 96.1883 85.2496 95.8416 86.8656 95.8731L143.624 96.9575V123.779Z" fill="#05BC6C"/>
<path d="M144.288 125.478C143.901 125.486 143.517 125.395 143.17 125.211C142.817 125.022 142.505 124.757 142.254 124.434C141.983 124.086 141.773 123.689 141.634 123.262C141.482 122.799 141.405 122.311 141.406 121.821V98.3477C141.405 97.8567 141.482 97.369 141.634 96.9052C141.773 96.4785 141.983 96.0816 142.254 95.7334C142.505 95.4109 142.817 95.1471 143.17 94.9588C143.517 94.7752 143.901 94.6836 144.288 94.6919C144.678 94.7019 145.06 94.8104 145.403 95.0083C145.754 95.2121 146.062 95.4881 146.311 95.82C146.578 96.1751 146.785 96.5764 146.922 97.0061C147.072 97.4694 147.147 97.9558 147.146 98.4453V121.723C147.147 122.213 147.072 122.699 146.922 123.163C146.785 123.592 146.578 123.994 146.311 124.349C146.063 124.682 145.754 124.958 145.403 125.162C145.06 125.36 144.678 125.468 144.288 125.478Z" fill="#3F3D56"/>
<path d="M38.2852 122.612C37.9985 122.616 37.7125 122.578 37.4356 122.499C37.2945 122.459 37.1563 122.409 37.0218 122.348C36.8842 122.286 36.7507 122.215 36.6223 122.133C36.365 121.972 36.1294 121.775 35.9216 121.548C35.716 121.321 35.5394 121.067 35.3964 120.792C35.2513 120.513 35.1406 120.216 35.067 119.907C34.9908 119.588 34.9526 119.26 34.9531 118.931V101.898C34.9526 101.569 34.9908 101.241 35.067 100.922C35.1407 100.613 35.2514 100.316 35.3964 100.038C35.6841 99.4825 36.1077 99.0196 36.6229 98.6973C36.8767 98.5354 37.1504 98.4113 37.4362 98.3282C37.993 98.1689 38.5808 98.1777 39.133 98.3536C39.4173 98.4443 39.6888 98.575 39.9402 98.7422L52.8082 107.253L52.8544 107.284L52.9005 107.316L52.9461 107.348L52.9911 107.382C53.1976 107.54 53.3862 107.722 53.5532 107.926C53.7199 108.129 53.8644 108.351 53.9842 108.588C54.1049 108.828 54.2005 109.081 54.2692 109.344C54.34 109.613 54.3833 109.89 54.3985 110.169V110.407C54.399 110.728 54.3626 111.048 54.2902 111.36C54.2199 111.662 54.1144 111.953 53.9762 112.227C53.8399 112.497 53.6715 112.748 53.475 112.973C53.2764 113.198 53.0506 113.395 52.8033 113.558L39.9402 122.084C39.813 122.168 39.6805 122.244 39.5437 122.31C39.4103 122.374 39.2729 122.429 39.1324 122.473C38.9944 122.517 38.8537 122.551 38.7113 122.574C38.5703 122.597 38.4279 122.61 38.2852 122.612Z" fill="#CACACA"/>
<path d="M232.061 195.936L86.828 216.771C85.2503 217.012 83.6414 216.861 82.1287 216.33C80.6159 215.799 79.241 214.902 78.1128 213.712C76.9454 212.484 76.031 211.015 75.4272 209.395C74.7623 207.61 74.4265 205.706 74.4378 203.787C74.4497 199.836 75.7476 196.009 78.1135 192.949C79.214 191.518 80.5504 190.308 82.0582 189.38C83.5195 188.479 85.1454 187.917 86.828 187.732L232.061 172.569C233.111 172.457 234.17 172.664 235.114 173.165C236.088 173.695 236.935 174.455 237.587 175.386C238.329 176.436 238.89 177.617 239.244 178.873C239.654 180.304 239.858 181.792 239.85 183.287C239.851 184.831 239.647 186.367 239.244 187.851C238.875 189.229 238.317 190.542 237.587 191.749C236.932 192.844 236.094 193.805 235.114 194.583C234.219 195.297 233.169 195.762 232.061 195.936Z" fill="#E4E4E4"/>
<path d="M209.224 199.213L86.8279 216.771C85.2503 217.012 83.6414 216.861 82.1287 216.33C80.6159 215.799 79.241 214.903 78.1128 213.712C76.9454 212.485 76.031 211.015 75.4272 209.396C74.7626 207.611 74.4268 205.708 74.4378 203.79C74.438 202.808 74.519 201.828 74.6797 200.861C75.1605 197.955 76.3425 195.229 78.1116 192.947C78.6854 192.207 79.3209 191.522 80.0104 190.901C80.6694 190.307 81.3804 189.78 82.1339 189.328C82.8616 188.892 83.6292 188.535 84.4249 188.263C85.2052 187.996 86.0101 187.819 86.8261 187.733L209.224 174.953V199.213Z" fill="#05BC6C"/>
<path d="M38.2384 220.469C38.097 220.489 37.9544 220.498 37.8117 220.497C37.6703 220.496 37.5292 220.485 37.3894 220.462C37.1074 220.417 36.8333 220.327 36.576 220.197C36.0636 219.939 35.6363 219.525 35.3496 219.007C35.2032 218.742 35.0923 218.457 35.0202 218.16C34.9437 217.847 34.9055 217.525 34.9063 217.202V200.166C34.9063 199.832 34.9445 199.5 35.0202 199.176C35.2491 198.199 35.801 197.341 36.576 196.757C36.8277 196.566 37.1009 196.409 37.3894 196.29C37.6621 196.177 37.9479 196.104 38.239 196.072C38.5217 196.041 38.8071 196.052 39.0868 196.106C39.3675 196.16 39.6392 196.257 39.8934 196.394L52.7613 203.316L52.8081 203.341L52.8543 203.368L52.8999 203.395L52.9448 203.423C53.14 203.548 53.3199 203.698 53.4805 203.87C53.6405 204.04 53.7806 204.231 53.8979 204.437C54.0178 204.648 54.1146 204.873 54.1867 205.107C54.2618 205.352 54.3122 205.604 54.3369 205.86C54.3402 205.894 54.343 205.928 54.3455 205.962C54.348 205.996 54.35 206.03 54.3517 206.064C54.3517 206.099 54.3529 206.133 54.3554 206.168C54.3578 206.203 54.3578 206.238 54.3554 206.273C54.3554 206.599 54.319 206.923 54.247 207.24C54.1058 207.87 53.8291 208.456 53.4386 208.955C53.2387 209.206 53.0114 209.431 52.7613 209.626L39.8934 219.737C39.7663 219.837 39.6337 219.929 39.4963 220.012C39.3635 220.092 39.2261 220.164 39.085 220.226C38.9479 220.286 38.8072 220.338 38.6638 220.379C38.5241 220.419 38.382 220.449 38.2384 220.469Z" fill="#CACACA"/>
<path d="M208.338 181.786C209.234 181.649 210.147 181.722 211.013 181.999C211.88 182.276 212.678 182.751 213.352 183.389C214.026 184.028 214.56 184.815 214.915 185.695C215.271 186.575 215.439 187.527 215.409 188.483L235.942 196.84L226.639 203.867L208.567 194.854C207.05 194.694 205.642 193.951 204.609 192.767C203.576 191.582 202.99 190.038 202.962 188.427C202.934 186.816 203.466 185.251 204.456 184.027C205.447 182.802 206.828 182.005 208.338 181.786H208.338Z" fill="#FFB6B6"/>
<path d="M286.306 177.684L289.78 184.361C288.941 188.596 286.771 192.406 283.624 195.173C278.306 199.915 250.497 217.577 250.497 217.577L215.391 198.943L221.532 190.315L249.094 200.081L264.643 184.558L286.306 177.684Z" fill="#3F3D56"/>
<path d="M289.49 282.388L285.859 283.111L307.749 405.932L311.379 405.209L289.49 282.388Z" fill="#CACACA"/>
<path d="M253.362 405.208L256.992 405.932L278.881 283.111L275.251 282.387L253.362 405.208Z" fill="#CACACA"/>
<path d="M279.844 288.174C294.975 288.174 307.242 283.949 307.242 278.736C307.242 273.523 294.975 269.297 279.844 269.297C264.712 269.297 252.445 273.523 252.445 278.736C252.445 283.949 264.712 288.174 279.844 288.174Z" fill="#CACACA"/>
<path d="M221.655 398.197L214.106 398.196L210.516 367.414L221.656 367.415L221.655 398.197Z" fill="#FFB6B6"/>
<path d="M223.573 405.932L199.234 405.931V405.605C199.235 402.949 200.233 400.402 202.009 398.523C203.786 396.645 206.195 395.59 208.708 395.59H208.708L223.574 395.59L223.573 405.932Z" fill="#2F2E41"/>
<path d="M258.297 356.313L251.704 360.199L234.391 335.161L244.122 329.426L258.297 356.313Z" fill="#FFB6B6"/>
<path d="M263.537 362.078L242.278 374.607L242.128 374.322C240.905 372.002 240.604 369.263 241.29 366.708C241.977 364.153 243.596 361.991 245.79 360.697L245.791 360.697L258.775 353.045L263.537 362.078Z" fill="#2F2E41"/>
<path d="M301.169 255.658C301.169 255.658 304.829 267.647 282.373 282.808L253.453 313.276L223.403 389.274L205.562 380.818L232.997 303.393L249.041 273.694L249.506 257.579L253.453 246.219L282.082 235.479L301.169 255.658Z" fill="#2F2E41"/>
<path d="M242.445 355.814L212.596 308.236C211.225 306.046 210.618 303.421 210.88 300.81C211.141 298.199 212.254 295.765 214.027 293.927L244.25 262.672L249.374 257.254H260.841L255.464 278.228L236.81 300.584L258.374 340.928L242.445 355.814Z" fill="#2F2E41"/>
<path d="M264.387 190.47L273.382 176.861L293.933 175.113C293.933 175.113 311.6 192.712 308.386 215.886C305.171 239.059 302.093 261.842 302.093 261.842C302.093 261.842 270.077 237.757 253.453 246.219L264.387 190.47Z" fill="#3F3D56"/>
<path d="M258.276 261.468C258.436 260.526 258.789 259.633 259.31 258.851C259.831 258.068 260.509 257.416 261.294 256.941C262.08 256.465 262.954 256.178 263.856 256.098C264.758 256.018 265.666 256.149 266.515 256.48L280.478 238.504L283.86 250.051L270.081 265.351C269.46 266.823 268.35 268.002 266.962 268.666C265.573 269.33 264.003 269.432 262.547 268.953C261.092 268.475 259.854 267.449 259.067 266.069C258.28 264.689 257.998 263.053 258.276 261.468Z" fill="#FFB6B6"/>
<path d="M275.861 260.299L269.711 250.907L287.175 226.289L278.178 205.907L278.833 181.663L286.267 180.211L286.36 180.26C289.974 182.459 292.768 185.9 294.277 190.01C296.132 194.912 300.272 213.313 302.575 223.846C303.027 225.887 302.977 228.016 302.431 230.031C301.884 232.046 300.859 233.88 299.452 235.357L275.861 260.299Z" fill="#3F3D56"/>
<path d="M291.534 164.95C295.536 157.832 293.322 148.631 286.59 144.4C279.857 140.169 271.155 142.509 267.153 149.627C263.151 156.745 265.364 165.946 272.097 170.177C278.829 174.408 287.532 172.068 291.534 164.95Z" fill="#FFB6B6"/>
<path d="M288.413 151.906C288.263 154.083 290.195 162.112 290.195 162.112C291.61 159.594 289.387 167.961 289.387 167.961C312.617 150.84 294.262 133.64 287.081 135.169C287.231 132.992 281.375 133.855 281.375 133.855C279.144 130.181 274.254 135.057 274.254 135.057L275.198 133.379C271.401 134.4 267.648 146.806 267.648 146.806C268.936 152.158 288.563 149.729 288.413 151.906Z" fill="#2F2E41"/>
<path d="M208.678 200.84C208.367 200.887 208.049 200.842 207.76 200.71C207.467 200.571 207.21 200.361 207.008 200.097C206.781 199.801 206.607 199.462 206.497 199.099C206.372 198.684 206.309 198.25 206.313 197.814V176.552C206.312 176.102 206.374 175.653 206.497 175.222C206.612 174.822 206.784 174.443 207.008 174.098C207.21 173.785 207.465 173.514 207.761 173.3C208.034 173.102 208.349 172.979 208.678 172.942C208.992 172.91 209.309 172.969 209.593 173.113C209.885 173.265 210.14 173.485 210.339 173.757C210.563 174.059 210.733 174.402 210.842 174.769C210.966 175.183 211.028 175.616 211.026 176.051V197.152C211.026 197.601 210.964 198.049 210.842 198.479C210.729 198.882 210.559 199.265 210.339 199.616C210.14 199.936 209.887 200.217 209.593 200.442C209.323 200.651 209.009 200.787 208.678 200.84Z" fill="#3F3D56"/>
<path d="M399.265 406.546H0.730965C0.536904 406.546 0.350979 406.464 0.213955 406.318C0.0769319 406.173 0 405.976 0 405.771C0 405.566 0.0769319 405.369 0.213955 405.224C0.350979 405.079 0.536904 404.997 0.730965 404.996H399.265C399.459 404.996 399.646 405.078 399.783 405.223C399.921 405.368 399.998 405.566 399.998 405.771C399.998 405.977 399.921 406.174 399.783 406.319C399.646 406.465 399.459 406.546 399.265 406.546Z" fill="#CACACA"/>
</g>
<defs>
<clipPath id="clip0_403_2537">
<rect width="400" height="406.545" fill="white"/>
</clipPath>
</defs>
</svg>
