<svg width="408" height="383" viewBox="0 0 408 383" fill="none" xmlns="http://www.w3.org/2000/svg">
<g clip-path="url(#clip0_403_2492)" filter="url(#filter0_d_403_2492)">
<path d="M373.763 286.209L391.707 289.014C397.781 281.659 401.968 272.934 403.905 263.594C390.783 274.334 370.83 268.627 354.919 274.491C349.971 276.357 345.506 279.314 341.856 283.141C338.206 286.968 335.463 291.567 333.832 296.598L325.062 306.033C333.001 309.176 341.526 310.56 350.051 310.091C358.575 309.622 366.897 307.31 374.442 303.315C378.653 301.031 382.559 298.227 386.069 294.968C379.791 291.014 373.763 286.209 373.763 286.209Z" fill="#F2F2F2"/>
<path d="M367.388 257.511L384.7 252.018C386.856 242.727 386.713 233.049 384.28 223.826C377.327 239.291 356.922 243.082 345.296 255.426C341.7 259.303 339.022 263.941 337.462 268.994C335.902 274.047 335.498 279.387 336.282 284.617L332.641 296.973C341.147 296.246 349.395 293.683 356.816 289.461C364.236 285.239 370.654 279.458 375.625 272.517C378.376 268.596 380.622 264.344 382.309 259.861C374.926 259.123 367.388 257.511 367.388 257.511Z" fill="#F2F2F2"/>
<path d="M404 311.749C404 311.842 403.982 311.934 403.947 312.019C403.912 312.105 403.86 312.183 403.794 312.248C403.729 312.314 403.651 312.366 403.565 312.401C403.48 312.436 403.388 312.454 403.296 312.454H4.70449C4.51765 312.454 4.33845 312.38 4.20634 312.248C4.07422 312.115 4 311.936 4 311.749C4 311.563 4.07422 311.383 4.20634 311.251C4.33845 311.119 4.51765 311.045 4.70449 311.045H403.296C403.388 311.045 403.48 311.063 403.565 311.098C403.651 311.133 403.729 311.185 403.794 311.251C403.86 311.316 403.912 311.394 403.947 311.48C403.982 311.565 404 311.657 404 311.749Z" fill="#CCCCCC"/>
<path d="M169.172 281.714C239.467 281.714 296.453 224.729 296.453 154.433C296.453 84.138 239.467 27.1523 169.172 27.1523C98.8763 27.1523 41.8906 84.138 41.8906 154.433C41.8906 224.729 98.8763 281.714 169.172 281.714Z" fill="#E6E6E6"/>
<path d="M278.69 154.433C278.703 171.522 274.711 188.377 267.034 203.645C259.358 218.913 248.21 232.17 234.485 242.352C233.568 243.038 232.632 243.707 231.691 244.359C213.338 257.116 191.521 263.954 169.169 263.954C146.818 263.954 125.001 257.116 106.648 244.359C105.706 243.707 104.771 243.038 103.853 242.352C90.1381 232.161 78.9974 218.902 71.3217 203.636C63.6461 188.37 59.6484 171.52 59.6484 154.433C59.6484 137.346 63.6461 120.496 71.3217 105.23C78.9974 89.9639 90.1381 76.7054 103.853 66.5144C104.771 65.8276 105.706 65.1587 106.648 64.5075C125.001 51.7499 146.818 44.9121 169.169 44.9121C191.521 44.9121 213.338 51.7499 231.691 64.5075C232.632 65.1587 233.568 65.8276 234.485 66.5144C248.21 76.6965 259.358 89.9531 267.034 105.221C274.711 120.489 278.703 137.344 278.69 154.433Z" fill="white"/>
<path d="M169.166 254.482C224.421 254.482 269.215 209.689 269.215 154.434C269.215 99.1782 224.421 54.3848 169.166 54.3848C113.911 54.3848 69.1172 99.1782 69.1172 154.434C69.1172 209.689 113.911 254.482 169.166 254.482Z" fill="#05BC6C"/>
<path opacity="0.2" d="M169.433 54.6641C167.916 54.6641 166.409 54.7037 164.909 54.7705C190.195 56.9925 213.692 68.7436 230.638 87.643C247.584 106.542 256.713 131.177 256.174 156.555C255.635 181.934 245.47 206.159 227.737 224.322C210.004 242.485 186.03 253.229 160.672 254.376C163.56 254.626 166.48 254.762 169.433 254.762C195.967 254.762 221.415 244.221 240.178 225.458C258.941 206.695 269.482 181.248 269.482 154.713C269.482 128.178 258.941 102.73 240.178 83.9677C221.415 65.2049 195.967 54.6641 169.433 54.6641V54.6641Z" fill="black"/>
<path d="M169.467 47.2812C168.604 47.2828 167.777 47.6263 167.166 48.2366C166.556 48.8469 166.212 49.6742 166.211 50.5373V64.7454C166.211 65.609 166.554 66.4371 167.165 67.0478C167.775 67.6584 168.603 68.0014 169.467 68.0014C170.331 68.0014 171.159 67.6584 171.769 67.0478C172.38 66.4371 172.723 65.609 172.723 64.7454V50.5373C172.721 49.6742 172.378 48.8469 171.768 48.2366C171.157 47.6263 170.33 47.2828 169.467 47.2812Z" fill="white"/>
<path d="M234.484 66.5157C233.567 65.829 232.631 65.1601 231.69 64.5088C231.125 64.472 230.561 64.5832 230.052 64.8313C229.543 65.0794 229.108 65.456 228.789 65.9237L220.791 77.6632C220.305 78.3768 220.123 79.2542 220.284 80.1024C220.445 80.9507 220.936 81.7002 221.65 82.1861C222.363 82.6721 223.241 82.8546 224.089 82.6936C224.937 82.5327 225.687 82.0413 226.172 81.3277L234.17 69.5883C234.475 69.1429 234.663 68.6285 234.718 68.0919C234.773 67.5552 234.692 67.0134 234.484 66.5157Z" fill="white"/>
<path d="M270.823 120.043C270.662 119.648 270.425 119.287 270.125 118.983C269.825 118.679 269.468 118.437 269.074 118.271C268.681 118.105 268.258 118.018 267.831 118.016C267.404 118.013 266.98 118.095 266.584 118.256L253.418 123.601C252.619 123.927 251.982 124.556 251.646 125.352C251.311 126.147 251.305 127.043 251.63 127.842C251.955 128.641 252.584 129.279 253.379 129.615C254.173 129.951 255.069 129.958 255.869 129.634L269.035 124.288C269.834 123.961 270.471 123.331 270.806 122.535C271.141 121.739 271.147 120.844 270.823 120.043Z" fill="white"/>
<path d="M117.545 77.6632L109.547 65.9237C109.228 65.456 108.793 65.0794 108.284 64.8313C107.775 64.5832 107.211 64.472 106.646 64.5088C105.705 65.1601 104.769 65.829 103.852 66.5157C103.644 67.0134 103.563 67.5552 103.618 68.0919C103.673 68.6285 103.861 69.1429 104.166 69.5882L112.164 81.3277C112.649 82.0413 113.399 82.5327 114.247 82.6936C115.095 82.8546 115.973 82.6721 116.686 82.1861C117.4 81.7002 117.891 80.9507 118.052 80.1024C118.213 79.2542 118.031 78.3768 117.545 77.6632Z" fill="white"/>
<path d="M84.9202 123.603L71.754 118.257C70.9541 117.932 70.0579 117.938 69.2626 118.274C68.4672 118.61 67.8378 119.248 67.5129 120.048C67.1879 120.848 67.1939 121.744 67.5297 122.539C67.8654 123.335 68.5033 123.964 69.3031 124.289L82.4693 129.635C83.2691 129.959 84.1648 129.952 84.9597 129.616C85.7545 129.28 86.3834 128.643 86.7083 127.843C87.0331 127.044 87.0272 126.148 86.6919 125.353C86.3567 124.558 85.7194 123.928 84.9202 123.603V123.603Z" fill="white"/>
<path d="M169.467 240.867C168.604 240.869 167.777 241.212 167.166 241.823C166.556 242.433 166.212 243.26 166.211 244.123V258.331C166.211 259.195 166.554 260.023 167.165 260.634C167.775 261.244 168.603 261.587 169.467 261.587C170.331 261.587 171.159 261.244 171.769 260.634C172.38 260.023 172.723 259.195 172.723 258.331V244.123C172.721 243.26 172.378 242.433 171.768 241.823C171.157 241.212 170.33 240.869 169.467 240.867Z" fill="white"/>
<path d="M234.17 239.28L226.173 227.54C225.932 227.187 225.624 226.884 225.267 226.65C224.909 226.416 224.509 226.254 224.089 226.174C223.669 226.095 223.237 226.098 222.819 226.185C222.4 226.273 222.003 226.441 221.65 226.682C221.296 226.922 220.994 227.23 220.759 227.588C220.525 227.945 220.363 228.345 220.284 228.765C220.204 229.185 220.208 229.617 220.295 230.036C220.382 230.454 220.551 230.851 220.791 231.205L228.789 242.944C229.108 243.412 229.543 243.788 230.052 244.037C230.561 244.285 231.125 244.396 231.69 244.359C232.631 243.708 233.567 243.039 234.484 242.352C234.692 241.854 234.773 241.313 234.718 240.776C234.663 240.239 234.475 239.725 234.17 239.28Z" fill="white"/>
<path d="M269.03 184.579L255.863 179.233C255.063 178.909 254.167 178.915 253.372 179.251C252.577 179.586 251.947 180.224 251.622 181.024C251.297 181.824 251.303 182.72 251.639 183.516C251.975 184.311 252.613 184.941 253.412 185.266L266.579 190.612C267.378 190.936 268.274 190.929 269.069 190.593C269.864 190.257 270.493 189.619 270.818 188.82C271.142 188.02 271.137 187.124 270.801 186.329C270.466 185.534 269.829 184.905 269.03 184.579V184.579Z" fill="white"/>
<path d="M116.686 226.682C115.973 226.196 115.095 226.013 114.247 226.174C113.399 226.335 112.65 226.826 112.164 227.54L104.166 239.279C103.861 239.725 103.673 240.239 103.618 240.776C103.564 241.312 103.644 241.854 103.852 242.352C104.769 243.039 105.705 243.708 106.646 244.359C107.211 244.396 107.775 244.284 108.284 244.036C108.793 243.788 109.228 243.412 109.547 242.944L117.545 231.204C117.785 230.851 117.954 230.454 118.041 230.035C118.128 229.617 118.132 229.185 118.052 228.765C117.973 228.345 117.811 227.945 117.577 227.587C117.342 227.23 117.04 226.922 116.686 226.682Z" fill="white"/>
<path d="M86.7059 181.02C86.5451 180.624 86.3078 180.264 86.0078 179.96C85.7077 179.656 85.3506 179.414 84.957 179.248C84.5633 179.082 84.1408 178.995 83.7136 178.992C83.2864 178.99 82.8628 179.071 82.4671 179.232L69.3009 184.578C68.5017 184.904 67.8645 185.533 67.5292 186.328C67.1939 187.123 67.1881 188.019 67.5129 188.819C67.8377 189.618 68.4666 190.256 69.2615 190.592C70.0563 190.928 70.9521 190.935 71.7518 190.611L84.918 185.265C85.7168 184.938 86.3535 184.307 86.6886 183.512C87.0236 182.716 87.0299 181.82 86.7059 181.02Z" fill="white"/>
<path d="M173.689 152.818C173.99 154.597 173.572 156.424 172.528 157.896C171.484 159.368 169.898 160.366 168.119 160.671L110.34 170.499C109.459 170.649 108.557 170.624 107.685 170.425C106.813 170.226 105.989 169.858 105.26 169.34C104.531 168.823 103.911 168.167 103.435 167.41C102.959 166.654 102.637 165.81 102.487 164.929C102.337 164.048 102.362 163.145 102.561 162.274C102.76 161.402 103.128 160.578 103.646 159.849C104.163 159.119 104.819 158.499 105.576 158.023C106.332 157.548 107.176 157.226 108.057 157.076L165.836 147.248C167.615 146.947 169.442 147.365 170.914 148.409C172.386 149.453 173.384 151.039 173.689 152.818Z" fill="#3F3D56"/>
<path d="M234.498 216.833C233.668 217.668 232.541 218.139 231.363 218.144C230.186 218.148 229.055 217.686 228.219 216.858L166.021 155.148C165.186 154.318 164.715 153.191 164.711 152.014C164.707 150.837 165.17 149.707 165.999 148.871C166.828 148.036 167.955 147.564 169.131 147.559C170.308 147.553 171.439 148.016 172.275 148.844L234.473 210.554C235.308 211.384 235.779 212.511 235.784 213.688C235.789 214.865 235.326 215.996 234.498 216.833Z" fill="#3F3D56"/>
<path d="M169.165 162.13C173.415 162.13 176.861 158.685 176.861 154.434C176.861 150.184 173.415 146.738 169.165 146.738C164.914 146.738 161.469 150.184 161.469 154.434C161.469 158.685 164.914 162.13 169.165 162.13Z" fill="#CCCCCC"/>
<path d="M116.158 20.9825C104.345 39.5552 86.3203 51.8809 64.0916 59.9782C63.6523 60.3071 63.1526 60.5464 62.6209 60.6822C62.0892 60.8181 61.5359 60.8479 60.9927 60.7699C60.4495 60.6919 59.9269 60.5077 59.4549 60.2278C58.9829 59.9479 58.5706 59.5777 58.2416 59.1385C46.1672 43.0167 48.8936 19.9755 64.8293 7.65661C68.6821 4.6835 73.087 2.50531 77.7884 1.24849C82.4898 -0.00832054 87.394 -0.318725 92.2164 0.335309C97.0387 0.989343 101.683 2.59478 105.88 5.05842C110.077 7.52206 113.742 10.7948 116.664 14.6867L116.998 15.1326C117.327 15.5719 117.566 16.0716 117.702 16.6033C117.838 17.135 117.868 17.6883 117.79 18.2315C117.712 18.7747 117.527 19.2973 117.248 19.7693C116.968 20.2413 116.597 20.6536 116.158 20.9825Z" fill="#E6E6E6"/>
<path d="M221.676 14.6867C224.598 10.7948 228.263 7.52206 232.46 5.05842C236.657 2.59478 241.301 0.989346 246.124 0.335312C250.946 -0.318722 255.85 -0.00832703 260.551 1.24849C265.253 2.5053 269.658 4.68349 273.511 7.6566C289.446 19.9755 292.173 43.0167 280.098 59.1385C279.769 59.5777 279.357 59.9479 278.885 60.2278C278.413 60.5077 277.89 60.6919 277.347 60.7699C276.804 60.8479 276.251 60.8181 275.719 60.6822C275.187 60.5464 274.688 60.3071 274.248 59.9782C253.613 52.0776 236.69 38.4058 222.182 20.9825C221.295 20.3181 220.708 19.3285 220.55 18.2315C220.393 17.1344 220.678 16.0197 221.342 15.1326L221.676 14.6867Z" fill="#E6E6E6"/>
<path d="M216.492 264.706C215.74 265.128 215.185 265.832 214.951 266.663C214.716 267.493 214.821 268.383 215.241 269.137L234.032 302.717C234.454 303.47 235.158 304.025 235.989 304.26C236.82 304.495 237.71 304.389 238.463 303.968C239.217 303.546 239.772 302.842 240.006 302.012C240.241 301.181 240.136 300.291 239.715 299.537L220.923 265.957C220.501 265.204 219.797 264.65 218.966 264.416C218.136 264.181 217.246 264.285 216.492 264.706Z" fill="#E6E6E6"/>
<path d="M117.409 265.958L98.6174 299.538C98.1959 300.291 98.091 301.181 98.3258 302.012C98.5605 302.843 99.1157 303.547 99.8691 303.968C100.623 304.39 101.513 304.495 102.344 304.261C103.175 304.026 103.878 303.471 104.3 302.718L123.092 269.138C123.3 268.765 123.434 268.354 123.484 267.929C123.534 267.505 123.5 267.074 123.384 266.663C123.268 266.251 123.072 265.866 122.807 265.531C122.542 265.195 122.214 264.914 121.841 264.706C121.467 264.497 121.057 264.364 120.632 264.313C120.207 264.263 119.777 264.297 119.365 264.414C118.954 264.53 118.569 264.726 118.233 264.991C117.898 265.256 117.618 265.584 117.409 265.958H117.409Z" fill="#E6E6E6"/>
<path d="M237.838 311.316C243.396 311.316 247.902 306.81 247.902 301.252C247.902 295.693 243.396 291.188 237.838 291.188C232.279 291.188 227.773 295.693 227.773 301.252C227.773 306.81 232.279 311.316 237.838 311.316Z" fill="#E6E6E6"/>
<path d="M244.947 53.7922C250.505 53.7922 255.011 49.2864 255.011 43.7282C255.011 38.1699 250.505 33.6641 244.947 33.6641C239.389 33.6641 234.883 38.1699 234.883 43.7282C234.883 49.2864 239.389 53.7922 244.947 53.7922Z" fill="#E6E6E6"/>
<path d="M168.58 30.1125C174.138 30.1125 178.644 25.6067 178.644 20.0485C178.644 14.4902 174.138 9.98438 168.58 9.98438C163.021 9.98438 158.516 14.4902 158.516 20.0485C158.516 25.6067 163.021 30.1125 168.58 30.1125Z" fill="#E6E6E6"/>
<path d="M95.7594 52.6086C101.318 52.6086 105.823 48.1028 105.823 42.5446C105.823 36.9863 101.318 32.4805 95.7594 32.4805C90.2012 32.4805 85.6953 36.9863 85.6953 42.5446C85.6953 48.1028 90.2012 52.6086 95.7594 52.6086Z" fill="#E6E6E6"/>
<path d="M102.275 311.316C107.833 311.316 112.339 306.81 112.339 301.252C112.339 295.693 107.833 291.188 102.275 291.188C96.7168 291.188 92.2109 295.693 92.2109 301.252C92.2109 306.81 96.7168 311.316 102.275 311.316Z" fill="#E6E6E6"/>
<path d="M229.947 211.173C230.344 211.794 230.872 212.32 231.495 212.715C232.117 213.11 232.818 213.364 233.549 213.459C234.28 213.553 235.023 213.487 235.725 213.263C236.428 213.04 237.072 212.665 237.614 212.165L253.406 220.627L252.559 211.355L237.693 204.741C236.793 203.887 235.611 203.392 234.371 203.35C233.131 203.309 231.918 203.724 230.964 204.517C230.009 205.31 229.378 206.425 229.191 207.652C229.004 208.878 229.273 210.131 229.947 211.173H229.947Z" fill="#FFB7B7"/>
<path d="M241.453 214.408L247.642 205.865L277.455 219.959L314.554 212.998C316.388 212.654 318.275 212.718 320.081 213.185C321.888 213.652 323.569 214.511 325.006 215.702C326.443 216.892 327.6 218.384 328.396 220.071C329.191 221.759 329.605 223.601 329.609 225.467C329.612 228.837 328.277 232.07 325.899 234.458C323.52 236.845 320.292 238.191 316.922 238.201L274.406 238.28L241.453 214.408Z" fill="#3F3D56"/>
<path d="M231.918 361.951L225.656 358.957L234.257 332.785L243.498 337.205L231.918 361.951Z" fill="#FFB7B7"/>
<path d="M273.9 357.731C273.444 358.016 272.989 358.297 272.529 358.577C271.614 359.139 270.69 359.69 269.765 360.233C269.301 360.504 268.832 360.776 268.367 361.043V361.056L268.339 361.061L268.33 361.066L267.622 361.24L266.606 358.554L266.136 357.317L265.474 355.565L264.26 352.359L257.867 335.481L267.806 333.029L268.178 334.552H268.183L268.367 335.306L271.839 349.388L272.548 352.268L272.571 352.355L272.998 354.075L273.366 355.565L273.776 357.23L273.9 357.731Z" fill="#FFB7B7"/>
<path d="M333.184 298.458C332.554 299.47 331.91 300.477 331.262 301.475C330.057 303.333 328.819 305.164 327.55 306.967C327.55 306.971 327.546 306.971 327.541 306.976C326.8 307.662 325.982 308.259 325.103 308.756C325.067 308.783 325.025 308.802 324.988 308.825C324.341 309.182 323.652 309.459 322.937 309.648C322.68 309.712 322.417 309.777 322.16 309.841C321.231 310.062 320.311 310.25 319.396 310.416C317.768 310.706 316.158 310.913 314.558 311.041C314.429 311.055 314.3 311.064 314.171 311.074C307.59 311.556 301.183 310.779 294.496 309.505C291.194 308.88 287.823 308.13 284.332 307.353C283.192 307.095 282.046 306.842 280.887 306.589C280.8 306.571 280.708 306.548 280.616 306.53C278.96 306.166 277.277 305.808 275.552 305.453C273.382 305.007 271.142 304.575 268.815 304.166L268.98 307.445C269.118 309.967 269.642 312.454 270.535 314.817C271.528 317.724 272.315 320.023 270.654 324.811L269.854 327.129C270.269 328.28 270.411 329.512 270.27 330.727C270.129 331.942 269.708 333.108 269.04 334.134L268.879 334.377L275.552 351.261L275.985 352.355H272.568L268.364 352.36H261.24L250.961 331.737L250.469 330.753V330.703L251.531 291.072C251.545 290.722 251.573 290.368 251.619 290.019C251.806 288.43 252.308 286.894 253.095 285.501C253.882 284.108 254.939 282.886 256.204 281.906C257.416 280.959 258.804 280.262 260.287 279.856C261.771 279.45 263.32 279.344 264.846 279.542L268.364 279.997L275.552 280.926L280.616 281.584L280.717 281.598L295.651 283.529L296.722 279.16L296.92 279.087L303.207 276.782L324.952 268.812L325.007 268.794L326.437 268.27L326.607 268.545C326.658 268.628 326.709 268.711 326.754 268.794C328.168 271.328 329.319 274 330.19 276.769C331.654 281.291 332.86 285.893 333.8 290.552C333.842 290.755 333.879 290.939 333.911 291.104L333.925 291.155C333.938 291.233 333.948 291.284 333.952 291.297C334.453 293.385 334.104 295.933 333.184 298.458Z" fill="#2F2E41"/>
<path d="M334.107 283.853C334.038 283.559 333.95 283.26 333.858 282.97C333.128 280.776 332.278 278.623 331.31 276.522C330.225 274.131 328.923 271.569 327.374 268.796C326.624 267.453 325.818 266.056 324.954 264.606C324.522 263.879 324.073 263.139 323.607 262.384C323.589 262.35 323.569 262.316 323.547 262.283L323.414 262.062L301.899 264.942L293.887 266.013L293.409 270.005L293.294 270.994C293.289 270.994 293.289 270.994 293.294 270.999L292.972 273.694V273.698L292.544 277.258L292.508 277.253L280.619 275.713L268.367 274.126L261.785 273.275C260.26 273.076 258.711 273.183 257.227 273.589C255.743 273.995 254.355 274.692 253.144 275.639C251.879 276.619 250.823 277.842 250.035 279.235C249.248 280.627 248.746 282.163 248.558 283.752C248.517 284.074 248.489 284.405 248.476 284.732L242.267 299.444C238.551 308.243 236.185 317.552 235.248 327.057L230.695 341.614L231.344 341.673L240.993 342.57L243.541 342.809L249.152 334.618C249.791 333.685 250.398 332.724 250.964 331.739C251.895 330.132 252.723 328.467 253.443 326.754L265.58 297.871C266.518 298.032 267.447 298.186 268.367 298.331C272.621 299.021 276.705 299.584 280.619 300.019C293.345 301.44 304.364 301.551 314.174 300.346C316.929 300.01 319.592 299.568 322.163 299.021C323.106 298.823 324.036 298.61 324.954 298.382C325.171 298.331 325.382 298.281 325.594 298.225C327.494 297.735 329.242 296.776 330.676 295.436C332.11 294.096 333.185 292.417 333.803 290.554C334.541 288.395 334.646 286.07 334.107 283.853Z" fill="#2F2E41"/>
<path d="M233.919 357.677L227.144 354.43L226.082 353.92L224.385 358.087L212.537 360.694C211.952 360.823 211.422 361.135 211.027 361.586C210.631 362.037 210.39 362.602 210.338 363.2C210.287 363.797 210.428 364.395 210.741 364.907C211.054 365.419 211.522 365.817 212.077 366.043L223.653 370.767L227.328 367.46L226.427 371.898L230.787 373.678L235.565 358.468L233.919 357.677Z" fill="#2F2E41"/>
<path d="M275.555 351.26L275.987 352.354H275.555V351.26Z" fill="#2F2E41"/>
<path d="M273.193 352.589L266.095 355.048L264.981 355.433L266.707 359.588L260.123 369.777C259.797 370.28 259.641 370.875 259.677 371.473C259.713 372.072 259.939 372.643 260.323 373.104C260.707 373.565 261.228 373.891 261.811 374.034C262.393 374.177 263.006 374.131 263.56 373.901L275.109 369.112L275.393 364.177L277.876 367.965L282.226 366.162L274.92 351.992L273.193 352.589Z" fill="#2F2E41"/>
<path d="M332.331 290.516C331.909 290.515 331.494 290.412 331.121 290.216L293.663 270.642L293.23 268.871L292.414 263.263L292.425 263.211L295.988 246.787C295.922 246.645 295.786 246.414 295.632 246.153C294.041 243.458 289.201 235.257 298.439 223.964L314.657 205.056L328.577 204.457L328.735 204.657C332.457 209.329 334.967 214.847 336.042 220.723C337.118 226.598 336.724 232.648 334.898 238.335L333.449 264.512L335.003 269.798C335.912 272.905 335.762 276.226 334.576 279.237L334.932 287.797C334.946 288.148 334.889 288.498 334.765 288.827C334.641 289.155 334.451 289.455 334.209 289.709C333.966 289.962 333.674 290.165 333.352 290.303C333.029 290.442 332.682 290.514 332.331 290.516L332.331 290.516Z" fill="#3F3D56"/>
<path d="M299.839 312.104C300.474 311.729 301.019 311.22 301.435 310.612C301.851 310.003 302.129 309.311 302.249 308.584C302.369 307.857 302.329 307.112 302.13 306.403C301.931 305.693 301.579 305.035 301.098 304.476L310.104 288.988L300.809 289.512L293.681 304.14C292.796 305.009 292.26 306.173 292.176 307.411C292.091 308.649 292.464 309.875 293.223 310.857C293.982 311.839 295.075 312.508 296.294 312.738C297.514 312.968 298.775 312.742 299.839 312.104L299.839 312.104Z" fill="#FFB7B7"/>
<path d="M303.478 300.717L295.156 294.235L310.278 264.93L304.612 227.611C304.332 225.766 304.461 223.883 304.991 222.094C305.521 220.305 306.438 218.654 307.678 217.26C308.917 215.865 310.448 214.76 312.163 214.024C313.877 213.288 315.732 212.938 317.597 212.999C320.965 213.114 324.15 214.56 326.454 217.02C328.757 219.48 329.99 222.753 329.883 226.122L328.483 268.614L303.478 300.717Z" fill="#3F3D56"/>
<path d="M305.734 197.2V183.426C305.731 178.531 307.673 173.835 311.132 170.371C314.591 166.908 319.284 164.96 324.179 164.957C329.075 164.954 333.77 166.895 337.234 170.355C340.698 173.814 342.645 178.507 342.648 183.402V183.426C345.901 190.205 343.866 193.427 342.648 197.2C342.647 197.857 342.386 198.487 341.921 198.951C341.457 199.416 340.827 199.677 340.17 199.678H308.214C307.557 199.677 306.927 199.416 306.462 198.951C305.997 198.487 305.735 197.857 305.734 197.2Z" fill="#2F2E41"/>
<path d="M318.136 198.782C325.766 198.782 331.952 192.596 331.952 184.966C331.952 177.336 325.766 171.15 318.136 171.15C310.506 171.15 304.32 177.336 304.32 184.966C304.32 192.596 310.506 198.782 318.136 198.782Z" fill="#FFB7B7"/>
<path d="M332.598 188.588C332.473 188.568 332.347 188.542 332.222 188.522C330.067 188.14 327.912 187.764 325.764 187.376L325.566 182.505L322.963 186.868C317.025 188.839 311.469 187.725 306.243 185.267C304.519 184.448 302.847 183.526 301.234 182.505C301.673 179.812 302.709 177.25 304.266 175.009C305.822 172.767 307.86 170.901 310.23 169.549C310.428 169.437 310.619 169.338 310.817 169.239C310.818 169.239 310.818 169.239 310.819 169.238C310.82 169.238 310.821 169.238 310.821 169.237C310.822 169.236 310.823 169.236 310.823 169.235C310.823 169.234 310.823 169.233 310.823 169.232C311.159 169.074 311.502 168.923 311.845 168.784C314.528 167.736 317.453 167.47 320.281 168.018C323.109 168.567 325.723 169.906 327.82 171.882C332.038 175.908 333.936 182.558 332.598 188.588Z" fill="#2F2E41"/>
</g>
<defs>
<filter id="filter0_d_403_2492" x="0" y="0" width="408" height="382.115" filterUnits="userSpaceOnUse" color-interpolation-filters="sRGB">
<feFlood flood-opacity="0" result="BackgroundImageFix"/>
<feColorMatrix in="SourceAlpha" type="matrix" values="0 0 0 0 0 0 0 0 0 0 0 0 0 0 0 0 0 0 127 0" result="hardAlpha"/>
<feOffset dy="4"/>
<feGaussianBlur stdDeviation="2"/>
<feComposite in2="hardAlpha" operator="out"/>
<feColorMatrix type="matrix" values="0 0 0 0 0 0 0 0 0 0 0 0 0 0 0 0 0 0 0.25 0"/>
<feBlend mode="normal" in2="BackgroundImageFix" result="effect1_dropShadow_403_2492"/>
<feBlend mode="normal" in="SourceGraphic" in2="effect1_dropShadow_403_2492" result="shape"/>
</filter>
<clipPath id="clip0_403_2492">
<rect width="400" height="374.116" fill="white" transform="translate(4)"/>
</clipPath>
</defs>
</svg>
