<svg width="1563" height="567" viewBox="0 0 1563 567" fill="none" xmlns="http://www.w3.org/2000/svg">
<rect width="1563" height="567" fill="white"/>
<g filter="url(#filter0_d_1118_67)">
<path d="M237.986 216V221.427H92V216H129.318V218.735H201.764V216H237.986Z" fill="#525252" stroke="#525252" stroke-width="1.2"/>
<path d="M237.986 230.074V240.213H92V230.074H129.318V235.543H201.764V230.074H237.986Z" fill="#525252" stroke="#525252" stroke-width="1.2"/>
<path d="M237.986 248.816V258.997H92V248.816H129.318V254.306H201.764V248.816H237.986Z" fill="#525252" stroke="#525252" stroke-width="1.2"/>
<path d="M237.986 266.398V282.364H92V266.398H129.318V274.96H201.764V266.398H237.986Z" fill="#525252" stroke="#525252" stroke-width="1.2"/>
<path d="M237.986 289.707V305.672H92V289.707H138.885V298.31H190.061V289.707H237.986Z" fill="#525252" stroke="#525252" stroke-width="1.2"/>
<path d="M237.986 313.055V329.02H92V313.055H147.411V321.616H180.439V313.055H237.986Z" fill="#525252" stroke="#525252" stroke-width="1.2"/>
<path d="M237.986 336.383V355.819H92V336.383H154.879V341.873H173.008V336.383H237.986Z" fill="#525252" stroke="#525252" stroke-width="1.2"/>
</g>
<g filter="url(#filter1_d_1118_67)">
<rect x="782" y="337" width="32" height="143" transform="rotate(-90 782 337)" fill="#555555"/>
<rect x="782" y="284" width="32" height="143" transform="rotate(-90 782 284)" fill="#555555"/>
</g>
<g clip-path="url(#clip0_1118_67)" filter="url(#filter2_d_1118_67)">
<path d="M1317.85 283.781C1318.73 283.781 1319.59 284.131 1320.22 284.753C1320.84 285.375 1321.2 286.219 1321.2 287.099V319.192H1385.51C1386.4 319.192 1387.25 319.542 1387.88 320.164C1388.51 320.786 1388.87 321.63 1388.87 322.51C1388.87 323.39 1388.51 324.233 1387.88 324.856C1387.25 325.478 1386.4 325.827 1385.51 325.827H1321.2V436.814H1314.49V287.099C1314.49 286.219 1314.85 285.375 1315.47 284.753C1316.1 284.131 1316.96 283.781 1317.85 283.781V283.781Z" fill="#E6E6E6"/>
<path d="M1138.87 436.064L1126.78 436.394C1124.94 436.488 1123.12 435.984 1121.6 434.959C1120.29 433.993 1119.69 432.687 1119.95 431.375L1122.33 419.545C1122.78 417.313 1125.54 415.626 1128.9 415.534L1135.58 415.352C1138.94 415.26 1141.79 416.793 1142.36 418.997L1145.4 430.68C1145.74 431.975 1145.21 433.312 1143.95 434.349C1142.49 435.455 1140.7 436.057 1138.87 436.064V436.064Z" fill="#3F3D56"/>
<path d="M1212.4 435.724L1200.31 436.055C1198.47 436.148 1196.65 435.644 1195.13 434.62C1193.82 433.653 1193.22 432.347 1193.48 431.035L1195.86 419.205C1196.31 416.973 1199.07 415.286 1202.43 415.194L1209.11 415.012C1212.47 414.92 1215.32 416.454 1215.9 418.658L1218.93 430.34C1219.27 431.635 1218.74 432.973 1217.48 434.009C1216.02 435.115 1214.24 435.717 1212.4 435.724V435.724Z" fill="#3F3D56"/>
<path d="M1096.88 335.291C1096.33 335.055 1095.88 334.64 1095.6 334.114C1095.31 333.589 1095.22 332.983 1095.34 332.399C1095.45 331.814 1095.76 331.286 1096.22 330.9C1096.68 330.515 1097.26 330.296 1097.86 330.28L1235.31 326.524C1235.65 326.515 1236 326.573 1236.32 326.695C1236.64 326.818 1236.94 327.002 1237.19 327.238C1237.44 327.473 1237.65 327.756 1237.79 328.069C1237.93 328.382 1238.01 328.72 1238.02 329.063V329.063C1238.04 329.755 1237.78 330.426 1237.3 330.929C1236.81 331.432 1236.15 331.726 1235.45 331.746L1235.45 331.746L1098 335.501C1097.62 335.513 1097.24 335.441 1096.88 335.291Z" fill="#3F3D56"/>
<path d="M1147.61 290.266L1108.32 291.34L1111.98 422.592L1151.27 421.519L1147.61 290.266Z" fill="#E6E6E6"/>
<path d="M1148.61 287.91L1141.05 308.267L1141.06 401.013L1150.26 403.624L1148.61 287.91Z" fill="#CCCCCC"/>
<path d="M1127.76 255.967C1120.41 256.174 1114.8 268.76 1114.93 273.672L1115.18 282.564L1141.8 281.837L1141.55 272.945C1141.41 268.033 1135.11 255.772 1127.76 255.967Z" fill="#3F3D56"/>
<path d="M1108.83 345.696C1107.46 345.732 1106.13 345.227 1105.13 344.293C1104.13 343.359 1103.55 342.071 1103.51 340.712L1103.1 326.241C1103.07 324.882 1103.57 323.563 1104.52 322.576C1105.46 321.588 1106.77 321.012 1108.14 320.975C1109.51 320.937 1110.85 321.441 1111.84 322.376C1112.84 323.31 1113.43 324.599 1113.46 325.958L1113.87 340.429C1113.9 341.788 1113.39 343.106 1112.45 344.093C1111.5 345.08 1110.2 345.657 1108.83 345.696Z" fill="#3F3D56"/>
<path d="M1118.8 291.653L1118.61 282.089L1121.14 282.027L1121.33 291.56L1123.63 430.502L1121.09 430.572" fill="#3F3D56"/>
<path d="M1152.11 314.019L1106.55 315.264C1102.2 310.013 1101.8 287.642 1110.89 283.384L1114.45 277.401L1141.91 276.074L1145.12 282.375C1149.63 286.178 1151.96 308.409 1152.11 314.019Z" fill="#E6E6E6"/>
<path d="M1134.97 303.288L1123.44 303.603C1121.22 303.664 1119.33 300.809 1119.23 297.241C1119.13 293.673 1120.86 290.72 1123.08 290.66L1134.6 290.345C1136.83 290.284 1138.72 293.138 1138.82 296.706C1138.92 300.274 1137.19 303.227 1134.97 303.288Z" fill="#05BC6C"/>
<path d="M1112.65 367.824L1088.9 384.424L1084.75 421.852L1112.46 412.692L1112.65 367.824Z" fill="#E6E6E6"/>
<path d="M1223.45 288.661L1184.16 289.734L1187.83 420.987L1227.12 419.913L1223.45 288.661Z" fill="#E6E6E6"/>
<path d="M1185.1 288.348L1193.19 308.504L1195.61 401.219L1186.48 404.065L1185.1 288.348Z" fill="#CCCCCC"/>
<path d="M1243.09 252.22C1245.94 252.22 1248.24 249.161 1248.24 245.387C1248.24 241.614 1245.94 238.555 1243.09 238.555C1240.25 238.555 1237.95 241.614 1237.95 245.387C1237.95 249.161 1240.25 252.22 1243.09 252.22Z" fill="#E6E6E6"/>
<path d="M1202.83 254.381C1195.48 254.588 1189.88 267.174 1190.01 272.086L1190.26 280.978L1216.87 280.251L1216.63 271.359C1216.49 266.447 1210.18 254.186 1202.83 254.381Z" fill="#3F3D56"/>
<path d="M1210.44 294.646L1210.26 285.082L1212.79 285.02L1212.98 294.553L1215.28 433.495L1212.74 433.565" fill="#3F3D56"/>
<path d="M1227.18 312.429L1181.62 313.674C1180.83 308.922 1181.86 286.752 1185.96 281.794L1189.52 275.811L1216.98 274.484L1220.19 280.785C1228.29 281.438 1231.13 303.225 1227.18 312.429Z" fill="#E6E6E6"/>
<path d="M1210.1 303.699L1198.57 304.014C1196.35 304.074 1194.45 300.772 1194.33 296.654C1194.22 292.535 1195.93 289.134 1198.16 289.073L1209.68 288.759C1211.9 288.698 1213.81 292 1213.92 296.119C1214.04 300.237 1212.32 303.638 1210.1 303.699Z" fill="#05BC6C"/>
<path d="M1225.39 358.23L1248.35 375.885L1250.77 413.462L1223.52 403.06L1225.39 358.23Z" fill="#E6E6E6"/>
<path d="M1218.98 184.186C1194.34 184.186 1166.03 157.136 1140.98 169.988C1065.13 208.902 1075.57 143.786 1053.78 119.568L1054.5 118.148C1070.99 180.409 1085.92 279.618 1141.31 168.337C1155.18 140.461 1200.72 183.549 1227.52 182.278L1227.57 183.984C1224.73 184.12 1221.87 184.187 1218.98 184.186Z" fill="#F2F2F2"/>
<path d="M1278.11 188.016C1258.47 202.733 1219.39 198.084 1207.27 223.294C1170.55 299.625 1139.14 241.48 1106.99 235.192L1106.7 233.632C1138.88 236.273 1173.4 232.176 1206.52 221.781C1236.46 212.389 1263.16 198.416 1283.75 181.391L1284.83 182.723C1282.66 184.522 1280.42 186.286 1278.11 188.016Z" fill="#F2F2F2"/>
<path d="M1064.48 184.661C1067.32 184.661 1069.63 181.602 1069.63 177.829C1069.63 174.055 1067.32 170.996 1064.48 170.996C1061.63 170.996 1059.33 174.055 1059.33 177.829C1059.33 181.602 1061.63 184.661 1064.48 184.661Z" fill="#E6E6E6"/>
<path d="M1224.2 129.169C1227.04 129.169 1229.35 126.11 1229.35 122.337C1229.35 118.563 1227.04 115.504 1224.2 115.504C1221.35 115.504 1219.05 118.563 1219.05 122.337C1219.05 126.11 1221.35 129.169 1224.2 129.169Z" fill="#E6E6E6"/>
<path d="M1111.63 212.241C1109.28 213.793 1106.87 210.099 1109.27 208.616C1111.62 207.064 1114.03 210.758 1111.63 212.241Z" fill="#E6E6E6"/>
<path d="M1198.8 90.9987C1196.45 92.5508 1194.04 88.8566 1196.44 87.3734C1198.79 85.8213 1201.2 89.5155 1198.8 90.9987Z" fill="#E6E6E6"/>
<path d="M1250.18 162.884L1248.68 162.559L1249.01 161.076L1248.01 160.859L1247.69 162.342L1246.19 162.017L1245.97 163.006L1247.47 163.331L1247.14 164.813L1248.14 165.029L1248.47 163.547L1249.96 163.872L1250.18 162.884Z" fill="#E6E6E6"/>
<path d="M1112.88 113.204C1116.49 113.204 1119.41 110.314 1119.41 106.748C1119.41 103.183 1116.49 100.293 1112.88 100.293C1109.28 100.293 1106.36 103.183 1106.36 106.748C1106.36 110.314 1109.28 113.204 1112.88 113.204Z" fill="#FF6584"/>
<path d="M1160.61 98.5765C1153.26 98.7831 1147.65 111.37 1147.78 116.281L1148.03 125.173L1174.65 124.446L1174.4 115.554C1174.26 110.643 1167.96 98.3814 1160.61 98.5765Z" fill="#3F3D56"/>
<path d="M1176.45 435.287L1164.36 435.617C1162.53 435.711 1160.71 435.207 1159.19 434.182C1157.88 433.216 1157.27 431.91 1157.54 430.598L1159.92 418.767C1160.36 416.536 1163.13 414.848 1166.49 414.757L1173.17 414.574C1176.52 414.482 1179.38 416.016 1179.95 418.22L1182.99 429.902C1183.32 431.198 1182.79 432.535 1181.54 433.571C1180.08 434.677 1178.29 435.28 1176.45 435.287V435.287Z" fill="#3F3D56"/>
<path d="M1181.84 155.18L1142.55 156.254L1149.96 421.566L1189.25 420.492L1181.84 155.18Z" fill="#E6E6E6"/>
<path d="M1166.12 283.61L1165.94 274.047L1168.47 273.984L1168.66 283.517L1170.96 422.459L1168.42 422.529" fill="#3F3D56"/>
<path d="M1189.58 179.466L1136.34 180.92C1135.42 175.369 1136.62 149.464 1141.41 143.672L1142.72 136.758L1179.48 135.754L1181.4 142.492C1186.68 146.936 1189.4 172.912 1189.58 179.466Z" fill="#E6E6E6"/>
<path d="M1180.65 136.566L1142.72 137.603C1141.32 137.641 1140.16 136.914 1140.13 135.978C1140.13 135.844 1140.15 135.709 1140.19 135.581L1146.08 117.621C1146.34 116.852 1147.34 116.287 1148.51 116.255L1173.67 115.568C1174.84 115.536 1175.87 116.045 1176.17 116.799L1183.05 134.41C1183.41 135.311 1182.59 136.248 1181.24 136.504C1181.04 136.54 1180.85 136.561 1180.65 136.566V136.566Z" fill="#E6E6E6"/>
<path d="M1146.46 282.388C1146.12 282.243 1145.79 282.058 1145.49 281.837C1145.07 281.54 1144.71 281.151 1144.46 280.7C1144.21 280.248 1144.07 279.745 1144.04 279.23L1142.67 229.842C1142.61 227.798 1144.63 226.078 1147.17 226.008L1181.13 225.08C1183.68 225.01 1185.79 226.618 1185.85 228.662L1187.23 278.05C1187.23 278.566 1187.12 279.076 1186.89 279.54C1186.66 280.005 1186.33 280.413 1185.92 280.732C1185.02 281.463 1183.89 281.869 1182.72 281.884L1148.76 282.811C1147.97 282.838 1147.18 282.693 1146.46 282.388V282.388Z" fill="#3F3D56"/>
<path d="M1168.19 133.391L1156.67 133.706C1154.45 133.766 1152.57 131.281 1152.48 128.166C1152.39 125.051 1154.13 122.466 1156.35 122.406L1167.88 122.091C1170.1 122.03 1171.98 124.516 1172.07 127.631C1172.15 130.746 1170.42 133.33 1168.19 133.391Z" fill="#05BC6C"/>
<path d="M1440.54 426.309H1427.13V329.873C1438.35 329.077 1446.78 325.678 1446.78 321.605C1446.78 316.941 1435.72 313.16 1422.09 313.16C1408.45 313.16 1397.4 316.941 1397.4 321.605C1397.4 325.717 1405.99 329.141 1417.37 329.894V426.309H1403.96C1402.67 426.309 1401.43 426.818 1400.51 427.722C1399.6 428.627 1399.09 429.855 1399.09 431.135C1399.09 432.414 1399.6 433.642 1400.51 434.547C1401.43 435.452 1402.67 435.96 1403.96 435.96H1440.54C1441.83 435.96 1443.07 435.452 1443.99 434.547C1444.9 433.642 1445.42 432.414 1445.42 431.135C1445.42 429.855 1444.9 428.627 1443.99 427.722C1443.07 426.818 1441.83 426.309 1440.54 426.309Z" fill="#E6E6E6"/>
<path d="M1483.45 405.962L1484.02 393.329C1489.94 390.198 1496.54 388.545 1503.25 388.512C1494.02 395.984 1495.17 410.389 1488.91 420.438C1486.93 423.557 1484.27 426.196 1481.12 428.159C1477.97 430.123 1474.42 431.359 1470.72 431.779L1462.99 436.462C1461.93 430.611 1462.16 424.602 1463.67 418.849C1465.19 413.096 1467.94 407.736 1471.75 403.138C1473.91 400.579 1476.39 398.3 1479.13 396.355C1480.98 401.185 1483.45 405.962 1483.45 405.962Z" fill="#F2F2F2"/>
<path d="M1522.32 437.062C1522.32 437.185 1522.29 437.307 1522.25 437.421C1522.2 437.535 1522.13 437.638 1522.04 437.725C1521.95 437.812 1521.85 437.881 1521.73 437.928C1521.62 437.975 1521.49 437.999 1521.37 437.999H1001.95C1001.7 437.999 1001.45 437.9 1001.28 437.724C1001.1 437.549 1001 437.31 1001 437.062C1001 436.813 1001.1 436.575 1001.28 436.399C1001.45 436.224 1001.7 436.125 1001.95 436.125H1521.37C1521.49 436.125 1521.62 436.149 1521.73 436.196C1521.85 436.242 1521.95 436.312 1522.04 436.399C1522.13 436.486 1522.2 436.589 1522.25 436.703C1522.29 436.817 1522.32 436.939 1522.32 437.062V437.062Z" fill="#CCCCCC"/>
<path d="M1224.42 342.49C1223.05 342.526 1221.72 342.022 1220.72 341.087C1219.72 340.153 1219.14 338.865 1219.1 337.507L1218.7 323.036C1218.66 321.677 1219.17 320.36 1220.12 319.374C1221.06 318.388 1222.36 317.813 1223.73 317.775C1225.11 317.738 1226.44 318.241 1227.44 319.174C1228.43 320.107 1229.02 321.394 1229.06 322.753L1229.46 337.224C1229.5 338.582 1228.99 339.9 1228.04 340.887C1227.1 341.875 1225.8 342.451 1224.42 342.49V342.49Z" fill="#3F3D56"/>
<path d="M1452.94 395.379C1445.07 395.379 1436.45 395.085 1427.06 394.496C1378.53 391.447 1315.66 380.845 1250.04 364.643C1184.43 348.442 1123.9 328.576 1079.6 308.707C1058.03 299.028 1041.47 289.865 1030.39 281.474C1018.65 272.591 1013.52 264.848 1015.13 258.461C1018.27 246.018 1046.06 243.296 1068.82 243.203L1068.83 245.013C1037.57 245.14 1019.13 250.071 1016.91 258.899C1014.07 270.143 1037.2 287.696 1080.36 307.059C1124.55 326.884 1184.97 346.712 1250.49 362.888C1316 379.063 1378.75 389.647 1427.18 392.69C1474.47 395.663 1503.22 390.919 1506.06 379.675C1508.41 370.339 1492.89 356.587 1462.36 340.951L1463.2 339.344C1485.38 350.706 1511.14 367.001 1507.83 380.113C1506.22 386.5 1498.02 390.949 1483.44 393.337C1475.13 394.697 1464.93 395.379 1452.94 395.379Z" fill="#CCCCCC"/>
<path d="M1035.18 383.524C1028.93 383.524 1024.87 381.988 1023.07 378.935C1019.53 372.915 1025.46 362.352 1040.72 347.539L1042 348.83C1027.83 362.59 1021.67 372.958 1024.65 378.025C1026.54 381.229 1032.16 382.378 1040.9 381.344C1049.58 380.319 1061.08 377.264 1075.08 372.264C1103.91 361.969 1140.08 344.603 1176.93 323.366C1213.77 302.13 1246.88 279.565 1270.15 259.829C1274.62 256.038 1278.68 252.391 1282.21 248.989C1286.85 244.633 1291.12 239.918 1295 234.888C1300.22 227.875 1301.98 222.474 1300.09 219.269C1296.94 213.916 1283.7 214.419 1262.81 220.688L1262.28 218.957C1284.69 212.232 1297.95 212.03 1301.67 218.358C1303.99 222.29 1302.24 228.213 1296.47 235.962C1292.53 241.071 1288.19 245.861 1283.49 250.286C1279.93 253.714 1275.84 257.387 1271.34 261.203C1247.99 281.008 1214.78 303.64 1177.85 324.93C1140.91 346.22 1104.63 363.635 1075.7 373.966C1061.57 379.013 1049.93 382.1 1041.12 383.141C1039.15 383.384 1037.16 383.512 1035.18 383.524V383.524Z" fill="#CCCCCC"/>
<path d="M1368.97 309.228C1364.45 309.139 1340.17 308.45 1336.19 308.619C1335.96 307.839 1328.42 317.409 1328.23 317.469C1328.11 317.597 1328.02 317.752 1327.97 317.921C1327.92 318.09 1327.92 318.269 1327.95 318.441C1327.99 318.613 1328.07 318.774 1328.18 318.911C1328.29 319.047 1328.44 319.154 1328.6 319.223C1329.04 319.489 1368.18 318.773 1368.66 318.866C1368.86 318.863 1369.06 318.803 1369.24 318.692C1369.41 318.581 1369.54 318.424 1369.63 318.24L1369.89 317.66C1369.92 316.668 1370.25 311.599 1369.95 310.733C1370.02 310.57 1370.05 310.392 1370.04 310.215C1370.03 310.038 1369.97 309.867 1369.87 309.718C1369.77 309.569 1369.64 309.446 1369.48 309.36C1369.32 309.275 1369.15 309.23 1368.97 309.228V309.228Z" fill="#E6E6E6"/>
<path opacity="0.17" d="M1369.89 317.66C1369.66 318.206 1369.36 318.893 1368.66 318.867L1329.01 319.308C1328.82 319.306 1328.64 319.256 1328.48 319.163C1328.31 319.07 1328.18 318.938 1328.08 318.779C1327.99 318.619 1327.93 318.438 1327.93 318.252C1327.93 318.067 1327.97 317.883 1328.06 317.719L1369.89 317.66Z" fill="black"/>
<path d="M1336.37 308.501C1335.94 307.771 1325.35 255.88 1324.46 255.446L1317.22 246.687L1316.58 246.206C1315.68 245.717 1313.52 246.047 1313.72 247.407C1315.42 255.471 1326.35 301.403 1326.59 308.564L1327.91 317.687C1327.93 317.842 1327.99 317.991 1328.07 318.123C1328.16 318.256 1328.27 318.369 1328.4 318.456C1328.53 318.543 1328.68 318.602 1328.84 318.628C1328.99 318.655 1329.15 318.648 1329.31 318.61C1329.69 318.569 1330.05 318.433 1330.35 318.213C1330.66 317.993 1330.9 317.697 1331.06 317.356C1331.16 317.034 1336.87 308.688 1336.37 308.501Z" fill="#E6E6E6"/>
<path d="M1317.64 249.578L1324.67 259.273L1332.56 296.348L1328.89 299.513L1317.64 249.578Z" fill="#05BC6C"/>
<path d="M1364.43 314.227L1366.37 314.306C1366.4 313.742 1366.5 313.184 1366.65 312.641C1366.95 311.266 1367.21 309.631 1366 309.637C1365.17 309.559 1364.89 310.59 1364.75 311.712C1364.71 312.557 1364.6 313.399 1364.43 314.227Z" fill="#2F2E41"/>
<path d="M1353.27 311.639L1354.58 311.687L1355.22 311.711C1355.21 311.024 1355.53 309.606 1354.74 309.256C1354.62 309.203 1354.48 309.177 1354.35 309.178C1353.61 309.136 1353.39 309.691 1353.32 310.33C1353.28 310.716 1353.3 311.126 1353.29 311.446C1353.29 311.512 1353.28 311.579 1353.27 311.639Z" fill="#2F2E41"/>
<path d="M1349.39 311.483L1350.71 311.537L1351.34 311.561C1351.32 310.771 1351.74 309.046 1350.46 309.022C1349.28 308.955 1349.43 310.445 1349.4 311.29C1349.4 311.356 1349.4 311.422 1349.39 311.483Z" fill="#2F2E41"/>
<path d="M1345.51 311.331L1346.82 311.379L1347.45 311.403C1347.44 310.619 1347.86 308.894 1346.58 308.87C1345.4 308.797 1345.55 310.287 1345.52 311.138C1345.52 311.204 1345.51 311.27 1345.51 311.331Z" fill="#2F2E41"/>
<path d="M1341.62 311.174L1342.94 311.228L1343.57 311.253C1343.56 310.462 1343.98 308.743 1342.7 308.713C1341.52 308.647 1341.67 310.137 1341.64 310.981C1341.64 311.047 1341.63 311.114 1341.62 311.174Z" fill="#2F2E41"/>
<path d="M1337.74 311.023L1339.05 311.071L1339.69 311.096C1339.67 310.372 1340.03 308.858 1339.09 308.598H1339.08C1339 308.573 1338.91 308.561 1338.82 308.562C1338.7 308.552 1338.59 308.563 1338.49 308.592H1338.48C1337.66 308.803 1337.78 310.07 1337.75 310.83C1337.75 310.897 1337.75 310.963 1337.74 311.023Z" fill="#2F2E41"/>
<path d="M1360.51 310.616L1362.45 310.694C1362.45 310.622 1362.45 310.543 1362.46 310.453C1362.51 309.994 1362.51 309.532 1362.48 309.071C1362.42 308.565 1362.2 308.167 1361.58 308.155C1360.95 308.118 1360.7 308.517 1360.61 309.029C1360.58 309.116 1360.57 309.205 1360.56 309.295V309.301C1360.51 309.771 1360.54 310.278 1360.51 310.616Z" fill="#2F2E41"/>
<path d="M1356.62 310.458L1358.57 310.536C1358.61 310.019 1358.62 309.499 1358.61 308.98C1358.55 308.449 1358.34 308.015 1357.7 308.003C1357.05 307.961 1356.8 308.395 1356.7 308.932C1356.61 309.451 1356.66 310.072 1356.62 310.458Z" fill="#2F2E41"/>
<path d="M1352.74 310.307L1353.32 310.331L1354.69 310.385C1354.68 310.096 1354.74 309.673 1354.74 309.257C1354.75 309.132 1354.74 309.007 1354.73 308.883C1354.68 308.322 1354.48 307.858 1353.82 307.846C1353.14 307.81 1352.9 308.274 1352.82 308.841C1352.73 309.348 1352.78 309.933 1352.74 310.307Z" fill="#2F2E41"/>
<path d="M1360.55 314.077L1362.49 314.149C1362.49 313.365 1362.9 311.64 1361.62 311.616C1360.34 311.537 1360.62 313.287 1360.55 314.077Z" fill="#2F2E41"/>
<path d="M1356.66 313.92L1358.61 313.999C1358.6 313.208 1359.02 311.483 1357.74 311.459C1356.46 311.387 1356.74 313.136 1356.66 313.92Z" fill="#2F2E41"/>
<path d="M1352.78 313.77L1354.73 313.843C1354.72 313.282 1354.93 312.244 1354.59 311.689C1354.51 311.567 1354.4 311.466 1354.27 311.399C1354.14 311.332 1354 311.301 1353.85 311.309C1353.65 311.289 1353.45 311.338 1353.29 311.448C1352.67 311.852 1352.84 313.131 1352.78 313.77Z" fill="#2F2E41"/>
<path d="M1345.01 313.462L1346.95 313.534C1346.95 312.973 1347.16 311.936 1346.81 311.381C1346.74 311.258 1346.63 311.158 1346.5 311.091C1346.37 311.024 1346.23 310.993 1346.08 311.001C1345.88 310.98 1345.68 311.029 1345.51 311.14C1344.89 311.544 1345.07 312.822 1345.01 313.462Z" fill="#2F2E41"/>
<path d="M1341.12 313.306L1343.07 313.384C1343.06 312.823 1343.27 311.792 1342.94 311.231C1342.86 311.106 1342.75 311.003 1342.62 310.935C1342.49 310.867 1342.34 310.836 1342.2 310.845C1342 310.823 1341.8 310.872 1341.63 310.984C1341.01 311.4 1341.19 312.673 1341.12 313.306Z" fill="#2F2E41"/>
<path d="M1337.24 313.153L1339.19 313.226C1339.18 312.665 1339.39 311.633 1339.05 311.072C1338.97 310.949 1338.86 310.848 1338.73 310.781C1338.61 310.714 1338.46 310.683 1338.32 310.692C1338.12 310.671 1337.91 310.72 1337.75 310.831C1337.13 311.241 1337.3 312.514 1337.24 313.153Z" fill="#2F2E41"/>
</g>
<g filter="url(#filter3_d_1118_67)">
<rect x="358" y="219" width="33" height="140" fill="#555555"/>
</g>
<g filter="url(#filter4_d_1118_67)">
<rect x="303" y="305" width="32" height="143" transform="rotate(-90 303 305)" fill="#555555"/>
</g>
<g clip-path="url(#clip1_1118_67)">
<path d="M587.398 201.179C598.789 201.179 608.023 191.945 608.023 180.554C608.023 169.164 598.789 159.93 587.398 159.93C576.007 159.93 566.773 169.164 566.773 180.554C566.773 191.945 576.007 201.179 587.398 201.179Z" fill="#FCDDEC"/>
<path d="M604.562 169.119L569.147 190.161C566.685 185.483 566.113 180.039 567.549 174.952C568.985 169.865 572.319 165.523 576.863 162.823C581.408 160.123 586.815 159.271 591.969 160.443C597.124 161.614 601.631 164.72 604.562 169.119Z" fill="#EF5DA8"/>
<path d="M565.705 190.262H551.516V204.452H565.705V190.262Z" fill="#EF5DA8"/>
</g>
<rect width="22" height="19" transform="matrix(-1 0 0 1 598 273)" fill="white"/>
<path d="M519.911 469.422H566.041L587 323.803L579.707 273H548.338L547.374 278.111L519.911 469.422Z" fill="#EC9C00"/>
<path d="M579.702 273L585.895 322.242L626.961 390.325L607.898 469.422H654.08L672.306 406.047C675.228 395.889 674.492 385.028 670.228 375.356L625.095 273L579.702 273Z" fill="#ECB200"/>
<path d="M659.175 469.422H607.842V489.951H659.175C662.328 489.951 665.351 488.87 667.581 486.944C669.81 485.019 671.062 482.408 671.062 479.685V479.685C671.062 476.963 669.809 474.352 667.579 472.428C665.35 470.503 662.327 469.422 659.175 469.422V469.422Z" fill="#EF5DA8"/>
<path d="M514.692 489.953H566.025V469.424H514.692C511.539 469.424 508.516 470.505 506.286 472.431C504.057 474.356 502.805 476.967 502.805 479.69V479.69C502.806 482.412 504.059 485.023 506.288 486.947C508.517 488.872 511.54 489.953 514.692 489.953V489.953Z" fill="#EF5DA8"/>
<rect width="22" height="20" transform="matrix(-1 0 0 1 598 253)" fill="white"/>
<path d="M502.052 305.761L524.785 315.861L544.864 278.461L547.757 273.081H622.586V268.058L622.718 268.241L631.584 280.608C632.493 281.875 633.669 282.967 635.043 283.821C636.418 284.675 637.964 285.274 639.594 285.584C641.223 285.893 642.904 285.908 644.539 285.626C646.175 285.344 647.733 284.771 649.125 283.941L707.117 249.498L693.239 230.264L645.847 258.394L619.447 221.534C617.805 218.129 615.559 214.992 612.8 212.248L612.433 211.751L612.338 211.808C608.857 208.456 604.659 205.787 600.001 203.965C595.344 202.142 590.326 201.205 585.256 201.211H580.793C572.635 201.214 564.703 203.646 558.21 208.136C551.717 212.625 547.02 218.925 544.838 226.071L502.052 305.761Z" fill="#EF5DA8"/>
<path d="M705.628 238.065C707.505 239.917 709.998 241.158 712.725 241.597C715.452 242.037 718.262 241.651 720.724 240.498L732.421 235.018C735.404 233.622 737.655 231.206 738.678 228.302C739.702 225.397 739.414 222.242 737.879 219.53C736.343 216.818 733.685 214.772 730.49 213.841C727.295 212.911 723.824 213.172 720.841 214.568L709.13 220.048C707.399 220.859 705.897 222.023 704.742 223.448C703.586 224.874 702.808 226.522 702.467 228.265C702.127 230.009 702.234 231.8 702.78 233.5C703.326 235.199 704.295 236.762 705.614 238.065H705.628Z" fill="#FCDDEC"/>
<path d="M495.4 346.395C498.074 347.051 500.911 346.891 503.476 345.94C506.041 344.99 508.193 343.301 509.601 341.132L516.292 330.832C517.136 329.531 517.69 328.092 517.923 326.597C518.155 325.101 518.061 323.579 517.646 322.116C517.231 320.654 516.504 319.28 515.505 318.074C514.506 316.867 513.255 315.851 511.824 315.083C508.935 313.534 505.486 313.091 502.237 313.853C500.629 314.23 499.118 314.891 497.79 315.799C496.463 316.708 495.345 317.844 494.501 319.145L487.81 329.455C486.965 330.756 486.411 332.195 486.178 333.691C485.945 335.186 486.039 336.709 486.454 338.171C486.869 339.634 487.596 341.008 488.595 342.215C489.594 343.421 490.845 344.438 492.276 345.205C493.255 345.725 494.305 346.125 495.4 346.395V346.395Z" fill="#FCDDEC"/>
<defs>
<filter id="filter0_d_1118_67" x="87.3984" y="215.398" width="155.188" height="149.02" filterUnits="userSpaceOnUse" color-interpolation-filters="sRGB">
<feFlood flood-opacity="0" result="BackgroundImageFix"/>
<feColorMatrix in="SourceAlpha" type="matrix" values="0 0 0 0 0 0 0 0 0 0 0 0 0 0 0 0 0 0 127 0" result="hardAlpha"/>
<feOffset dy="4"/>
<feGaussianBlur stdDeviation="2"/>
<feComposite in2="hardAlpha" operator="out"/>
<feColorMatrix type="matrix" values="0 0 0 0 0 0 0 0 0 0 0 0 0 0 0 0 0 0 0.25 0"/>
<feBlend mode="normal" in2="BackgroundImageFix" result="effect1_dropShadow_1118_67"/>
<feBlend mode="normal" in="SourceGraphic" in2="effect1_dropShadow_1118_67" result="shape"/>
</filter>
<filter id="filter1_d_1118_67" x="778" y="252" width="151" height="93" filterUnits="userSpaceOnUse" color-interpolation-filters="sRGB">
<feFlood flood-opacity="0" result="BackgroundImageFix"/>
<feColorMatrix in="SourceAlpha" type="matrix" values="0 0 0 0 0 0 0 0 0 0 0 0 0 0 0 0 0 0 127 0" result="hardAlpha"/>
<feOffset dy="4"/>
<feGaussianBlur stdDeviation="2"/>
<feComposite in2="hardAlpha" operator="out"/>
<feColorMatrix type="matrix" values="0 0 0 0 0 0 0 0 0 0 0 0 0 0 0 0 0 0 0.25 0"/>
<feBlend mode="normal" in2="BackgroundImageFix" result="effect1_dropShadow_1118_67"/>
<feBlend mode="normal" in="SourceGraphic" in2="effect1_dropShadow_1118_67" result="shape"/>
</filter>
<filter id="filter2_d_1118_67" x="997" y="87" width="529.32" height="359" filterUnits="userSpaceOnUse" color-interpolation-filters="sRGB">
<feFlood flood-opacity="0" result="BackgroundImageFix"/>
<feColorMatrix in="SourceAlpha" type="matrix" values="0 0 0 0 0 0 0 0 0 0 0 0 0 0 0 0 0 0 127 0" result="hardAlpha"/>
<feOffset dy="4"/>
<feGaussianBlur stdDeviation="2"/>
<feComposite in2="hardAlpha" operator="out"/>
<feColorMatrix type="matrix" values="0 0 0 0 0 0 0 0 0 0 0 0 0 0 0 0 0 0 0.25 0"/>
<feBlend mode="normal" in2="BackgroundImageFix" result="effect1_dropShadow_1118_67"/>
<feBlend mode="normal" in="SourceGraphic" in2="effect1_dropShadow_1118_67" result="shape"/>
</filter>
<filter id="filter3_d_1118_67" x="354" y="219" width="41" height="148" filterUnits="userSpaceOnUse" color-interpolation-filters="sRGB">
<feFlood flood-opacity="0" result="BackgroundImageFix"/>
<feColorMatrix in="SourceAlpha" type="matrix" values="0 0 0 0 0 0 0 0 0 0 0 0 0 0 0 0 0 0 127 0" result="hardAlpha"/>
<feOffset dy="4"/>
<feGaussianBlur stdDeviation="2"/>
<feComposite in2="hardAlpha" operator="out"/>
<feColorMatrix type="matrix" values="0 0 0 0 0 0 0 0 0 0 0 0 0 0 0 0 0 0 0.25 0"/>
<feBlend mode="normal" in2="BackgroundImageFix" result="effect1_dropShadow_1118_67"/>
<feBlend mode="normal" in="SourceGraphic" in2="effect1_dropShadow_1118_67" result="shape"/>
</filter>
<filter id="filter4_d_1118_67" x="299" y="273" width="151" height="40" filterUnits="userSpaceOnUse" color-interpolation-filters="sRGB">
<feFlood flood-opacity="0" result="BackgroundImageFix"/>
<feColorMatrix in="SourceAlpha" type="matrix" values="0 0 0 0 0 0 0 0 0 0 0 0 0 0 0 0 0 0 127 0" result="hardAlpha"/>
<feOffset dy="4"/>
<feGaussianBlur stdDeviation="2"/>
<feComposite in2="hardAlpha" operator="out"/>
<feColorMatrix type="matrix" values="0 0 0 0 0 0 0 0 0 0 0 0 0 0 0 0 0 0 0.25 0"/>
<feBlend mode="normal" in2="BackgroundImageFix" result="effect1_dropShadow_1118_67"/>
<feBlend mode="normal" in="SourceGraphic" in2="effect1_dropShadow_1118_67" result="shape"/>
</filter>
<clipPath id="clip0_1118_67">
<rect width="521.316" height="351" fill="white" transform="translate(1001 87)"/>
</clipPath>
<clipPath id="clip1_1118_67">
<rect width="56.5067" height="44.5206" fill="white" transform="translate(551.516 159.93)"/>
</clipPath>
</defs>
</svg>
